<svg version="1.1" id="Layer_1" class="header-logo img-responsive" xmlns="http://www.w3.org/2000/svg" xmlns:xlink="http://www.w3.org/1999/xlink" x="0px" y="0px"
	 width="800px" height="400px" viewBox="0 0 800 400" style="enable-background:new 0 0 800 400;" xml:space="preserve">
<g>
	<path style="fill:#303030;" d="M320.289,210.957l-3.816-19.815h22.898c1.662,0,2.495-0.734,2.495-2.202v-19.375
		c0-1.468-0.294-2.348-0.881-2.642s-1.614-0.44-3.082-0.44h-11.009c-1.566,0-3.06-0.122-4.478-0.367
		c-1.419-0.243-2.692-0.807-3.815-1.688c-1.127-0.88-2.007-2.103-2.643-3.669c-0.638-1.564-0.954-3.669-0.954-6.312v-36.108
		c0-4.206,1.149-7.559,3.449-10.054c2.298-2.496,5.945-3.743,10.936-3.743h29.356l3.669,19.815h-24.072
		c-1.761,0-2.642,0.785-2.642,2.349v19.375c0,1.078,0.269,1.812,0.808,2.202c0.536,0.392,1.344,0.587,2.422,0.587h13.356
		c3.425,0,6.041,0.807,7.854,2.422c1.81,1.614,2.715,4.429,2.715,8.44v35.081c0,5.871-1.199,10.032-3.596,12.477
		c-2.399,2.446-6.631,3.669-12.696,3.669h-26.274V210.957z"/>
	<path style="fill:#303030;" d="M426.85,195.839c0,2.055-0.244,3.988-0.732,5.798c-0.491,1.812-1.321,3.401-2.495,4.771
		c-1.175,1.371-2.741,2.473-4.697,3.303c-1.959,0.833-4.402,1.247-7.339,1.247h-24.659c-2.936,0-5.383-0.414-7.339-1.247
		c-1.959-0.83-3.523-1.932-4.697-3.303c-1.175-1.369-2.007-2.958-2.495-4.771c-0.491-1.81-0.734-3.743-0.734-5.798v-77.5
		c0-4.206,1.149-7.559,3.449-10.054c2.298-2.496,5.945-3.743,10.936-3.743h26.421c4.99,0,8.636,1.248,10.936,3.743
		c2.299,2.495,3.448,5.848,3.448,10.054v77.5H426.85z M394.998,123.182c-1.272,0-1.907,0.686-1.907,2.055v64.877
		c0,0.784,0.121,1.346,0.366,1.688c0.243,0.344,0.808,0.514,1.688,0.514h8.073c0.88,0,1.442-0.17,1.688-0.514
		c0.243-0.342,0.367-0.904,0.367-1.688v-64.877c0-1.369-0.639-2.055-1.908-2.055H394.998z"/>
	<path style="fill:#303030;" d="M435.655,104.541h20.256l10.862,42.713v-42.713h21.869v106.416h-21.869l-11.449-44.474v44.474
		h-19.669V104.541z"/>
	<path style="fill:#303030;" d="M552.639,195.839c0,2.055-0.245,3.988-0.732,5.798c-0.491,1.812-1.321,3.401-2.495,4.771
		c-1.175,1.371-2.741,2.473-4.697,3.303c-1.959,0.833-4.403,1.247-7.339,1.247h-24.659c-2.936,0-5.383-0.414-7.339-1.247
		c-1.959-0.83-3.523-1.932-4.697-3.303c-1.175-1.369-2.007-2.958-2.495-4.771c-0.49-1.81-0.733-3.743-0.733-5.798v-77.5
		c0-4.206,1.148-7.559,3.449-10.054c2.298-2.496,5.944-3.743,10.936-3.743h26.421c4.99,0,8.635,1.248,10.936,3.743
		c2.299,2.495,3.448,5.848,3.448,10.054v77.5H552.639z M520.787,123.182c-1.272,0-1.907,0.686-1.907,2.055v64.877
		c0,0.784,0.121,1.346,0.366,1.688c0.243,0.344,0.808,0.514,1.688,0.514h8.073c0.88,0,1.442-0.17,1.688-0.514
		c0.242-0.342,0.367-0.904,0.367-1.688v-64.877c0-1.369-0.639-2.055-1.908-2.055H520.787z"/>
	<path style="fill:#303030;" d="M616.194,167.657c0,2.348-0.809,4.502-2.423,6.458c-1.614,1.959-3.988,2.936-7.118,2.936
		l11.154,33.906H595.79l-10.274-33.906h-2.789v33.906h-21.282V104.541h40.364c4.99,0,8.636,1.248,10.936,3.743
		c2.299,2.495,3.45,5.848,3.45,10.054V167.657z M582.729,123.182v36.695h10.422c1.369,0,2.055-0.734,2.055-2.202v-32.292
		c0-1.468-0.686-2.202-2.055-2.202L582.729,123.182L582.729,123.182z"/>
	<path style="fill:#303030;" d="M644.67,197.747l-1.908,13.21h-21.43l19.229-106.416h22.751l19.229,106.416H661.11l-1.907-13.21
		H644.67z M647.019,180.867h9.835l-4.844-37.723L647.019,180.867z"/>
	<path style="fill:#303030;" d="M693.108,101.605h17.761l-11.449,41.833h-13.21L693.108,101.605z"/>
	<path style="fill:#303030;" d="M722.758,210.957l-3.815-19.815h22.897c1.662,0,2.495-0.734,2.495-2.202v-19.375
		c0-1.468-0.294-2.348-0.881-2.642s-1.614-0.44-3.082-0.44h-11.009c-1.566,0-3.061-0.122-4.479-0.367
		c-1.419-0.243-2.691-0.807-3.814-1.688c-1.127-0.88-2.007-2.103-2.644-3.669c-0.638-1.564-0.954-3.669-0.954-6.312v-36.108
		c0-4.206,1.149-7.559,3.449-10.054c2.298-2.496,5.945-3.743,10.937-3.743h29.355l3.669,19.815h-24.072
		c-1.761,0-2.642,0.785-2.642,2.349v19.375c0,1.078,0.269,1.812,0.808,2.202c0.536,0.392,1.345,0.587,2.423,0.587h13.355
		c3.425,0,6.041,0.807,7.854,2.422c1.81,1.614,2.715,4.429,2.715,8.44v35.081c0,5.871-1.199,10.032-3.596,12.477
		c-2.399,2.446-6.632,3.669-12.696,3.669h-26.274V210.957z"/>
</g>
<g>
	<path style="fill:#303030;" d="M364.318,255.965c-0.528,0-1.253-0.213-2.175-0.643c-0.924-0.428-1.681-0.576-2.274-0.445
		l-10.183,2.768v52.005c0,1.911,0.46,3.987,1.384,6.229c0.263,0.659,0.198,1.912-0.197,3.757c-0.396,2.042-1.022,3.327-1.879,3.855
		c-0.133,0.064-0.462,0.099-0.988,0.099c-2.175,0-5.207-0.43-9.096-1.285c-4.35-0.987-6.921-1.944-7.712-2.867
		c-0.923-1.186-0.89-2.768,0.1-4.744c0.855-1.715,1.285-2.967,1.285-3.758v-48.938l-7.02,1.78c-0.331,0.065-0.874,0.346-1.632,0.84
		c-0.758,0.494-1.4,0.677-1.928,0.543c-1.517-0.395-3.593-2.355-6.229-5.883c-2.637-3.523-3.789-5.914-3.46-7.166
		c0.526-1.516,2.076-2.67,4.646-3.461c0.658-0.197,1.516-0.23,2.57-0.101c1.054,0.134,1.879,0.134,2.472,0l34.405-8.799
		c0.329-0.063,1.285-0.46,2.867-1.187c1.054-0.461,2.01-0.625,2.867-0.494c1.845,0.265,3.098,0.988,3.757,2.175
		c0.46,0.791,0.955,2.274,1.483,4.448c0.657,2.57,0.988,4.812,0.988,6.724c0,1.451-0.183,2.556-0.544,3.312
		C367.465,255.486,366.296,255.898,364.318,255.965z"/>
	<path style="fill:#303030;" d="M394.274,244.102c0,0.461-0.148,1.086-0.445,1.877s-0.479,1.285-0.544,1.483
		c-0.396,1.319-0.791,3.361-1.187,6.13v60.703c0,0.791,0.198,1.5,0.594,2.125c0.396,0.628,0.593,1.138,0.593,1.533
		c0,4.217-0.791,6.49-2.373,6.821c-0.593,0.132-2.9-0.296-6.92-1.285c-4.219-1.057-6.658-1.878-7.316-2.473
		c-1.45-1.251-2.175-2.404-2.175-3.46c0-0.263,0.131-0.56,0.396-0.89c0.263-0.329,0.396-0.891,0.396-1.682v-69.699
		c0-0.396-0.116-0.808-0.346-1.236c-0.232-0.428-0.347-0.84-0.347-1.235c0.132-1.582,1.351-2.635,3.658-3.162
		c0.725-0.133,2.24-0.133,4.548,0c2.833,0.197,5.206,0.561,7.118,1.087C392.823,241.529,394.274,242.652,394.274,244.102z"/>
	<path style="fill:#303030;" d="M459.027,308.561c0.594,1.121-0.577,3.873-3.511,8.257c-2.933,4.382-5.388,6.54-7.364,6.475
		c-2.11-0.066-3.791-1.186-5.042-3.361c-0.197-0.657-0.692-1.612-1.482-2.866l-20.861-19.477v18.29c0,0.728,0.28,1.648,0.842,2.769
		c0.559,1.121,0.84,1.942,0.84,2.473c0,1.977-1.285,3.063-3.855,3.262c-1.978,0.197-4.911-0.165-8.799-1.088
		c-4.219-0.924-6.327-1.912-6.327-2.965c0-0.33,0.082-0.774,0.247-1.335c0.163-0.561,0.247-1.27,0.247-2.126v-69.008
		c0-0.461-0.099-0.873-0.297-1.236c-0.197-0.361-0.297-0.643-0.297-0.84c0.064-1.779,1.385-2.833,3.955-3.164
		c0.791-0.131,2.586,0.183,5.388,0.939c2.801,0.758,4.795,1.104,5.981,1.037c1.119-0.063,3.41-0.972,6.871-2.719
		c3.461-1.745,6.476-2.62,9.047-2.62c0.987,0,2.01,0.101,3.063,0.298c1.845,0.396,3.525,1.252,5.042,2.569
		c1.517,1.319,2.966,2.638,4.352,3.955c3.624,3.428,5.502,5.239,5.635,5.438c1.713,1.977,2.636,4.186,2.769,6.623
		c0.396,7.646-6.13,17.467-19.575,29.463c2.769,2.506,8.863,8.602,18.29,18.289c0.594,0.197,1.449,0.594,2.57,1.188
		C457.412,307.408,458.17,307.902,459.027,308.561z M437.179,253.295c-3.099,0-8.568,3.23-16.412,9.689v15.125
		c2.833-1.119,6.559-4.514,11.173-10.183c4.612-5.668,6.921-9.887,6.921-12.655C438.859,253.955,438.299,253.295,437.179,253.295z"
		/>
	<path style="fill:#303030;" d="M510.338,309.352c-0.198,1.121-0.775,2.323-1.729,3.609c-0.956,1.285-1.798,2.062-2.521,2.322
		c-0.197,0.065-0.561-0.049-1.087-0.347c-0.528-0.297-0.956-0.444-1.285-0.444c-0.133,0-0.265,0.035-0.396,0.1
		c-2.044,0.593-4.088,1.384-6.13,2.373c-4.88,2.24-9.359,5.106-13.445,8.602c-6.592-2.703-10.185-4.188-10.776-4.448
		c-4.088-1.78-6.13-3.099-6.13-3.955v-74.347c0-0.461,0.773-1.121,2.323-1.979c1.548-0.855,2.685-1.251,3.411-1.186
		c0.791,0.065,2.372,0.576,4.745,1.531c2.373,0.957,4.315,1.434,5.833,1.434c1.978,0,4.548-0.889,7.712-2.669
		c2.898-1.714,4.711-2.438,5.438-2.175c1.582,0.527,3.938,2.258,7.068,5.189c3.13,2.934,4.828,5.026,5.092,6.278
		c0.131,0.593-0.479,1.614-1.829,3.063c-1.352,1.45-2.456,2.176-3.312,2.176c-0.728,0-1.253-0.1-1.582-0.297
		c-0.331-0.197-0.562-0.264-0.692-0.197c-2.373,0.527-4.582,1.152-6.624,1.877c-4.878,1.648-8.47,3.561-10.776,5.734v16.115
		c2.308-1.188,5.306-2.404,8.997-3.658c1.055-0.131,3.278,1.336,6.675,4.399c3.394,3.065,5.091,5.19,5.091,6.377
		c0,0.726-0.462,1.582-1.384,2.571c-0.925,0.988-1.813,1.615-2.67,1.877c-0.659,0-1.813,0.066-3.461,0.199
		c-2.506,0.461-6.92,2.569-13.248,6.326v10.38c1.979-1.186,4.662-2.585,8.059-4.2c3.395-1.614,5.487-2.422,6.278-2.422
		c0.922,0,3.244,1.434,6.97,4.301C508.672,306.732,510.469,308.561,510.338,309.352z"/>
	<path style="fill:#303030;" d="M583.695,306.88c0,4.878-1.615,8.882-4.845,12.013c-3.229,3.13-7.712,4.762-13.445,4.895
		c-1.45,0-3-0.231-4.646-0.692c-3.032-0.856-4.614-1.285-4.745-1.285c-1.582-0.329-3.181-0.677-4.795-1.037
		c-1.615-0.362-3.016-1.104-4.202-2.226c-1.778-1.581-3.229-4.152-4.35-7.712c-1.385-4.152-2.438-6.754-3.164-7.81
		c-0.528-0.526-1.154-1.449-1.878-2.77c-0.198-0.988-0.018-1.96,0.543-2.916c0.561-0.955,1.236-1.564,2.027-1.828
		c0.396-0.133,1.12-0.199,2.175-0.199c2.307,0,5.124,0.281,8.453,0.842c3.327,0.561,5.189,1.07,5.586,1.531
		c0.396,0.463,0.922,2.834,1.582,7.119c0.593,3.953,1.481,6.162,2.669,6.623c0.263,0.133,0.56,0.197,0.89,0.197
		c1.251,0,2.323-1.037,3.213-3.113c0.891-2.076,1.335-4.432,1.335-7.068c0-5.734-1.778-9.557-5.339-11.469
		c-8.173-4.416-13.906-8.502-17.202-12.26c-3.822-4.35-5.536-9.49-5.142-15.423c0.329-4.942,2.126-9.937,5.389-14.978
		c3.264-5.043,6.706-7.992,10.331-8.851c1.517-0.327,6.13,1.122,13.842,4.351c1.91,0.727,3.839,1.483,5.783,2.274
		c1.943,0.791,3.51,1.944,4.696,3.459c1.845,2.31,2.768,6.295,2.768,11.964c0,1.055-0.032,2.604-0.099,4.646
		c-0.066,1.78-0.099,3.032-0.099,3.758c0.063,0.461,0.297,1.222,0.691,2.272c0.329,0.728,0.46,1.451,0.396,2.177
		c-0.133,2.899-1.354,4.515-3.658,4.844c-1.319,0.196-3.757-0.297-7.316-1.481c-3.954-1.252-6.46-2.604-7.514-4.055
		c-0.133-0.197-0.197-0.855-0.197-1.979c0-0.987,0.114-3.229,0.347-6.723c0.229-3.492,0.346-6.031,0.346-7.613
		c0-2.832-0.33-4.217-0.988-4.151c-2.044,0.133-3.741,1.601-5.092,4.399c-1.352,2.803-2.026,5.98-2.026,9.541
		c0,5.933,1.745,10.15,5.239,12.654c3.955,2.506,7.909,5.01,11.864,7.514c3.757,2.439,6.359,4.879,7.811,7.316
		C582.771,296.796,583.695,301.213,583.695,306.88z"/>
	<path style="fill:#303030;" d="M647.561,282.955c-0.065,0.924-0.84,2.061-2.322,3.41c-1.482,1.352-2.556,2.027-3.213,2.027
		c-0.925,0-1.483,0.032-1.682,0.099v24.914c0-0.198,0.329,1.021,0.988,3.657c0.594,4.218,0.1,6.688-1.482,7.415
		c-0.331,0.132-0.824,0.197-1.482,0.197c-2.309,0-5.273-0.824-8.897-2.472c-3.89-1.715-6.263-3.427-7.118-5.143
		c-0.065-0.593-0.166-1.481-0.297-2.669c-0.133-0.46,0.1-1.087,0.692-1.878s0.89-1.285,0.89-1.482v-19.971
		c-1.253,0.133-3.725,0.627-7.415,1.482c-3.691,0.857-6.13,1.518-7.315,1.977v20.07c0,0.461,0.214,1.006,0.643,1.631
		c0.43,0.627,0.676,1.104,0.742,1.435c-0.265,1.055-0.495,2.076-0.692,3.063c-0.197,0.726-0.561,1.188-1.088,1.385
		c-1.055,0.396-4.004-0.215-8.848-1.828c-4.845-1.614-7.399-2.917-7.662-3.905c-0.198-0.726-0.265-1.517-0.198-2.373
		c0.198-1.317,0.297-2.24,0.297-2.769v-63.272c0-1.056,0.298-2.867,0.891-5.438c0.131-0.656,1.251-1.58,3.361-2.769
		c0.132-0.063,0.493-0.099,1.088-0.099c2.438,0,5.008,0.396,7.711,1.187c3.492,1.056,5.339,2.438,5.537,4.152
		c0.063,0.594-0.216,1.715-0.842,3.36c-0.627,1.648-0.938,2.77-0.938,3.361v24.123c4.48-1.119,9.393-2.273,14.73-3.46
		c0-18.256,0-27.45,0-27.583c0-0.132-0.147-0.626-0.444-1.482c-0.297-0.855-0.38-1.549-0.247-2.076
		c0.329-1.188,1.417-1.943,3.263-2.274c1.384-0.197,2.77-0.36,4.152-0.494c1.448-0.196,3.573,0.231,6.377,1.285
		c2.801,1.056,4.365,2.176,4.695,3.36c0.132,0.529,0,1.222-0.396,2.076c-0.462,1.123-0.692,2.045-0.692,2.771v27.286
		c0.329,0.396,1.878,1.812,4.646,4.251C646.77,281.076,647.626,282.23,647.561,282.955z"/>
	<path style="fill:#303030;" d="M689.676,323.291c-1.384,0.132-2.934-0.049-4.646-0.543c-1.715-0.494-3.396-1.006-5.042-1.533
		c-1.979-0.527-5.076-1.481-9.294-2.867c-5.273-2.306-9.262-6.854-11.962-13.643c-2.373-5.997-3.561-13.248-3.561-21.75
		c0-6.921,1.188-14.994,3.561-24.223c3.229-12.392,7.414-18.586,12.556-18.586c0.46,0,1.103,0.114,1.928,0.346
		c0.823,0.23,1.466,0.38,1.929,0.445c4.877-1.386,8.008-2.076,9.393-2.076c0.657,0,1.317,0.033,1.977,0.098
		c7.909,0.989,14.139,5.934,18.687,14.83c4.086,8.043,6.13,17.633,6.13,28.77c0,10.547-1.846,19.609-5.536,27.188
		C701.836,317.986,696.464,322.5,689.676,323.291z M687.896,250.823c-1.451-0.396-2.886,1.55-4.302,5.833
		c-1.418,4.285-2.852,6.426-4.301,6.426c-0.331,0-0.808-0.18-1.434-0.543c-0.628-0.361-1.138-0.576-1.532-0.643
		c-2.241,4.942-3.361,11.996-3.361,21.156c0,7.186,0.757,13.348,2.273,18.487c1.714,5.734,4.086,8.898,7.117,9.491
		c3.561,0.659,6.428-2.998,8.603-10.975c1.911-6.986,2.867-15.291,2.867-24.914c0-6.524-0.494-11.996-1.483-16.412
		C691.29,253.986,689.807,251.352,687.896,250.823z"/>
	<path style="fill:#303030;" d="M755.815,245.484c6.327,3.361,9.49,9.129,9.49,17.302c0,5.933-2.34,13.446-7.02,22.542
		c-5.207,10.15-10.514,15.225-15.917,15.225c-1.055,0-2.225-0.51-3.51-1.533c-1.285-1.021-2.556-2.024-3.808-3.015v16.808
		c0,0.857,0.164,1.847,0.494,2.966c0.461,1.582,0.758,2.67,0.892,3.264c0.131,0.593-0.116,1.663-0.742,3.213
		c-0.627,1.547-1.532,2.388-2.72,2.521c-1.187,0.132-3.757-0.692-7.711-2.473c-4.151-1.846-6.723-3.491-7.712-4.942
		c-0.593-0.922-0.593-2.308,0-4.152c0.461-1.384,0.692-2.471,0.692-3.262v-61.1c0-0.396-0.231-1.119-0.692-2.176
		c-0.462-1.054-0.658-1.812-0.593-2.273c0.396-3.164,1.582-4.744,3.56-4.744c0.328,0,1.663,0.379,4.004,1.137
		c2.339,0.758,4.201,1.17,5.586,1.234c1.978,0.066,4.499-0.459,7.562-1.582c3.064-1.119,5.289-1.68,6.674-1.68
		c0.791,0,1.581,0.1,2.372,0.297c1.517,0.396,3.099,1.383,4.746,2.965C753.443,243.871,754.892,245.023,755.815,245.484z
		 M747.61,253.098c-1.519,0-3.626,0.824-6.328,2.471c-2.703,1.648-4.779,3.461-6.229,5.438v23.827
		c3.561-1.12,6.921-5.173,10.085-12.16c2.899-6.326,4.351-11.697,4.351-16.115C749.488,254.252,748.861,253.098,747.61,253.098z"/>
</g>
<g>
	<path style="fill-rule:evenodd;clip-rule:evenodd;fill:#303030;" d="M260.806,128.866c0.472,1.465,0.962,2.98,1.417,4.488
		c0.119,0.396,0.242,0.795,0.363,1.193c0.639,2.081,1.299,4.235,1.695,6.46c0.299,1.685,0.379,3.369,0.456,4.999
		c0.034,0.697,0.064,1.361,0.111,2.021c0.007-0.042,0.015-0.083,0.022-0.124c0.531-3.248,0.229-6.516-0.09-9.977l-0.069-0.739
		c-0.042-0.451-0.273-1.026-0.519-1.634c-0.123-0.304-0.25-0.616-0.367-0.946c-0.044-0.083-0.099-0.192-0.146-0.323
		c-0.709-1.957-1.719-3.776-3.012-5.844C260.714,128.583,260.76,128.726,260.806,128.866z"/>
	<path id="deer" style="fill:#303030;" d="M194.789,94.939c-0.223,0.456-0.331,0.714-0.472,0.953c-0.673,1.139-1.435,2.233-2.019,3.416
		c-0.929,1.877-2.508,3.153-3.94,4.573c-2.528,2.508-5.186,4.907-7.533,7.576c-3.191,3.631-5.782,7.683-7.143,12.4
		c-0.47,1.631-0.917,3.269-1.291,4.923c-0.093,0.41,0.141,0.893,0.225,1.343c0.333-0.287,0.769-0.513,0.979-0.873
		c1.725-2.933,3.391-5.899,5.103-8.839c1.875-3.218,3.777-6.42,5.673-9.625c0.146-0.247,0.348-0.459,0.649-0.849
		c0.439,1.414,0.521,2.707,0.17,3.894c-0.734,2.479-1.658,4.901-2.521,7.342c-0.409,1.156-0.859,2.299-1.377,3.676
		c0.627-0.207,1.005-0.311,1.367-0.453c6.358-2.505,12.689-5.077,19.076-7.499c3.683-1.396,7.474-2.501,11.18-3.839
		c2.257-0.815,4.43-1.86,6.669-2.729c0.846-0.329,1.768-0.463,2.662-0.665c0.072-0.016,0.139-0.024,0.2-0.024
		c0.284,0,0.438,0.174,0.332,0.548c-0.234,0.802-0.511,1.534-1.229,2.117c-3.374,2.742-7.2,4.744-10.917,6.95
		c-3.294,1.953-6.88,3.256-10.221,5.062c-5.297,2.861-11.066,4.793-16.095,8.161c-1.834,1.228-3.567,2.607-5.318,3.955
		c-0.962,0.74-1.883,1.536-2.791,2.342c-1.468,1.306-2.943,2.609-4.34,3.988c-0.362,0.358-0.547,0.986-0.629,1.52
		c-0.164,1.064-0.251,2.146-0.275,3.224c-0.033,1.406,0.724,2.506,1.567,3.54c3.051,3.739,7.037,6.391,10.986,8.996
		c3.625,2.389,7.57,4.278,11.74,5.608c0.365,0.117,0.741,0.171,1.121,0.171c1.337,0,2.7-0.672,3.632-1.651
		c1.943-2.039,2.544-4.471,2.673-7.168c0.219-4.61,0.536-9.217,0.82-13.823c0.023-0.376,0.025-0.782,0.172-1.114
		c0.148-0.333,0.482-0.845,0.695-0.845c0.004,0,0.008,0,0.012,0.001c0.349,0.034,0.828,0.384,0.949,0.713
		c0.285,0.774,0.498,1.607,0.555,2.428c0.163,2.423,0.289,4.852,0.328,7.279c0.054,3.235,0.075,6.474-0.007,9.708
		c-0.059,2.314-0.234,4.631-0.5,6.93c-0.183,1.564,0.315,2.894,1.086,4.132c1.324,2.125,3.151,3.81,5.057,5.402
		c0.712,0.594,1.574,0.787,2.491,0.814c3.185,0.097,6.372,0.186,9.553,0.334c0.053,0.003,0.105,0.004,0.157,0.004
		c1.099,0,1.96-0.531,2.827-1.085c0.187-0.118,0.352-0.447,0.345-0.674c-0.136-4.316-0.179-8.64-0.491-12.946
		c-0.38-5.276-0.994-10.535-1.5-15.804c-0.032-0.335-0.004-0.675-0.004-1.162c1.168,0.497,1.943,1.168,2.17,2.271
		c0.697,3.382,1.378,6.767,1.995,10.163c0.439,2.416,0.737,4.857,1.154,7.277c0.227,1.313,0.73,1.953,1.71,1.953
		c0.295,0,0.633-0.058,1.021-0.173c1.803-0.539,3.598-1.199,5.26-2.067c1.81-0.944,3.466-2.184,5.185-3.305
		c0.538-0.351,0.707-0.877,0.796-1.509c0.742-5.326-0.769-10.251-2.523-15.169c-1.214-3.403-2.296-6.863-3.228-10.354
		c-1.023-3.833-1.81-7.729-2.696-11.598c-0.046-0.2-0.067-0.407-0.1-0.609c0.078-0.038,0.156-0.074,0.234-0.109
		c0.687,1.232,1.492,2.416,2.044,3.708c2.008,4.688,3.921,9.417,5.894,14.121c0.49,1.169,1.048,2.312,1.608,3.452
		c0.227,0.461,0.519,0.683,0.851,0.683c0.258,0,0.538-0.133,0.829-0.394c0.222-0.2,0.7-0.436,0.893-0.436
		c0.031,0,0.054,0.007,0.069,0.02c0.288,0.284,0.547,0.743,0.553,1.136c0.02,1.402-0.143,2.808-0.103,4.208
		c0.053,1.832,0.16,3.668,0.381,5.487c0.107,0.86,0.449,1.723,0.842,2.508c0.33,0.662,0.895,1.048,1.478,1.048
		c0.33,0,0.663-0.122,0.966-0.387c1.652-1.449,3.161-3.069,4.68-4.666c0.265-0.279,0.345-0.789,0.399-1.208
		c0.559-4.156,0.545-8.307-0.506-12.385c-0.78-3.027-1.789-5.994-2.575-9.02c-0.693-2.66-1.193-5.37-1.824-8.047
		c-0.995-4.231-2.034-8.451-3.039-12.679c-0.284-1.196-0.509-2.407-0.812-3.853c0.48,0.244,0.793,0.313,0.962,0.508
		c0.754,0.865,1.706,1.661,2.152,2.675c1.917,4.343,3.842,8.688,5.162,13.272c0.979,3.396,2.152,6.735,3.173,10.119
		c0.741,2.454,1.555,4.909,2.002,7.423c0.418,2.347,0.376,4.775,0.568,7.164c0.069,0.851,0.095,1.745,0.382,2.527
		c0.222,0.6,0.585,0.897,1.001,0.897c0.321,0,0.674-0.177,1.019-0.528c0.869-0.885,1.415-1.947,1.619-3.191
		c0.613-3.752,0.2-7.496-0.14-11.227c-0.101-1.092-0.679-2.138-1.042-3.206c-0.025-0.075-0.082-0.141-0.108-0.215
		c-0.879-2.428-2.186-4.63-3.562-6.798c-1.107-1.744-1.484-3.691-1.484-5.722c0-0.336,0.215-0.674,0.331-1.01
		c0.302,0.183,0.69,0.297,0.892,0.558c0.82,1.066,1.573,2.184,2.379,3.263c0.174,0.234,0.458,0.386,0.692,0.575
		c0.095-0.049,0.188-0.101,0.283-0.151c-0.038-0.825,0.03-1.671-0.131-2.47c-0.363-1.794-0.858-3.56-1.264-5.346
		c-0.27-1.192-0.475-2.399-0.572-3.658c1.114,0.572,1.861,1.406,2.4,2.449c1.506,2.92,2.542,6.021,3.4,9.175
		c0.454,1.681,0.701,3.422,0.96,5.148c0.213,1.427,0.424,2.729,1.672,3.782c0.862,0.727,1.479,1.855,1.943,2.917
		c1.068,2.447,2.119,4.933,2.422,7.615c0.386,3.39-0.4,6.609-1.822,9.665c-0.318,0.681-0.995,1.193-1.505,1.784
		c-1.931,2.236-3.999,4.327-6.522,5.9c-1.072,0.669-2.15,1.359-3.297,1.877c-3.666,1.653-7.323,3.317-11.159,4.583
		c-1.844,0.61-3.501,1.786-5.235,2.719c-1.165,0.626-2.317,1.274-3.47,1.924c-2.068,1.165-4.156,2.3-6.182,3.534
		c-0.488,0.295-0.812,0.903-1.134,1.417c-0.54,0.865-0.98,1.796-1.536,2.652c-0.376,0.58-0.237,1.046,0.175,1.448
		c0.167,0.163,0.329,0.228,0.484,0.228c0.283,0,0.546-0.215,0.779-0.446c0.208-0.207,0.396-0.453,0.523-0.714
		c1.641-3.405,4.332-5.748,7.609-7.471c2.39-1.259,4.767-2.56,7.24-3.629c2.142-0.926,4.407-1.53,6.76-1.53
		c0.266,0,0.53,0.009,0.797,0.024c1.015,0.059,1.112,0.278,1.001,1.313c-0.45,4.187-1.335,8.277-3.124,12.105
		c-0.728,1.554-1.802,2.941-2.624,4.456c-1.802,3.323-4.842,5.405-7.679,7.667c-0.804,0.64-1.974,0.83-2.978,1.217
		c-2.668,1.03-2.021,0.321-2.651,3.128c-0.311,1.391,0.094,2.387,1.158,3.265c3.44,2.831,6.852,5.698,10.28,8.543
		c0.227,0.187,0.491,0.347,0.764,0.449c1.071,0.398,1.468,1.174,1.586,2.29c0.266,2.506-0.203,4.706-2.102,6.512
		c-0.76,0.722-1.376,1.592-2.077,2.379c-0.677,0.764-1.094,1.618-1.322,2.636c-0.366,1.63-1.595,2.518-3.155,2.76
		c-2.396,0.373-4.812,0.662-7.232,0.828c-2.899,0.199-2.692-0.232-2.847,2.891c-0.099,1.993,0.214,4.046,0.612,6.017
		c0.958,4.741,2.716,9.211,4.965,13.49c1.198,2.279,2.951,4.072,5.005,5.546c1.906,1.364,3.941,2.549,5.903,3.838
		c0.623,0.41,1.285,0.825,1.767,1.381c0.934,1.077,1.778,2.237,2.61,3.398c1.192,1.666,1.351,3.637,1.423,5.576
		c0.16,4.313,0.344,8.634,0.262,12.945c-0.036,1.912-0.687,3.815-1.073,5.719c-0.673,3.335-1.201,6.731-2.843,9.762
		c-1.013,1.869-2.391,3.538-3.433,5.392c-1.795,3.192-3.921,6.138-6.177,9.008c-0.914,1.158-1.682,2.387-1.619,3.951
		c0.027,0.653-0.326,0.87-0.909,0.87c-0.02,0-0.042,0-0.064-0.001c-0.088-0.002-0.178-0.002-0.267-0.002
		c-2.192,0-4.236,0.677-6.241,1.489c-1.605,0.649-2.928,1.682-4.03,3.038c-1.536,1.883-3.191,3.67-4.695,5.576
		c-0.664,0.842-1.703,1.28-2.736,1.28c-0.963,0-1.921-0.382-2.561-1.173c-1.527-1.888-3.222-3.641-4.753-5.526
		c-1.252-1.537-2.779-2.62-4.615-3.304c-1.832-0.685-3.695-1.24-5.667-1.24c-0.134,0-0.269,0.003-0.403,0.008
		c-0.03,0.001-0.06,0.003-0.089,0.003c-0.532,0-0.888-0.207-0.854-0.812c0.085-1.576-0.719-2.782-1.598-3.96
		c-0.339-0.455-0.673-0.917-1.044-1.343c-2.246-2.584-3.698-5.725-5.758-8.404c-3.277-4.258-4.95-9.051-5.853-14.223
		c-0.177-1.011-0.44-2.005-0.654-3.008c-0.842-3.974-0.67-8.001-0.584-12.017c0.037-1.751,0.301-3.495,0.389-5.247
		c0.091-1.786,0.661-3.39,1.708-4.813c0.783-1.065,1.661-2.061,2.444-3.121c0.233-0.317,0.435-0.768,0.415-1.144
		c-0.318-6.2-0.617-12.404-1.042-18.597c-0.294-4.281,0.098-8.522,0.474-12.769c0.205-2.313,0.511-4.618,0.646-6.933
		c0.231-3.961,1.071-7.81,2.01-11.64c0.337-1.368,0.409-2.696,0.206-4.077c-0.176-1.201-0.221-2.421-0.4-3.622
		c-0.043-0.294-0.338-0.732-0.587-0.787c-4.426-0.963-8.327-2.888-11.989-5.606c-3.779-2.806-5.618-6.519-6.402-10.936
		c-0.43-2.418-0.672-4.868-1.086-7.288c-0.16-0.935-0.611-1.816-0.836-2.746c-0.133-0.541-0.311-1.297-0.051-1.649
		c0.264-0.359,1.035-0.368,1.595-0.474c0.024-0.004,0.05-0.006,0.078-0.006c0.173,0,0.375,0.091,0.536,0.176
		c2.593,1.335,5.398,1.947,8.215,2.617c4.495,1.071,8.56,3.123,12.031,6.242c0.621,0.558,1.231,1.135,1.803,1.743
		c0.837,0.89,2.48,1.416,3.98,1.416c0.786,0,1.53-0.144,2.098-0.456c0.71-0.391,0.762-0.59,0.169-1.113
		c-3.312-2.933-6.343-6.196-10.045-8.672c-0.757-0.507-1.564-1.031-2.426-1.264c-2.334-0.634-4.368-1.857-6.422-3.042
		c-3.579-2.065-7.126-4.186-10.687-6.282c-3.197-1.884-5.824-4.36-7.831-7.49c-0.392-0.614-0.817-1.209-1.27-1.781
		c-1.61-2.032-2.525-4.298-2.577-6.923c-0.082-4.244-0.144-8.492,0.638-12.679c0.39-2.088,1.037-4.136,1.665-6.172
		c0.917-2.967,1.96-5.896,2.877-8.862c0.913-2.947,2.374-5.621,3.995-8.208c0.765-1.223,1.075-2.5,1.149-3.893
		c0.049-0.916,0.132-1.832,0.236-2.744c0.065-0.583,0.139-0.824,0.385-0.824c0.146,0,0.354,0.086,0.658,0.235
		c0.242,0.119,0.481,0.248,0.734,0.341c0.628,0.232,1.243,0.37,1.846,0.37c0.784,0,1.548-0.23,2.297-0.784
		c3.346-2.466,6.715-4.901,10.098-7.319c0.831-0.593,1.741-1.078,2.63-1.585C194.041,95.058,194.317,95.052,194.789,94.939"/>
	<path style="fill:#303030;" d="M264.088,290.614c0.04-0.082,0.079-0.164,0.119-0.246c1.007-2.082,1.97-4.185,2.89-6.3
		c0.058-0.13,0.111-0.26,0.168-0.389c0.389-0.898,0.769-1.801,1.142-2.705c0.081-0.191,0.161-0.383,0.24-0.575
		c0.835-2.036,1.634-4.079,2.399-6.125c0.097-0.256,0.19-0.513,0.286-0.771c0.286-0.771,0.566-1.544,0.843-2.315
		c0.1-0.278,0.2-0.558,0.299-0.836c0.352-0.995,0.699-1.99,1.037-2.983c12.208-37.519,13.979-78.115,5.861-116.702
		c-0.376,1.407-0.896,2.83-1.572,4.283c-0.516,1.109-1.281,1.877-1.786,2.386c-0.127,0.127-0.257,0.258-0.325,0.338
		c-1.602,1.853-3.751,4.155-6.49,6.054c1.998,11.614,3.01,24.159,2.835,37.239c-0.29,21.917-3.867,42.251-9.759,59.164
		c-0.059,0.168,0.163,0.337,0.104,0.504c-0.378,1.072-0.881,2.134-0.881,3.178c0,0,0,0.001,0,0.002
		c-10,26.707-26.586,43.957-44.508,43.739c-11.282-0.137-22.492-7.179-30.492-19.097c0-0.001,0-0.001,0-0.002
		c0-0.283-0.34-0.577-0.541-0.866c-0.293-0.424-0.557-0.851-0.846-1.287c-13.043-19.686-21.243-51.203-20.774-86.641
		c0.177-13.287,1.569-25.991,3.942-37.707c-1.203-1.254-2.286-2.62-3.234-4.1c-0.316-0.495-0.663-0.982-1.029-1.447
		c-2.227-2.81-3.388-5.96-3.454-9.365c-0.08-4.129-0.169-8.81,0.706-13.5c0.413-2.212,1.058-4.296,1.681-6.312l0.097-0.314
		c0.475-1.536,0.985-3.068,1.476-4.549c0.472-1.417,0.959-2.884,1.402-4.314c1.131-3.653,2.963-6.815,4.431-9.162
		c0.332-0.53,0.493-1.115,0.537-1.954c0.049-0.924,0.133-1.901,0.256-2.983c0.484-4.304,4.015-4.428,4.417-4.428
		c0.988,0,1.76,0.312,2.443,0.648l0.191,0.096c0.062,0.031,0.123,0.064,0.188,0.093c0.157,0.057,0.266,0.084,0.333,0.098
		c3.159-2.328,6.471-4.727,10.121-7.336c0.86-0.613,1.742-1.11,2.52-1.548c0.153-0.087,0.307-0.173,0.458-0.26
		c0.732-0.417,1.397-0.541,1.794-0.614c0.067-0.012,0.144-0.025,0.235-0.046l8.368-1.993l-3.785,7.726
		c-0.067,0.138-0.125,0.255-0.173,0.36c-0.129,0.272-0.262,0.553-0.451,0.875c-0.249,0.418-0.497,0.818-0.737,1.203
		c-0.43,0.687-0.835,1.334-1.138,1.946c-1.069,2.165-2.602,3.627-3.954,4.917c-0.256,0.245-0.513,0.49-0.765,0.739
		c-0.75,0.744-1.513,1.48-2.252,2.194c0.223,0.76,0.368,1.505,0.443,2.233c8.719-11.352,19.118-17.913,30.212-17.779
		c8.992,0.109,17.406,4.607,24.755,12.458l-1.25-5.967l7.551,3.846c0.082,0.042,0.154,0.071,0.217,0.099
		c0.436,0.188,1.25,0.54,1.963,1.359c0.145,0.166,0.325,0.356,0.519,0.558c0.745,0.783,1.673,1.756,2.286,3.144l0.06,0.139
		c0.866,1.96,1.744,3.952,2.575,5.988l0.36-1.054l0.568,0.342c-0.05-0.402-0.088-0.798-0.119-1.192l-0.553-7.24l6.456,3.324
		c0.429,0.222,0.834,0.472,1.217,0.75c-9.137-19.555-22.677-37.766-42.8-47.774c-8.394-3.794-17.638-5.637-26.898-5.419l0.002-0.01
		c-24.244,1.358-49.306-3.472-72.967,2.823c-26.011,7.64-45.525,28.038-56.386,51.324c2.115,1.78,0.229,1.979-0.658,1.455
		c-0.504,1.122-0.995,2.248-1.458,3.381c-3.111,7.121-5.709,14.406-7.862,21.806c1.303,0.965,0.481,1.584-0.482,1.657
		c-9.579,34.091-9.582,70.612-4.315,105.42c2.079,11.929,5.263,24.033,9.916,35.526c0.23-0.229,0.543-0.486,0.981-0.783
		c3.666,1.217,1.188,2.25-0.405,2.165c2.799,6.714,6.109,13.204,10.001,19.316c0.111-0.093,0.233-0.189,0.375-0.294
		c2.084,0.561,1.352,1.233,0.388,1.496c2.817,4.304,5.931,8.412,9.367,12.269c0.145-0.12,0.308-0.246,0.509-0.381
		c2.916,0.993,2.133,1.729,0.917,1.929c1.313,1.412,2.687,2.775,4.093,4.113l-0.017,0.005c0.138,0.13,0.284,0.252,0.422,0.382
		c0.727,0.683,1.469,1.351,2.221,2.011c0.299,0.263,0.591,0.53,0.893,0.79c1.052,0.9,2.121,1.785,3.22,2.644
		c0.11-0.337,0.489-0.806,1.266-1.438c3.841,0.849,1.232,2.146-0.344,2.15c1.053,0.801,2.121,1.588,3.219,2.347
		c3.947,2.675,8.128,4.909,12.477,6.752c-0.326-0.312-0.189-0.956,0.962-2.07c4.322,0.942,1.115,2.515-0.419,2.295
		c15.046,6.244,32.065,7.837,48.436,6.667c21.304-0.254,44.799,4.472,63.995-6.549c0.863-0.486,1.712-0.992,2.55-1.509
		c0.246-0.153,0.485-0.312,0.729-0.466c0.594-0.376,1.184-0.753,1.763-1.142c0.266-0.179,0.527-0.363,0.79-0.543
		c0.556-0.383,1.107-0.77,1.651-1.164c0.249-0.181,0.495-0.366,0.74-0.549c0.562-0.418,1.116-0.843,1.665-1.272
		c0.21-0.165,0.421-0.33,0.63-0.498c0.597-0.479,1.185-0.966,1.768-1.46c0.148-0.127,0.298-0.251,0.446-0.379
		c0.688-0.593,1.367-1.196,2.037-1.811c0.034-0.032,0.071-0.063,0.105-0.095c7.734-7.129,14.072-15.598,19.353-24.715
		c0.003-0.005,0.005-0.007,0.007-0.011C260.88,296.947,262.537,293.805,264.088,290.614z M157.907,107.19
		c-5.3-2.813-20.387,6.358-18.827,0.259c2.589-11.011,15.604-9.298,24.714-11.278C161.655,99.755,159.706,103.441,157.907,107.19z
		 M133.546,304.181c0.124,0.149,0.249,0.297,0.358,0.45c0.066,0.091,0.12,0.188,0.182,0.281c0.11,0.169,0.224,0.336,0.319,0.51
		c0.016,0.029,0.027,0.061,0.043,0.091c0.229,0.429,0.41,0.87,0.549,1.316c0.021,0.068,0.05,0.136,0.069,0.204
		c0.046,0.168,0.076,0.337,0.11,0.506c0.023,0.115,0.053,0.231,0.07,0.346c0.023,0.156,0.032,0.312,0.045,0.468
		c0.011,0.128,0.024,0.255,0.027,0.382c0.003,0.148-0.005,0.293-0.012,0.438c-0.005,0.135-0.011,0.269-0.025,0.398
		c-0.016,0.139-0.041,0.276-0.064,0.412c-0.025,0.135-0.05,0.269-0.084,0.399c-0.033,0.13-0.072,0.259-0.115,0.384
		c-0.043,0.134-0.09,0.265-0.145,0.394c-0.049,0.12-0.104,0.238-0.162,0.353c-0.064,0.129-0.135,0.254-0.209,0.376
		c-0.066,0.108-0.133,0.216-0.207,0.32c-0.086,0.121-0.181,0.237-0.279,0.353c-0.081,0.095-0.161,0.191-0.249,0.281
		c-0.11,0.112-0.231,0.217-0.353,0.322c-0.094,0.078-0.184,0.162-0.285,0.237c-0.137,0.102-0.289,0.194-0.439,0.285
		c-0.103,0.064-0.201,0.131-0.31,0.189c-0.178,0.094-0.372,0.174-0.565,0.253c-0.1,0.042-0.191,0.089-0.294,0.126
		c-0.306,0.106-0.629,0.199-0.972,0.269c-0.327-0.18-0.623-0.36-0.905-0.541c-0.066-0.041-0.131-0.083-0.194-0.124
		c-0.27-0.177-0.524-0.354-0.753-0.531c-0.025-0.018-0.046-0.038-0.071-0.059c-0.208-0.161-0.397-0.324-0.573-0.485
		c-0.042-0.039-0.085-0.078-0.125-0.116c-0.181-0.175-0.347-0.351-0.492-0.524c-0.023-0.027-0.043-0.056-0.065-0.083
		c-0.127-0.156-0.239-0.314-0.337-0.471c-0.02-0.031-0.042-0.064-0.062-0.096c-0.103-0.173-0.189-0.347-0.26-0.519
		c-0.012-0.032-0.023-0.062-0.035-0.094c-0.06-0.16-0.107-0.319-0.142-0.479c-0.004-0.021,0.004-0.04,0.001-0.062
		c-0.033-0.175-0.036-0.348-0.036-0.521c0-0.031,0-0.062,0-0.093c0-0.172,0-0.343,0-0.514c0-0.001,0-0.003,0-0.005
		c0-0.176,0.084-0.352,0.143-0.525c0.009-0.026,0.021-0.055,0.03-0.081c0.125-0.351,0.305-0.696,0.528-1.039
		c0.012-0.021,0.024-0.039,0.038-0.058c0.236-0.354,0.519-0.703,0.839-1.048c0.006-0.007,0.013,0.541,0.019,0.533
		c0.332-0.352,0.705,0.508,1.108-0.492h-0.002c0.951-1,2.07-2.15,3.234-2.898C132.857,303.949,133.218,303.782,133.546,304.181z
		 M120.05,316.635c-0.025,0.069-0.059,0.135-0.102,0.195c-0.021,0.03-0.043,0.062-0.069,0.092c-0.057,0.063-0.127,0.117-0.204,0.17
		c-0.026,0.017-0.047,0.037-0.075,0.054c-0.112,0.064-0.24,0.121-0.383,0.167c-0.02,0.006-0.045,0.01-0.066,0.016
		c-0.127,0.035-0.262,0.068-0.41,0.09c-0.055,0.01-0.114,0.015-0.17,0.022c-0.125,0.015-0.252,0.026-0.387,0.033
		c-0.069,0.004-0.14,0.006-0.211,0.007c-0.138,0.004-0.28,0.002-0.427-0.003c-0.073-0.003-0.145-0.004-0.22-0.008
		c-0.172-0.009-0.351-0.025-0.533-0.043c-0.054-0.008-0.107-0.01-0.162-0.017c-0.24-0.027-0.488-0.063-0.741-0.105
		c-0.055-0.008-0.112-0.021-0.167-0.03c-0.199-0.036-0.401-0.075-0.606-0.119c-0.091-0.02-0.184-0.043-0.275-0.063
		c-0.174-0.04-0.348-0.081-0.525-0.128c-0.1-0.025-0.202-0.053-0.303-0.081c-0.174-0.047-0.349-0.099-0.523-0.151
		c-0.099-0.03-0.197-0.06-0.297-0.091c-0.198-0.064-0.395-0.131-0.593-0.201c-0.072-0.025-0.146-0.049-0.219-0.075
		c-0.262-0.097-0.522-0.196-0.78-0.302c-0.083-0.034-0.164-0.072-0.247-0.106c-0.177-0.077-0.353-0.152-0.526-0.232
		c-0.101-0.048-0.198-0.095-0.296-0.144c-0.151-0.074-0.301-0.149-0.449-0.226c-0.099-0.053-0.198-0.104-0.295-0.159
		c-0.144-0.08-0.283-0.162-0.421-0.244c-0.088-0.053-0.178-0.105-0.263-0.159c-0.161-0.103-0.312-0.207-0.46-0.311
		c-0.054-0.04-0.113-0.075-0.166-0.114c-0.192-0.143-0.372-0.287-0.541-0.436c-0.06-0.052-0.111-0.104-0.167-0.156
		c-0.109-0.101-0.215-0.204-0.312-0.308c-0.058-0.062-0.111-0.125-0.164-0.188c-0.843-0.996-1.102-2.089-0.344-3.188
		c1.879,0.557,4.708,0.265,6.911,0.68c0.545,0.104,1.051,0.252,1.496,0.466c0.038,0.019,0.073,0.039,0.11,0.059
		c0.167,0.086,0.324,0.186,0.47,0.294c0.046,0.037,0.095,0.069,0.14,0.106c0.169,0.143,0.328,0.297,0.461,0.478
		c0.375,0.289,0.709,0.558,1.02,0.818c0.1,0.086,0.185,0.164,0.279,0.245c0.198,0.173,0.388,0.342,0.557,0.503
		c0.092,0.087,0.177,0.17,0.26,0.254c0.147,0.147,0.283,0.29,0.406,0.426c0.069,0.077,0.139,0.154,0.2,0.229
		c0.119,0.141,0.22,0.273,0.312,0.403c0.04,0.056,0.087,0.115,0.122,0.168c0.115,0.178,0.21,0.346,0.277,0.5
		c0.006,0.016,0.007,0.028,0.013,0.044c0.056,0.137,0.092,0.267,0.11,0.387c0.006,0.044,0.004,0.082,0.005,0.123
		c0.003,0.087,0.001,0.171-0.015,0.245C120.077,316.561,120.064,316.597,120.05,316.635z M130.102,101.278
		c0.307,3.599-3.601,12.947-10.315,12.184c-7.85,2.777-6.088-0.951-3.057-6.037C117.768,100.881,125.373,103.204,130.102,101.278z
		 M139.443,86.534c2.665,4.45-7.306,10.256-12.862,8.915C120.485,92.861,133.955,84.325,139.443,86.534z M114.701,92.571
		c-10.434,2.247-7.245-8.185-0.637-11.71C121.122,84.397,118.562,87.827,114.701,92.571z M110.54,122.015
		c4.25-1.044,7.96-2.088,12.96-3.13v0.616h-0.486c-3.616,5-1.914,15.729-9.52,17.337C99.791,143.254,108.697,129.106,110.54,122.015
		z M121.725,215.642c-8.235-8.732,11-12.744,16.736-16.979C141.279,208.262,127.133,209.841,121.725,215.642z M127.992,233.232
		c-6.19,6.975-7.516-0.093-7.463-5.731c0-9.285,12.696-11.276,18.036-17.687C140.537,221.787,139.429,227.17,127.992,233.232z
		 M116.186,284.998c-10.035,1.852-4.413-10.741,3.014-11.314C121.579,278.734,122.703,282.8,116.186,284.998z M105.487,164.074
		c-10.368,6.535-3.5-7.297-3.499-12.806c3.975-1.66,8.275-3.32,11.825-4.978l0,0C113.813,152.378,114.27,163.125,105.487,164.074z
		 M110.066,172.914c2.033,7.11-0.883,12.91-8.994,14.365C91.376,184.287,103.292,173.508,110.066,172.914z M107.874,193.109
		c4.937,6.635,0.029,17.193-9.935,16.776C93.803,201.346,99.819,195.657,107.874,193.109z M109.356,214.495
		c2.904,7.638-3.338,11.09-9.072,14.253C92.813,222.829,103.253,216.828,109.356,214.495z M109.944,231.951
		c1.407,4.926,4.85,13.412-2.642,16.174c-7.188,7.994-6.093-2.555-7.374-7.887C103.287,237.507,106.526,234.54,109.944,231.951z
		 M113.765,255.324c4.858,6.423,1.798,11.537-5.154,14.799C100.641,267.424,107.473,257.617,113.765,255.324z M104.224,111.044
		c-10.359,0.052-7.399-11.305-1.894-16.039C110.805,99.691,107.979,104.063,104.224,111.044z M95.624,135.468
		c-11.416,1.421-8.922-15.765-3.155-22.169C103.066,118.731,97.426,126.923,95.624,135.468z M89.961,161.617
		c-11.045,0.091-10.919-14.215-6.612-22.088C90.145,146.032,92.974,152.335,89.961,161.617z M87.965,180.379
		c-3.602,7.172-15.264-8.862-9.695-14.541C82.159,169.622,88.116,174.615,87.965,180.379z M87.151,205.693
		c-8.715,1.621-13.957-11.939-10.79-19.747C81.405,192.416,88.997,196.437,87.151,205.693z M76.857,210.454
		c5.64,4.392,12.319,8.086,11.038,15.902C83.826,228.325,71.58,216.612,76.857,210.454z M77.339,231.163
		c5.868,5.3,13.957,8.661,13.724,17.627C81.919,251.513,75.933,239.666,77.339,231.163z M82.216,255.786
		c5.447,1.729,12.3,5.624,13.155,11.613C90.895,273.351,78.378,262.15,82.216,255.786z M86.421,274.04
		c6.069,2.869,13.827,3.42,15.199,11.196C95.801,290.733,86.067,281.297,86.421,274.04z M95.596,293.348
		c5.135,0.918,11.539,2.414,13.644,7.603C110.025,309.775,92.197,298.989,95.596,293.348z M122.782,301.162
		c-7.915-0.933-5.955-10.311,1.664-11.593C129.506,293.036,128.445,298.723,122.782,301.162z M123.217,247.003
		c5.563-5.688,11.128-11.182,16.692-16.912h0c0.342,3.086,0.739,6.215,1.202,9.39c4.396,8.9-2.271,11.136-9.289,15.195
		C124.327,263.372,124.367,252.935,123.217,247.003z M139.238,181.757c3.236,13.078-9.101,15.783-19.646,19.69
		c-0.909-8.951-0.291-18.656,11.059-20.439c12.854-6.596-2.768-5.74-8.214-1.74c-5.626-4.652,1.807-19.566,11.874-21.67
		c14.505-9.269-3.88-5.152-10.941-0.736c0.588-9.972,3.636-19.691,14.833-22.472c8.469-3.176,5.95-8.12-2.576-4.271
		c-9.253,5.069-4.815-3.171-2.901-8.327c1.773-11.037,16.526-6.726,24.046-12.204C146.429,132.387,141.199,157.057,139.238,181.757z
		 M147.682,93.325c4.563-10.593,16.629-11.091,26.943-12.302C168.296,93.415,160.762,92.412,147.682,93.325z M204.857,61.324
		c0.289-0.055,0.507-0.062,0.628,0.001C205.299,61.321,205.087,61.321,204.857,61.324c-2.368,0.457-9.76,4.426-12.726,3.739
		C178.583,64.129,198.825,61.414,204.857,61.324z M188.799,68.446c-7.982,8.116-14.439,9.016-25.8,9.116
		C167.696,69.555,180.106,70.225,188.799,68.446z M153.205,74.073c-3.433,4.564-10.326,7.441-15.65,5.597
		C140.581,74.067,147.844,75.581,153.205,74.073z M140.338,64.424C145.111,69.723,128.718,66.913,140.338,64.424L140.338,64.424z
		 M126.585,77.928c-8.708,3.899-6.208-6.936,1.151-7.63C135.099,72.701,128.997,75.026,126.585,77.928z M127.211,62.366
		L127.211,62.366c-10.192,4.49-19.064,11.422-26.338,19.541c-7.506,4.74-9.458,23.895-20.187,13.62
		C91.585,79.861,107.908,67.052,127.211,62.366z M78.464,98.814c10.986,5.881,2.551,12.122,0.971,20.107
		C67.072,120.197,71.841,105.168,78.464,98.814z M68.862,116.45c1.456,4.629,5.748,8.649,6.19,13.269
		c-2.665,4.295-1.164,23.451-9.268,14.082C55.06,138.338,67.139,125.238,68.862,116.45z M58.94,255.854
		c-4.455-18.023-6.063-36.611-6.066-55.134c0.528-8.984-0.468-17.735,1.488-26.211c0.892-12.749,1.931-18.46,5.178-30.36h0
		c3.736,5.289,11.876,9.015,8.909,16.788c1.102,9.883-5.675,1.984-9.718-0.328c-3.091,6.143,12.478,13.951,7.202,23.18
		c2.082,9.921-5.521,2.155-9.116-0.414c-4.756,3.86,11.517,13.435,8.566,21.617c3.815,12.205-14.107-7.714-8.852,2.314
		c5.331,8.792,12.115,17.049,10.74,27.968c3.47,9.143-5.158-0.544-9.37,2.186c7.317,6.225,14.091,12.428,13.982,22.787
		c-2.691,0.504-14.092-2.487-5.149,4.063c7.732,0.444,17.717,22.546,4.217,16.14C62.087,279.125,61.692,262.832,58.94,255.854z
		 M67.657,283.246v-0.041v-0.023c0.036,0.024,0.074,0.043,0.109,0.064C67.705,283.246,67.657,283.246,67.657,283.246z
		 M68.334,283.582c2.406,1.367,5.237,2.041,7.681,3.186c5.509,0.313,13.282,13.076,9.287,14.667
		C74.381,303.189,72.685,290.743,68.334,283.582z M80.68,304.921c4.98,3.098,11.875,2.132,15.342,7.556
		C95.57,319.306,81.901,310.37,80.68,304.921z M93.901,318.945c2.804,0.474,5.412,1.651,8.292,1.792
		C113.93,327.236,95.31,325.121,93.901,318.945z M111.094,330.665l1.083,0.274l2.484,0.523
		C123.45,333.812,115.361,333.778,111.094,330.665z M118.478,323.341c2.458,0.523,4.987,0.617,7.452,1.099
		C139.582,328.395,122.235,329.133,118.478,323.341z M141.167,315.51c2.017,0.906,2.621,3.281,4.487,4.471
		C151.951,332.53,128.311,320.754,141.167,315.51z M154.157,327.841l1.435,0.982C165.616,334.067,147.551,334.19,154.157,327.841z
		 M167.328,336.048C173.274,336.98,164.759,337.267,167.328,336.048L167.328,336.048z M158.731,311.169
		c3.842-9.127-5.581-3.903-6.003,1.942c-0.447-0.075-0.863-0.184-1.254-0.316c-0.129-0.046-0.241-0.107-0.365-0.159
		c-0.247-0.103-0.496-0.202-0.719-0.328c-0.134-0.075-0.25-0.166-0.375-0.25c-0.188-0.125-0.378-0.248-0.548-0.388
		c-0.119-0.102-0.223-0.215-0.333-0.322c-0.149-0.146-0.299-0.292-0.431-0.451c-0.101-0.122-0.188-0.254-0.28-0.384
		c-0.115-0.165-0.23-0.329-0.331-0.503c-0.081-0.142-0.151-0.289-0.222-0.438c-0.086-0.18-0.17-0.359-0.241-0.548
		c-0.06-0.157-0.111-0.317-0.161-0.48c-0.059-0.191-0.114-0.385-0.16-0.582c-0.039-0.171-0.071-0.344-0.1-0.518
		c-0.033-0.2-0.061-0.403-0.083-0.609c-0.018-0.18-0.032-0.36-0.041-0.544c-0.009-0.206-0.012-0.414-0.009-0.625
		c0.002-0.187,0.006-0.374,0.018-0.562c0.013-0.209,0.034-0.42,0.059-0.629c0.022-0.191,0.044-0.385,0.075-0.578
		c0.035-0.206,0.079-0.416,0.123-0.623c0.042-0.193,0.083-0.388,0.134-0.581c0.054-0.205,0.12-0.408,0.184-0.611
		c0.061-0.191,0.118-0.385,0.188-0.574c0.074-0.199,0.16-0.395,0.243-0.593c0.079-0.186,0.153-0.374,0.24-0.556
		c0.092-0.193,0.199-0.38,0.3-0.566c0.096-0.178,0.185-0.357,0.289-0.528c0.114-0.19,0.243-0.367,0.367-0.55
		c0.107-0.157,0.207-0.322,0.322-0.475c0.246-0.325,0.508-0.641,0.786-0.933c4.39-9.516-4.173-3.31-6.322,1.703
		c-7.984,1.804,0.009-10.439,3.867-12.123c7.315-10.337-7.551-1.43-10.19,2.705c-10.411-5.667,3.929-12.487,8.009-17.842
		c2.941-10.63-15.76,11.545-16.484,0.31c-4.561-9.789,10.4-13.559,13.95-21.412c2.029,12.091,5.704,24.027,10.396,35.498
		c1.498,6.99,6.854,14.054,10.982,20.587c0.122,0.195,0.247,0.391,0.367,0.583c0.126,0.203,0.25,0.404,0.372,0.606
		c0.151,0.245,0.298,0.488,0.443,0.733c0.101,0.169,0.204,0.339,0.302,0.508c0.226,0.385,0.444,0.768,0.655,1.149
		c0.073,0.134,0.143,0.265,0.216,0.397c0.161,0.3,0.318,0.596,0.468,0.893c0.065,0.126,0.131,0.256,0.194,0.383
		c0.195,0.394,0.38,0.786,0.552,1.174c0.041,0.093,0.078,0.184,0.117,0.274c0.139,0.322,0.268,0.642,0.388,0.959
		c0.043,0.11,0.085,0.222,0.125,0.331c0.142,0.393,0.272,0.78,0.383,1.165c0.015,0.052,0.026,0.103,0.041,0.154
		c0.094,0.341,0.174,0.677,0.243,1.013c0.021,0.104,0.041,0.207,0.059,0.309c0.068,0.381,0.125,0.761,0.155,1.134
		C165.97,330.905,151.893,319.231,158.731,311.169z M182.461,334.778c-9.838-1.528-15.961-7.515-9.961-16.449v0.002
		c8,9.22,18.386,17.279,30.968,19.403C205.144,339.077,187.826,337.451,182.461,334.778z"/>
</g>
</svg>
