<?xml version="1.0" encoding="utf-8"?>
<!-- Generator: Adobe Illustrator 16.0.0, SVG Export Plug-In . SVG Version: 6.00 Build 0)  -->
<!DOCTYPE svg PUBLIC "-//W3C//DTD SVG 1.1//EN" "http://www.w3.org/Graphics/SVG/1.1/DTD/svg11.dtd">
<svg version="1.1" id="Layer_1" xmlns="http://www.w3.org/2000/svg" xmlns:xlink="http://www.w3.org/1999/xlink" x="0px" y="0px"
	 width="800px" height="400px" viewBox="0 0 800 400" style="enable-background:new 0 0 800 400;" xml:space="preserve">
<path style="fill:#000000;" d="M272.191,150.782c-0.385,1.43-0.911,2.877-1.599,4.354c-0.524,1.127-1.303,1.908-1.817,2.426
	c-0.128,0.129-0.26,0.262-0.329,0.342c-1.628,1.884-3.813,4.225-6.597,6.154c2.031,11.807,3.059,24.56,2.883,37.856
	c-0.296,22.28-3.932,42.95-9.921,60.144c-0.061,0.17,0.154,0.342,0.095,0.512c-0.385,1.091-0.906,2.17-0.906,3.23v0.003
	c-1,3.435-2.414,6.714-3.889,9.823c-0.046-1.328,0.019-2.657-0.03-3.984c-0.072-1.973-0.177-3.977-1.388-5.67
	c-0.848-1.18-1.678-2.359-2.627-3.455c-0.489-0.564-1.147-0.986-1.781-1.402c-1.993-1.311-4.056-2.514-5.993-3.902
	c-2.089-1.497-3.867-3.32-5.085-5.637c-2.286-4.352-4.071-8.895-5.046-13.713c-0.403-2.004-0.721-4.092-0.62-6.117
	c0.157-3.176-0.052-2.736,2.895-2.939c2.459-0.168,4.917-0.463,7.351-0.841c1.586-0.247,2.836-1.149,3.208-2.806
	c0.233-1.035,0.655-1.904,1.345-2.68c0.712-0.801,1.34-1.684,2.111-2.418c1.929-1.836,2.406-4.072,2.137-6.619
	c-0.121-1.135-0.524-1.924-1.613-2.329c-0.277-0.103-0.547-0.267-0.776-0.456c-3.485-2.893-6.953-5.806-10.45-8.684
	c-1.082-0.893-1.494-1.905-1.178-3.32c0.64-2.853-0.018-2.132,2.693-3.179c1.022-0.395,2.21-0.586,3.029-1.238
	c2.882-2.3,5.974-4.416,7.805-7.794c0.835-1.54,1.928-2.95,2.666-4.53c1.82-3.892,2.719-8.049,3.177-12.306
	c0.112-1.052,0.013-1.275-1.019-1.335c-0.271-0.016-0.541-0.024-0.81-0.024c-2.394,0-4.695,0.613-6.873,1.555
	c-2.516,1.087-4.931,2.41-7.359,3.688c-3.333,1.752-6.067,4.134-7.735,7.595c-0.129,0.267-0.321,0.517-0.532,0.727
	c-0.237,0.235-0.504,0.453-0.792,0.453c-0.159,0-0.322-0.066-0.492-0.231c-0.42-0.409-0.561-0.883-0.178-1.472
	c0.564-0.87,1.012-1.816,1.562-2.696c0.325-0.522,0.656-1.139,1.151-1.44c2.061-1.255,4.182-2.409,6.284-3.593
	c1.174-0.66,2.344-1.318,3.528-1.956c1.764-0.948,3.449-2.143,5.321-2.763c3.901-1.288,7.617-2.979,11.345-4.66
	c1.167-0.526,2.261-1.227,3.352-1.907c2.565-1.6,4.667-3.725,6.631-5.998c0.518-0.601,1.207-1.122,1.528-1.813
	c1.447-3.106,2.246-6.379,1.854-9.825c-0.309-2.727-1.377-5.254-2.463-7.741c-0.472-1.079-1.098-2.227-1.975-2.964
	c-1.269-1.071-1.482-2.395-1.7-3.845c-0.263-1.755-0.515-3.525-0.977-5.234c-0.87-3.207-1.925-6.357-3.456-9.327
	c-0.548-1.061-1.308-1.908-2.439-2.49c0.099,1.281,0.309,2.507,0.582,3.719c0.411,1.816,0.916,3.611,1.284,5.434
	c0.164,0.812,0.096,1.673,0.134,2.512c-0.096,0.051-0.191,0.103-0.288,0.153c-0.238-0.193-0.526-0.347-0.704-0.584
	c-0.818-1.097-1.584-2.233-2.418-3.317c-0.203-0.265-0.599-0.382-0.906-0.567c-0.116,0.342-0.336,0.685-0.336,1.026
	c0,2.064,0.385,4.044,1.51,5.817c1.398,2.204,2.726,4.442,3.618,6.911c0.029,0.077,0.086,0.143,0.111,0.219
	c0.368,1.084,0.957,2.149,1.059,3.258c0.346,3.793,0.766,7.599,0.143,11.413c-0.209,1.265-0.764,2.344-1.647,3.245
	c-0.35,0.356-0.709,0.537-1.035,0.537c-0.422,0-0.793-0.302-1.018-0.913c-0.293-0.796-0.318-1.704-0.389-2.568
	c-0.194-2.429-0.152-4.897-0.577-7.283c-0.454-2.555-1.284-5.051-2.036-7.545c-1.038-3.44-2.229-6.835-3.226-10.287
	c-1.343-4.661-3.298-9.077-5.247-13.493c-0.455-1.029-1.422-1.838-2.188-2.719c-0.172-0.198-0.49-0.268-0.979-0.516
	c0.308,1.47,0.538,2.701,0.826,3.917c1.022,4.299,2.078,8.588,3.089,12.889c0.643,2.722,1.149,5.476,1.854,8.181
	c0.801,3.075,1.826,6.091,2.62,9.168c1.067,4.146,1.081,8.366,0.513,12.591c-0.055,0.425-0.137,0.944-0.406,1.228
	c-1.543,1.624-3.076,3.269-4.756,4.743c-0.309,0.27-0.647,0.393-0.982,0.393c-0.594,0-1.165-0.393-1.502-1.066
	c-0.4-0.798-0.748-1.675-0.855-2.55c-0.226-1.848-0.335-3.715-0.389-5.578c-0.04-1.423,0.125-2.852,0.105-4.277
	c-0.007-0.4-0.271-0.867-0.562-1.155c-0.015-0.013-0.038-0.02-0.07-0.02c-0.195,0-0.682,0.239-0.908,0.443
	c-0.295,0.264-0.58,0.4-0.841,0.4c-0.337,0-0.636-0.226-0.866-0.695c-0.566-1.159-1.137-2.32-1.634-3.509
	c-2.005-4.782-3.95-9.589-5.991-14.355c-0.562-1.312-1.38-2.516-2.078-3.769c-0.08,0.037-0.158,0.074-0.236,0.111
	c0.033,0.206,0.053,0.416,0.1,0.619c0.902,3.933,1.701,7.893,2.741,11.79c0.948,3.548,2.047,7.065,3.281,10.525
	c1.784,5,3.318,10.007,2.565,15.42c-0.09,0.643-0.264,1.179-0.811,1.535c-1.746,1.139-3.43,2.399-5.271,3.359
	c-1.689,0.882-3.515,1.554-5.346,2.101c-0.396,0.118-0.739,0.177-1.039,0.177c-0.995,0-1.506-0.65-1.737-1.986
	c-0.425-2.459-0.728-4.941-1.173-7.397c-0.628-3.452-1.321-6.893-2.028-10.33c-0.232-1.123-1.02-1.805-2.207-2.309
	c0,0.494-0.027,0.84,0.005,1.18c0.515,5.355,1.137,10.702,1.525,16.065c0.315,4.377,0.359,8.772,0.498,13.161
	c0.008,0.23-0.16,0.564-0.351,0.685c-0.881,0.562-1.757,1.102-2.873,1.102c-0.054,0-0.105-0.001-0.159-0.004
	c-3.235-0.15-6.474-0.241-9.712-0.34c-0.933-0.028-1.81-0.224-2.533-0.828c-1.936-1.619-3.795-3.332-5.14-5.491
	c-0.784-1.259-1.291-2.611-1.106-4.201c0.273-2.336,0.449-4.692,0.51-7.044c0.084-3.289,0.062-6.581,0.008-9.87
	c-0.041-2.467-0.169-4.936-0.334-7.398c-0.059-0.835-0.273-1.772-0.564-2.559c-0.123-0.334-0.609-0.814-0.964-0.814
	c-0.004,0-0.009,0-0.012,0c-0.218,0-0.558,0.609-0.708,0.948c-0.149,0.337-0.151,0.795-0.174,1.177
	c-0.288,4.684-0.611,9.389-0.835,14.074c-0.13,2.743-0.741,5.226-2.717,7.299c-0.948,0.995-2.332,1.684-3.692,1.684
	c-0.386,0-0.769-0.052-1.141-0.17c-4.236-1.353-8.247-3.271-11.933-5.7c-4.014-2.648-8.065-5.343-11.168-9.145
	c-0.856-1.05-1.626-2.169-1.593-3.598c0.025-1.095,0.114-2.195,0.28-3.277c0.083-0.542,0.271-1.18,0.641-1.544
	c1.42-1.402,2.92-2.726,4.411-4.054c0.923-0.82,1.859-1.629,2.837-2.381c1.781-1.37,3.542-2.772,5.406-4.02
	c5.113-3.425,10.978-5.388,16.362-8.297c3.396-1.834,7.041-3.159,10.391-5.145c3.778-2.242,7.668-4.277,11.099-7.064
	c0.729-0.593,1.01-1.337,1.247-2.152c0.11-0.38-0.049-0.557-0.336-0.557c-0.062,0-0.131,0.008-0.205,0.024
	c-0.908,0.204-1.846,0.341-2.706,0.675c-2.274,0.883-4.484,1.945-6.779,2.773c-3.767,1.36-7.62,2.483-11.364,3.903
	c-6.493,2.462-12.929,5.077-19.393,7.623c-0.367,0.145-0.753,0.251-1.389,0.461c0.525-1.399,0.984-2.562,1.399-3.737
	c0.877-2.48,1.815-4.944,2.562-7.463c0.357-1.207,0.273-2.521-0.173-3.958c-0.307,0.396-0.512,0.612-0.66,0.862
	c-1.928,3.258-3.861,6.512-5.768,9.784c-1.74,2.989-3.435,6.004-5.187,8.986c-0.214,0.366-0.658,0.595-0.997,0.887
	c-0.084-0.457-0.321-0.948-0.228-1.365c0.38-1.681,0.835-3.347,1.312-5.005c1.383-4.796,4.016-8.915,7.262-12.606
	c2.386-2.712,5.086-5.151,7.656-7.701c1.458-1.444,3.062-2.741,4.006-4.649c0.594-1.202,1.367-2.314,2.052-3.472
	c0.144-0.243,0.253-0.506,0.479-0.969c-0.479,0.114-0.761,0.121-0.975,0.243c-0.903,0.516-1.828,1.009-2.673,1.612
	c-3.438,2.457-6.864,4.933-10.266,7.44c-0.763,0.562-1.539,0.796-2.335,0.796c-0.613,0-1.238-0.139-1.879-0.376
	c-0.257-0.095-0.499-0.226-0.745-0.346c-0.309-0.152-0.521-0.239-0.669-0.239c-0.249,0-0.324,0.245-0.392,0.838
	c-0.104,0.927-0.189,1.858-0.238,2.789c-0.076,1.416-0.391,2.713-1.169,3.958c-1.646,2.63-3.133,5.349-4.061,8.344
	c-0.933,3.016-1.993,5.992-2.925,9.009c-0.639,2.069-1.297,4.151-1.692,6.274c-0.795,4.256-0.732,8.575-0.648,12.889
	c0.053,2.668,0.983,4.973,2.619,7.038c0.46,0.582,0.892,1.187,1.29,1.81c2.041,3.183,4.711,5.7,7.962,7.615
	c3.619,2.131,7.224,4.287,10.862,6.386c2.089,1.205,4.155,2.448,6.529,3.093c0.875,0.237,1.697,0.77,2.466,1.285
	c3.765,2.517,6.845,5.834,10.211,8.816c0.603,0.532,0.55,0.734-0.172,1.131c-0.576,0.317-1.333,0.464-2.132,0.464
	c-1.523,0-3.195-0.535-4.046-1.438c-0.581-0.619-1.202-1.205-1.833-1.773c-3.529-3.169-7.661-5.255-12.23-6.344
	c-2.864-0.681-5.715-1.303-8.351-2.661c-0.165-0.086-0.368-0.179-0.546-0.179c-0.028,0-0.055,0.002-0.079,0.007
	c-0.569,0.107-1.353,0.116-1.621,0.481c-0.263,0.357-0.082,1.125,0.052,1.677c0.229,0.944,0.688,1.84,0.851,2.791
	c0.422,2.461,0.667,4.951,1.104,7.409c0.797,4.49,2.665,8.264,6.508,11.117c3.723,2.762,7.689,4.72,12.188,5.698
	c0.254,0.056,0.553,0.502,0.598,0.801c0.182,1.221,0.228,2.461,0.406,3.682c0.207,1.404,0.133,2.754-0.21,4.146
	c-0.953,3.893-1.808,7.805-2.042,11.83c-0.138,2.354-0.449,4.697-0.658,7.048c-0.383,4.317-0.779,8.628-0.48,12.981
	c0.434,6.295,0.735,12.6,1.059,18.903c0.021,0.383-0.184,0.841-0.422,1.162c-0.797,1.08-1.688,2.091-2.484,3.173
	c-1.065,1.448-1.644,3.078-1.735,4.895c-0.091,1.779-0.359,3.554-0.395,5.333c-0.087,4.082-0.264,8.175,0.594,12.216
	c0.216,1.02,0.484,2.03,0.664,3.057c0.361,2.071,0.624,4.08,1.28,6.022c-1.752-1.884-3.346-3.944-5.346-6.178
	c0-0.001,0-0.002,0-0.003c0-0.287-0.457-0.588-0.66-0.881c-0.297-0.432-0.623-0.864-0.916-1.307
	c-13.259-20.014-21.622-52.053-21.144-88.076c0.18-13.506,1.581-26.421,3.994-38.331c-1.224-1.276-2.332-2.664-3.296-4.169
	c-0.32-0.502-0.677-0.998-1.049-1.47c-2.264-2.856-3.445-6.059-3.513-9.521c-0.081-4.197-0.174-8.956,0.716-13.725
	c0.42-2.248,1.074-4.367,1.709-6.417l0.099-0.318c0.482-1.562,1-3.119,1.5-4.625c0.479-1.441,0.975-2.932,1.425-4.386
	c1.15-3.713,3.011-6.928,4.504-9.314c0.338-0.539,0.5-1.134,0.547-1.987c0.049-0.939,0.135-1.932,0.26-3.032
	c0.492-4.375,4.082-4.501,4.489-4.501c1.004,0,1.789,0.318,2.483,0.659l0.195,0.097c0.063,0.032,0.125,0.065,0.188,0.094
	c0.161,0.059,0.272,0.086,0.34,0.1c3.212-2.366,6.578-4.805,10.288-7.457c0.875-0.624,1.771-1.13,2.562-1.575
	c0.156-0.088,0.312-0.176,0.465-0.263c0.745-0.424,1.422-0.55,1.825-0.625c0.067-0.012,0.146-0.026,0.237-0.047l8.509-2.026
	l-3.849,7.854c-0.069,0.141-0.125,0.26-0.174,0.366c-0.132,0.276-0.267,0.562-0.46,0.889c-0.252,0.426-0.505,0.831-0.75,1.223
	c-0.436,0.698-0.849,1.356-1.155,1.978c-1.088,2.201-2.646,3.687-4.02,4.998c-0.261,0.249-0.521,0.498-0.778,0.751
	c-0.762,0.756-1.538,1.505-2.289,2.229c0.227,0.774,0.374,1.531,0.45,2.271c8.863-11.54,19.434-18.209,30.712-18.074
	c9.141,0.111,17.694,4.684,25.163,12.665l-1.27-6.065l7.677,3.91c0.083,0.043,0.156,0.073,0.221,0.101
	c0.444,0.191,1.271,0.548,1.995,1.382c0.147,0.168,0.331,0.361,0.527,0.566c0.758,0.795,1.701,1.786,2.324,3.196l0.061,0.141
	c0.881,1.993,1.773,4.018,2.619,6.086l0.365-1.071l0.577,0.348c-0.052-0.409-0.091-0.812-0.12-1.212l-0.562-7.359l6.562,3.379
	c0.437,0.225,0.848,0.479,1.238,0.761c-9.289-19.878-23.054-38.391-43.51-48.565c-8.533-3.857-17.929-5.73-27.344-5.508l0.002-0.01
	c-24.644,1.381-50.121-3.529-74.175,2.87C87.356,65.614,67.52,86.35,56.479,110.021c2.149,1.81,0.232,2.011-0.67,1.479
	c-0.512,1.141-1.011,2.285-1.481,3.438c-3.163,7.239-5.804,14.645-7.992,22.167c1.324,0.981,0.488,1.611-0.49,1.685
	c-9.738,34.655-9.741,71.782-4.387,107.165c2.113,12.127,5.351,24.432,10.081,36.115c0.233-0.232,0.551-0.496,0.996-0.797
	c3.727,1.238,1.207,2.287-0.411,2.201c2.846,6.824,6.21,13.423,10.167,19.637c0.113-0.094,0.237-0.193,0.381-0.3
	c2.119,0.569,1.374,1.255,0.395,1.521c2.863,4.375,6.028,8.552,9.522,12.472c0.146-0.123,0.312-0.25,0.517-0.387
	c2.963,1.008,2.168,1.758,0.932,1.961c1.335,1.435,2.73,2.82,4.161,4.18l-0.019,0.006c0.141,0.131,0.289,0.256,0.43,0.388
	c0.739,0.694,1.494,1.374,2.258,2.046c0.304,0.266,0.601,0.538,0.908,0.801c1.069,0.916,2.155,1.815,3.273,2.688
	c0.111-0.341,0.496-0.818,1.288-1.461c3.903,0.863,1.252,2.182-0.351,2.187c1.07,0.813,2.155,1.614,3.271,2.386
	c4.012,2.72,8.262,4.99,12.683,6.863c-0.33-0.318-0.191-0.972,0.979-2.105c4.393,0.959,1.133,2.557-0.427,2.334
	c15.294,6.347,32.595,7.967,49.236,6.777c21.658-0.259,45.54,4.545,65.054-6.656c0.879-0.496,1.741-1.01,2.593-1.535
	c0.25-0.154,0.493-0.316,0.741-0.473c0.603-0.381,1.203-0.766,1.793-1.162c0.27-0.182,0.534-0.367,0.803-0.551
	c0.564-0.39,1.125-0.783,1.678-1.184c0.252-0.184,0.502-0.371,0.752-0.558c0.572-0.425,1.135-0.855,1.692-1.293
	c0.214-0.169,0.428-0.337,0.64-0.507c0.607-0.487,1.205-0.982,1.797-1.484c0.15-0.129,0.305-0.256,0.454-0.385
	c0.701-0.604,1.391-1.217,2.069-1.841c0.036-0.032,0.074-0.064,0.109-0.098c7.861-7.245,14.307-15.854,19.672-25.122
	c0.003-0.005,0.006-0.009,0.008-0.013c1.808-3.122,3.493-6.317,5.068-9.56c0.041-0.084,0.081-0.167,0.121-0.25
	c1.024-2.117,2.004-4.254,2.938-6.404c0.057-0.133,0.112-0.264,0.171-0.396c0.395-0.914,0.782-1.831,1.162-2.749
	c0.081-0.195,0.162-0.391,0.242-0.586c0.85-2.069,1.662-4.146,2.439-6.225c0.098-0.262,0.193-0.522,0.29-0.784
	c0.29-0.784,0.576-1.569,0.857-2.354c0.101-0.284,0.203-0.566,0.304-0.851c0.357-1.012,0.711-2.023,1.054-3.032
	C278.643,231.276,280.442,190.009,272.191,150.782z M148.714,106.586c-5.388-2.859-20.725,6.463-19.139,0.263
	c2.631-11.193,15.862-9.452,25.123-11.464C152.523,99.027,150.542,102.774,148.714,106.586z M120.446,100.576
	c0.312,3.659-3.659,13.162-10.484,12.385c-7.979,2.823-6.188-0.967-3.107-6.136C107.909,100.171,115.641,102.533,120.446,100.576z
	 M129.944,85.587c2.709,4.523-7.427,10.426-13.075,9.063C110.672,92.019,124.364,83.342,129.944,85.587z M104.792,91.725
	c-10.606,2.285-7.366-8.321-0.647-11.903C111.319,83.415,108.717,86.902,104.792,91.725z M100.694,121.655
	c4.319-1.061,8.306-2.122,13.306-3.182V119h-0.757c-3.676,5-1.878,16.039-9.611,17.674
	C89.701,143.198,98.821,128.865,100.694,121.655z M99.359,215.666c2.951,7.766-3.394,11.274-9.224,14.49
	C82.542,224.14,93.154,218.039,99.359,215.666z M97.853,193.928c5.018,6.744,0.029,17.479-10.101,17.055
	C83.549,202.3,89.665,196.518,97.853,193.928z M90.938,188c-9.856-3.042,2.255-13.998,9.142-14.603
	C102.147,180.625,99.183,186.521,90.938,188z M95.426,164.412c-10.539,6.643-3.558-7.418-3.557-13.018
	c4.041-1.688,8.412-3.375,12.021-5.062v0.001C103.891,152.521,104.354,163.447,95.426,164.412z M94.143,110.503
	c-10.531,0.053-7.522-11.491-1.926-16.305C100.832,98.962,97.958,103.407,94.143,110.503z M85.399,135.332
	c-11.605,1.444-9.069-16.026-3.208-22.536C92.964,118.318,87.231,126.644,85.399,135.332z M79.643,161.914
	c-11.228,0.093-11.099-14.45-6.722-22.454C79.83,146.07,82.705,152.478,79.643,161.914z M77.614,180.986
	c-3.662,7.291-15.518-9.007-9.856-14.782C71.711,170.051,77.768,175.127,77.614,180.986z M76.787,206.719
	c-8.859,1.648-14.188-12.135-10.969-20.072C70.945,193.223,78.662,197.311,76.787,206.719z M66.321,211.559
	c5.733,4.466,12.524,8.221,11.222,16.167C73.405,229.727,60.956,217.82,66.321,211.559z M66.812,232.611
	c5.965,5.388,14.188,8.806,13.951,17.918C71.468,253.299,65.383,241.254,66.812,232.611z M71.77,257.642
	c5.538,1.759,12.503,5.718,13.373,11.806C80.592,275.497,67.868,264.111,71.77,257.642z M76.044,276.197
	c6.17,2.918,14.055,3.477,15.451,11.383C85.58,293.168,75.685,283.574,76.044,276.197z M89.776,241.836
	c3.413-2.777,6.705-5.791,10.181-8.424c1.43,5.009,4.932,13.635-2.685,16.442C89.964,257.98,91.078,247.258,89.776,241.836z
	 M103.842,257.172c4.938,6.53,1.825,11.729-5.24,15.045C90.5,269.473,97.445,259.504,103.842,257.172z M109.366,275.836
	c2.417,5.134,3.561,9.268-3.065,11.5C96.101,289.219,101.816,276.419,109.366,275.836z M111.933,216.832
	c-8.37-8.877,11.182-12.954,17.013-17.259C131.811,209.332,117.431,210.936,111.933,216.832z M118.304,234.715
	c-6.293,7.09-7.641-0.096-7.587-5.826c0-9.439,12.905-11.464,18.335-17.979C131.057,223.08,129.929,228.552,118.304,234.715z
	 M114.699,291.984c5.144,3.523,4.064,9.305-1.692,11.785C104.961,302.822,106.953,293.288,114.699,291.984z M113.448,248.557
	c5.657-5.783,11.313-11.566,16.97-17.35c0.347,3.24,0.752,6.476,1.222,9.702c4.468,9.047-2.309,11.321-9.443,15.448
	C114.577,265.197,114.618,254.586,113.448,248.557z M129.736,182.387c3.289,13.294-9.252,16.045-19.972,20.018
	c-0.923-9.1-0.296-18.966,11.242-20.779c13.065-6.705-2.813-5.835-8.351-1.769c-5.719-4.73,1.837-19.891,12.07-22.029
	c14.745-9.423-3.944-5.238-11.121-0.75c0.598-10.136,3.695-20.017,15.078-22.843c8.607-3.229,6.047-8.253-2.621-4.341
	c-9.405,5.152-4.893-3.224-2.948-8.465c1.804-11.22,16.801-6.837,24.444-12.406C137.047,132.199,131.73,157.278,129.736,182.387z
	 M138.32,92.49c4.638-10.768,16.904-11.274,27.389-12.505C159.275,92.582,151.616,91.562,138.32,92.49z M196.441,59.96
	c0.293-0.056,0.515-0.063,0.639,0.001C196.891,59.957,196.675,59.957,196.441,59.96c-2.408,0.465-9.922,4.5-12.937,3.801
	C169.732,62.812,190.31,60.051,196.441,59.96z M180.117,67.2c-8.115,8.25-14.679,9.166-26.227,9.267
	C158.665,68.328,171.28,69.007,180.117,67.2z M143.934,72.92c-3.488,4.64-10.496,7.565-15.908,5.69
	C131.101,72.914,138.484,74.452,143.934,72.92z M130.854,63.111C135.706,68.498,119.041,65.641,130.854,63.111L130.854,63.111z
	 M116.873,76.839c-8.851,3.964-6.311-7.05,1.171-7.756C125.527,71.525,119.324,73.889,116.873,76.839z M117.51,61h0.002
	c-10.363,4-19.383,11.621-26.776,19.874c-7.631,4.818-9.614,24.286-20.521,13.84C81.294,78.79,97.887,66,117.51,61z M67.955,98.071
	c11.169,5.979,2.593,12.322,0.986,20.439C56.375,119.808,61.224,104.53,67.955,98.071z M58.195,115.998
	c1.479,4.706,5.842,8.792,6.293,13.489c-2.71,4.366-1.184,23.839-9.423,14.314C44.164,138.25,56.443,124.932,58.195,115.998z
	 M48.108,257.712c-4.528-18.322-6.163-37.218-6.166-56.047c0.536-9.133-0.476-18.211,1.513-26.827
	c0.906-12.96,1.963-18.669,5.265-31.045c3.798,5.681,12.071,9.346,9.056,17.248c1.121,10.046-5.768,2.108-9.878-0.243
	c-3.143,6.245,12.684,14.228,7.321,23.609c2.117,10.085-5.612,2.214-9.267-0.398c-4.835,3.924,11.707,13.669,8.707,21.985
	c3.879,12.407-14.342-7.836-8.999,2.359c5.419,8.938,12.316,17.332,10.919,28.433c3.527,9.294-5.243-0.551-9.524,2.225
	c7.438,6.327,14.323,12.635,14.213,23.165c-2.735,0.512-14.326-2.529-5.234,4.131c7.861,0.451,18.011,22.919,4.287,16.406
	C51.307,281.368,50.906,264.805,48.108,257.712z M56.97,285.557v-0.043v-0.023c0.036,0.025,0.075,0.043,0.111,0.066
	C57.018,285.557,56.97,285.557,56.97,285.557z M57.657,285.898c2.446,1.39,5.325,2.074,7.809,3.236
	c5.602,0.321,13.502,13.295,9.441,14.91C63.805,305.83,62.081,293.178,57.657,285.898z M70.208,307.59
	c5.063,3.149,12.07,2.166,15.596,7.682C85.345,322.213,71.45,313.13,70.208,307.59z M83.647,321.846
	c2.851,0.481,5.502,1.68,8.431,1.821C104.009,330.275,85.08,328.124,83.647,321.846z M85.371,295.826
	c5.22,0.934,11.73,2.453,13.87,7.727C100.039,312.523,81.916,301.561,85.371,295.826z M100.556,318.426
	c-0.154-0.074-0.306-0.151-0.455-0.23c-0.102-0.053-0.202-0.105-0.302-0.16c-0.146-0.082-0.287-0.164-0.427-0.248
	c-0.09-0.055-0.182-0.107-0.269-0.163c-0.162-0.103-0.315-0.209-0.468-0.315c-0.056-0.039-0.115-0.077-0.168-0.117
	c-0.195-0.144-0.379-0.291-0.551-0.44c-0.061-0.052-0.112-0.106-0.17-0.159c-0.111-0.104-0.219-0.207-0.316-0.312
	c-0.061-0.064-0.114-0.128-0.168-0.192c-0.856-1.013-1.12-2.122-0.349-3.24c1.909,0.565,4.787,0.27,7.025,0.692
	c0.554,0.104,1.068,0.255,1.521,0.472c0.038,0.019,0.073,0.04,0.111,0.06c0.17,0.088,0.328,0.189,0.478,0.3
	c0.048,0.036,0.098,0.07,0.143,0.108c0.172,0.145,0.333,0.301,0.469,0.485c0.381,0.292,0.721,0.567,1.036,0.833
	c0.102,0.085,0.188,0.164,0.283,0.247c0.202,0.176,0.396,0.348,0.567,0.512c0.094,0.089,0.18,0.173,0.265,0.258
	c0.15,0.149,0.287,0.294,0.413,0.433c0.07,0.078,0.142,0.156,0.204,0.231c0.12,0.144,0.223,0.28,0.316,0.411
	c0.041,0.057,0.088,0.116,0.123,0.17c0.118,0.182,0.215,0.352,0.281,0.51c0.007,0.016,0.008,0.027,0.014,0.043
	c0.057,0.141,0.094,0.271,0.111,0.395c0.007,0.044,0.005,0.083,0.007,0.124c0.003,0.089,0,0.173-0.016,0.251
	c-0.009,0.041-0.021,0.079-0.036,0.117c-0.024,0.07-0.06,0.137-0.103,0.198c-0.022,0.031-0.044,0.063-0.071,0.093
	c-0.058,0.064-0.128,0.121-0.206,0.173c-0.027,0.019-0.048,0.038-0.077,0.055c-0.114,0.065-0.243,0.123-0.389,0.169
	c-0.021,0.008-0.047,0.012-0.068,0.018c-0.128,0.037-0.267,0.068-0.416,0.092c-0.056,0.009-0.116,0.014-0.174,0.021
	c-0.125,0.016-0.256,0.027-0.393,0.034c-0.07,0.003-0.143,0.007-0.215,0.007c-0.14,0.004-0.284,0.002-0.434-0.003
	c-0.075-0.003-0.147-0.004-0.225-0.009c-0.174-0.01-0.356-0.025-0.542-0.043c-0.055-0.006-0.107-0.01-0.164-0.016
	c-0.244-0.029-0.495-0.064-0.753-0.107c-0.056-0.01-0.114-0.021-0.17-0.032c-0.202-0.036-0.407-0.075-0.616-0.12
	c-0.092-0.021-0.186-0.043-0.279-0.064c-0.177-0.041-0.355-0.084-0.534-0.131c-0.103-0.025-0.205-0.054-0.308-0.082
	c-0.177-0.049-0.355-0.101-0.531-0.154c-0.101-0.03-0.201-0.061-0.303-0.092c-0.201-0.064-0.401-0.133-0.603-0.204
	c-0.073-0.026-0.148-0.05-0.222-0.077c-0.268-0.098-0.531-0.199-0.793-0.307c-0.085-0.035-0.167-0.072-0.251-0.108
	c-0.18-0.077-0.359-0.155-0.534-0.237C100.754,318.523,100.656,318.475,100.556,318.426z M101.125,333.76l1.101,0.279l2.525,0.533
	C113.687,336.959,105.463,336.926,101.125,333.76z M108.632,326.314c2.499,0.533,5.069,0.627,7.575,1.117
	C130.085,331.452,112.451,332.203,108.632,326.314z M125.739,311.914c-0.006,0.135-0.011,0.27-0.025,0.404
	c-0.016,0.141-0.042,0.279-0.066,0.418c-0.024,0.137-0.051,0.273-0.085,0.407c-0.033,0.132-0.073,0.261-0.115,0.39
	c-0.045,0.135-0.094,0.269-0.148,0.399c-0.051,0.122-0.105,0.241-0.164,0.359c-0.065,0.13-0.138,0.257-0.214,0.382
	c-0.065,0.11-0.135,0.219-0.21,0.325c-0.088,0.123-0.184,0.241-0.282,0.357c-0.083,0.097-0.164,0.194-0.253,0.286
	c-0.111,0.115-0.236,0.221-0.358,0.327c-0.097,0.081-0.188,0.166-0.29,0.242c-0.14,0.104-0.293,0.197-0.447,0.29
	c-0.104,0.064-0.203,0.134-0.314,0.192c-0.181,0.096-0.377,0.177-0.574,0.257c-0.102,0.041-0.194,0.09-0.301,0.127
	c-0.31,0.11-0.638,0.204-0.986,0.275c-0.333-0.184-0.634-0.367-0.921-0.55c-0.066-0.042-0.133-0.085-0.197-0.128
	c-0.274-0.18-0.532-0.359-0.766-0.539c-0.024-0.02-0.047-0.039-0.071-0.059c-0.213-0.165-0.404-0.33-0.583-0.495
	c-0.042-0.04-0.087-0.079-0.127-0.118c-0.185-0.178-0.353-0.354-0.5-0.531c-0.024-0.028-0.045-0.057-0.067-0.086
	c-0.129-0.16-0.243-0.318-0.343-0.478c-0.02-0.032-0.043-0.065-0.062-0.097c-0.104-0.178-0.192-0.354-0.265-0.529
	c-0.013-0.031-0.024-0.063-0.035-0.096c-0.062-0.162-0.109-0.324-0.146-0.484c-0.004-0.021,0.111-0.043,0.109-0.063
	c-0.035-0.177,0.069-0.354,0.069-0.529c0-0.031,0-0.062,0-0.093c0-0.176,0-0.35,0-0.523c0-0.002,0-0.003,0-0.005
	c0-0.179-0.022-0.356,0.038-0.534c0.01-0.027-0.031-0.055-0.022-0.082c0.127-0.355,0.284-0.709,0.51-1.057
	c0.012-0.02,0.013-0.039,0.026-0.059c0.239-0.359,0.519-0.715,0.845-1.064c0.006-0.008,0.009-0.049,0.015-0.056
	c0.338-0.359,0.712-0.099,1.124-1.099h-0.003c0.967-1,2.105-1.588,3.289-2.35c0.427,0.356,0.794,0.744,1.128,1.15
	c0.125,0.15,0.252,0.319,0.364,0.476c0.066,0.094,0.122,0.2,0.184,0.296c0.113,0.172,0.228,0.347,0.324,0.522
	c0.018,0.029,0.028,0.063,0.044,0.095c0.234,0.436,0.417,0.886,0.559,1.339c0.022,0.07,0.051,0.139,0.071,0.209
	c0.047,0.17,0.077,0.343,0.111,0.515c0.024,0.117,0.054,0.234,0.071,0.352c0.024,0.158,0.034,0.316,0.046,0.475
	c0.01,0.13,0.024,0.26,0.028,0.389C125.755,311.617,125.746,311.766,125.739,311.914z M131.697,318.354
	c2.051,0.922,2.664,3.336,4.561,4.545C142.659,335.656,118.627,323.686,131.697,318.354z M144.901,330.891l1.459,0.998
	C156.55,337.22,138.186,337.344,144.901,330.891z M158.29,339.232C164.335,340.181,155.68,340.473,158.29,339.232L158.29,339.232z
	 M149.551,313.942c3.905-9.28-5.673-3.968-6.103,1.973c-0.454-0.075-0.877-0.185-1.273-0.321c-0.133-0.046-0.245-0.109-0.372-0.162
	c-0.251-0.104-0.505-0.205-0.73-0.332c-0.137-0.076-0.255-0.17-0.382-0.254c-0.19-0.127-0.384-0.252-0.556-0.396
	c-0.123-0.103-0.228-0.218-0.34-0.327c-0.151-0.148-0.305-0.296-0.438-0.458c-0.103-0.124-0.19-0.259-0.284-0.391
	c-0.117-0.167-0.234-0.333-0.336-0.511c-0.083-0.145-0.153-0.295-0.226-0.445c-0.088-0.183-0.173-0.366-0.245-0.557
	c-0.062-0.16-0.113-0.324-0.164-0.49c-0.06-0.193-0.117-0.391-0.161-0.592c-0.04-0.174-0.073-0.348-0.103-0.525
	c-0.033-0.204-0.062-0.41-0.084-0.619c-0.02-0.183-0.032-0.367-0.041-0.553c-0.01-0.211-0.013-0.422-0.01-0.635
	c0.003-0.19,0.008-0.381,0.019-0.573c0.013-0.212,0.036-0.426,0.06-0.64c0.023-0.195,0.045-0.391,0.078-0.586
	c0.034-0.212,0.078-0.423,0.125-0.634c0.043-0.198,0.083-0.396,0.135-0.591c0.056-0.209,0.123-0.415,0.188-0.622
	c0.062-0.194,0.12-0.391,0.19-0.583c0.075-0.203,0.162-0.402,0.247-0.603c0.08-0.189,0.155-0.381,0.243-0.565
	c0.095-0.197,0.203-0.386,0.306-0.577c0.098-0.179,0.188-0.362,0.293-0.536c0.115-0.193,0.247-0.374,0.373-0.559
	c0.109-0.16,0.211-0.328,0.327-0.481c0.25-0.333,0.517-0.651,0.8-0.95c4.463-9.672-4.242-3.363-6.427,1.732
	c-8.116,1.833,0.009-10.611,3.931-12.322c7.436-10.51-7.676-1.454-10.359,2.748c-10.583-5.762,3.994-12.694,8.142-18.137
	c2.99-10.806-16.021,11.736-16.756,0.315c-4.638-9.952,10.571-13.784,14.181-21.767c2.062,12.289,5.798,24.424,10.567,36.084
	c1.521,7.107,6.967,14.287,11.163,20.928c0.125,0.199,0.25,0.396,0.373,0.595c0.129,0.206,0.254,0.41,0.38,0.614
	c0.151,0.25,0.301,0.498,0.449,0.746c0.103,0.172,0.207,0.346,0.308,0.517c0.229,0.392,0.45,0.78,0.665,1.168
	c0.074,0.136,0.146,0.271,0.219,0.405c0.165,0.303,0.323,0.605,0.477,0.906c0.065,0.13,0.134,0.26,0.197,0.389
	c0.198,0.401,0.386,0.799,0.562,1.194c0.042,0.094,0.078,0.187,0.118,0.279c0.141,0.327,0.272,0.651,0.396,0.974
	c0.042,0.113,0.087,0.227,0.127,0.338c0.144,0.398,0.276,0.793,0.39,1.184c0.015,0.053,0.025,0.105,0.041,0.157
	c0.096,0.347,0.177,0.689,0.247,1.03c0.021,0.104,0.041,0.209,0.06,0.312c0.07,0.389,0.128,0.773,0.158,1.152
	C156.91,334.005,142.599,322.139,149.551,313.942z M173.752,337.941c-10.002-1.553-15.206-7.64-10.05-16.721v0.001
	c7.734,9.373,18.652,17.566,31.44,19.726C196.847,342.312,179.205,340.659,173.752,337.941z"/>
<g>
	<path style="fill:#000000;" d="M320.289,210.957l-3.816-19.815h22.898c1.662,0,2.495-0.734,2.495-2.202v-19.375
		c0-1.468-0.294-2.348-0.881-2.642c-0.587-0.294-1.614-0.44-3.082-0.44h-11.009c-1.566,0-3.06-0.122-4.478-0.367
		c-1.419-0.243-2.692-0.807-3.815-1.688c-1.127-0.88-2.007-2.103-2.643-3.669c-0.638-1.564-0.954-3.669-0.954-6.312v-36.108
		c0-4.206,1.149-7.559,3.449-10.054c2.298-2.496,5.945-3.743,10.936-3.743h29.356l3.669,19.815h-24.072
		c-1.761,0-2.642,0.785-2.642,2.349v19.375c0,1.078,0.269,1.812,0.808,2.202c0.536,0.392,1.344,0.587,2.422,0.587h13.356
		c3.425,0,6.041,0.807,7.854,2.422c1.81,1.614,2.715,4.429,2.715,8.44v35.081c0,5.871-1.199,10.032-3.596,12.477
		c-2.399,2.446-6.631,3.669-12.696,3.669H320.289z"/>
	<path style="fill:#000000;" d="M426.85,195.839c0,2.055-0.245,3.988-0.733,5.798c-0.491,1.812-1.321,3.401-2.495,4.771
		c-1.175,1.372-2.741,2.473-4.697,3.303c-1.959,0.833-4.403,1.247-7.339,1.247h-24.659c-2.936,0-5.383-0.414-7.339-1.247
		c-1.959-0.83-3.523-1.931-4.697-3.303c-1.175-1.369-2.007-2.958-2.495-4.771c-0.491-1.81-0.734-3.743-0.734-5.798v-77.5
		c0-4.206,1.149-7.559,3.449-10.054c2.298-2.496,5.945-3.743,10.936-3.743h26.421c4.99,0,8.635,1.248,10.935,3.743
		c2.299,2.495,3.449,5.848,3.449,10.054V195.839z M394.998,123.182c-1.272,0-1.907,0.686-1.907,2.055v64.877
		c0,0.784,0.121,1.346,0.366,1.688c0.243,0.344,0.808,0.514,1.688,0.514h8.073c0.88,0,1.442-0.17,1.688-0.514
		c0.243-0.342,0.367-0.904,0.367-1.688v-64.877c0-1.369-0.638-2.055-1.908-2.055H394.998z"/>
	<path style="fill:#000000;" d="M435.655,104.541h20.256l10.862,42.713v-42.713h21.87v106.416h-21.87l-11.449-44.474v44.474h-19.669
		V104.541z"/>
	<path style="fill:#000000;" d="M552.639,195.839c0,2.055-0.245,3.988-0.733,5.798c-0.491,1.812-1.321,3.401-2.495,4.771
		c-1.175,1.372-2.741,2.473-4.697,3.303c-1.959,0.833-4.403,1.247-7.339,1.247h-24.659c-2.936,0-5.383-0.414-7.339-1.247
		c-1.959-0.83-3.523-1.931-4.697-3.303c-1.175-1.369-2.007-2.958-2.495-4.771c-0.491-1.81-0.734-3.743-0.734-5.798v-77.5
		c0-4.206,1.149-7.559,3.449-10.054c2.298-2.496,5.945-3.743,10.936-3.743h26.421c4.99,0,8.635,1.248,10.935,3.743
		c2.299,2.495,3.449,5.848,3.449,10.054V195.839z M520.787,123.182c-1.272,0-1.907,0.686-1.907,2.055v64.877
		c0,0.784,0.121,1.346,0.366,1.688c0.243,0.344,0.808,0.514,1.688,0.514h8.073c0.88,0,1.442-0.17,1.688-0.514
		c0.243-0.342,0.367-0.904,0.367-1.688v-64.877c0-1.369-0.638-2.055-1.908-2.055H520.787z"/>
	<path style="fill:#000000;" d="M616.194,167.657c0,2.348-0.808,4.502-2.422,6.458c-1.615,1.959-3.989,2.936-7.119,2.936
		l11.155,33.906h-22.018l-10.274-33.906h-2.789v33.906h-21.283V104.541h40.365c4.99,0,8.635,1.248,10.935,3.743
		c2.299,2.495,3.45,5.848,3.45,10.054V167.657z M582.728,123.182v36.695h10.422c1.369,0,2.055-0.734,2.055-2.202v-32.292
		c0-1.468-0.686-2.202-2.055-2.202H582.728z"/>
	<path style="fill:#000000;" d="M644.67,197.747l-1.908,13.21h-21.43l19.229-106.416h22.751l19.229,106.416h-21.431l-1.907-13.21
		H644.67z M647.019,180.867h9.835l-4.844-37.723L647.019,180.867z"/>
	<path style="fill:#000000;" d="M693.108,101.605h17.761l-11.449,41.833h-13.21L693.108,101.605z"/>
	<path style="fill:#000000;" d="M722.758,210.957l-3.816-19.815h22.898c1.662,0,2.495-0.734,2.495-2.202v-19.375
		c0-1.468-0.294-2.348-0.881-2.642c-0.587-0.294-1.614-0.44-3.082-0.44h-11.009c-1.566,0-3.06-0.122-4.478-0.367
		c-1.419-0.243-2.692-0.807-3.815-1.688c-1.127-0.88-2.007-2.103-2.643-3.669c-0.638-1.564-0.954-3.669-0.954-6.312v-36.108
		c0-4.206,1.149-7.559,3.449-10.054c2.298-2.496,5.945-3.743,10.936-3.743h29.356l3.669,19.815h-24.072
		c-1.761,0-2.642,0.785-2.642,2.349v19.375c0,1.078,0.269,1.812,0.808,2.202c0.536,0.392,1.344,0.587,2.422,0.587h13.356
		c3.425,0,6.041,0.807,7.854,2.422c1.81,1.614,2.715,4.429,2.715,8.44v35.081c0,5.871-1.199,10.032-3.596,12.477
		c-2.399,2.446-6.631,3.669-12.696,3.669H722.758z"/>
</g>
<g>
	<path style="fill:#000000;" d="M364.318,255.965c-0.528,0-1.253-0.213-2.175-0.643c-0.924-0.428-1.681-0.576-2.274-0.445
		l-10.183,2.768v52.004c0,1.912,0.46,3.988,1.384,6.229c0.263,0.659,0.198,1.912-0.197,3.757c-0.396,2.042-1.022,3.327-1.879,3.855
		c-0.133,0.065-0.462,0.099-0.988,0.099c-2.175,0-5.207-0.43-9.096-1.285c-4.35-0.988-6.921-1.945-7.712-2.867
		c-0.923-1.186-0.89-2.768,0.1-4.745c0.855-1.714,1.285-2.966,1.285-3.757v-48.938l-7.02,1.78c-0.331,0.066-0.874,0.346-1.632,0.84
		s-1.4,0.677-1.928,0.543c-1.517-0.395-3.593-2.355-6.229-5.882c-2.637-3.524-3.789-5.915-3.46-7.167
		c0.526-1.516,2.076-2.67,4.646-3.461c0.658-0.197,1.516-0.23,2.57-0.1c1.054,0.134,1.879,0.134,2.472,0l34.405-8.799
		c0.329-0.064,1.285-0.46,2.867-1.186c1.054-0.461,2.01-0.626,2.867-0.494c1.845,0.264,3.098,0.988,3.757,2.174
		c0.46,0.791,0.955,2.274,1.483,4.449c0.657,2.57,0.988,4.812,0.988,6.723c0,1.451-0.183,2.556-0.544,3.312
		C367.465,255.487,366.296,255.899,364.318,255.965z"/>
	<path style="fill:#000000;" d="M394.274,244.101c0,0.462-0.148,1.087-0.445,1.878s-0.479,1.285-0.544,1.483
		c-0.396,1.319-0.791,3.361-1.187,6.13v60.703c0,0.791,0.198,1.5,0.594,2.125c0.396,0.628,0.593,1.138,0.593,1.533
		c0,4.217-0.791,6.49-2.373,6.821c-0.593,0.132-2.9-0.296-6.92-1.285c-4.219-1.056-6.658-1.878-7.316-2.472
		c-1.45-1.251-2.175-2.405-2.175-3.46c0-0.263,0.131-0.56,0.396-0.89c0.263-0.329,0.396-0.891,0.396-1.682v-69.699
		c0-0.396-0.116-0.807-0.346-1.236c-0.232-0.428-0.347-0.84-0.347-1.235c0.132-1.582,1.351-2.636,3.658-3.163
		c0.725-0.132,2.24-0.132,4.548,0c2.833,0.197,5.206,0.561,7.118,1.087C392.823,241.53,394.274,242.652,394.274,244.101z"/>
	<path style="fill:#000000;" d="M459.027,308.561c0.594,1.121-0.577,3.873-3.51,8.256c-2.933,4.382-5.388,6.54-7.365,6.475
		c-2.11-0.066-3.791-1.186-5.042-3.361c-0.197-0.658-0.692-1.613-1.482-2.867l-20.861-19.476v18.29c0,0.727,0.28,1.648,0.841,2.768
		c0.559,1.122,0.84,1.943,0.84,2.473c0,1.977-1.285,3.064-3.855,3.262c-1.978,0.197-4.911-0.165-8.799-1.088
		c-4.219-0.924-6.327-1.912-6.327-2.965c0-0.33,0.082-0.774,0.247-1.335c0.163-0.56,0.247-1.269,0.247-2.126v-69.008
		c0-0.461-0.099-0.873-0.297-1.236c-0.197-0.361-0.297-0.643-0.297-0.84c0.065-1.779,1.385-2.833,3.955-3.164
		c0.791-0.131,2.586,0.183,5.388,0.939c2.801,0.759,4.795,1.104,5.981,1.038c1.12-0.064,3.411-0.972,6.871-2.719
		c3.461-1.745,6.476-2.62,9.047-2.62c0.988,0,2.01,0.1,3.064,0.297c1.845,0.396,3.525,1.253,5.042,2.57
		c1.516,1.319,2.966,2.637,4.351,3.955c3.624,3.428,5.502,5.24,5.635,5.438c1.713,1.977,2.636,4.186,2.769,6.624
		c0.396,7.646-6.13,17.466-19.575,29.462c2.768,2.506,8.863,8.602,18.29,18.29c0.593,0.197,1.449,0.593,2.57,1.187
		C457.412,307.408,458.17,307.902,459.027,308.561z M437.179,253.295c-3.099,0-8.569,3.23-16.412,9.689v15.126
		c2.833-1.12,6.558-4.515,11.172-10.183c4.613-5.668,6.921-9.887,6.921-12.655C438.859,253.955,438.299,253.295,437.179,253.295z"/>
	<path style="fill:#000000;" d="M510.338,309.352c-0.198,1.121-0.776,2.323-1.73,3.609c-0.956,1.285-1.797,2.061-2.521,2.322
		c-0.197,0.066-0.561-0.049-1.087-0.346c-0.528-0.297-0.956-0.445-1.285-0.445c-0.133,0-0.265,0.035-0.396,0.1
		c-2.044,0.593-4.088,1.384-6.13,2.373c-4.879,2.24-9.359,5.106-13.445,8.601c-6.592-2.703-10.184-4.187-10.776-4.448
		c-4.088-1.78-6.13-3.098-6.13-3.955v-74.347c0-0.46,0.773-1.12,2.323-1.978c1.548-0.855,2.685-1.251,3.411-1.186
		c0.791,0.066,2.372,0.577,4.745,1.531c2.373,0.957,4.316,1.434,5.833,1.434c1.978,0,4.548-0.889,7.712-2.669
		c2.899-1.713,4.711-2.438,5.438-2.175c1.582,0.528,3.938,2.258,7.068,5.19c3.13,2.933,4.828,5.026,5.092,6.278
		c0.131,0.593-0.479,1.615-1.829,3.064c-1.352,1.45-2.456,2.175-3.312,2.175c-0.727,0-1.253-0.099-1.582-0.296
		c-0.331-0.198-0.561-0.264-0.692-0.198c-2.373,0.528-4.582,1.153-6.624,1.878c-4.878,1.648-8.47,3.56-10.776,5.734v16.115
		c2.307-1.187,5.305-2.405,8.997-3.658c1.054-0.131,3.278,1.335,6.674,4.399c3.394,3.065,5.091,5.19,5.091,6.377
		c0,0.726-0.462,1.582-1.384,2.571c-0.924,0.988-1.813,1.615-2.669,1.878c-0.66,0-1.814,0.066-3.461,0.198
		c-2.506,0.461-6.92,2.57-13.248,6.326v10.381c1.978-1.186,4.662-2.586,8.058-4.201c3.395-1.614,5.487-2.422,6.278-2.422
		c0.922,0,3.245,1.434,6.97,4.301C508.672,306.732,510.469,308.561,510.338,309.352z"/>
	<path style="fill:#000000;" d="M583.695,306.88c0,4.878-1.615,8.882-4.844,12.013c-3.23,3.129-7.712,4.761-13.446,4.894
		c-1.45,0-3-0.231-4.646-0.692c-3.032-0.857-4.614-1.285-4.745-1.285c-1.582-0.33-3.181-0.677-4.795-1.038
		c-1.616-0.362-3.016-1.103-4.202-2.225c-1.779-1.581-3.23-4.152-4.35-7.712c-1.385-4.152-2.439-6.754-3.164-7.81
		c-0.528-0.526-1.154-1.449-1.878-2.769c-0.198-0.988-0.018-1.96,0.543-2.916c0.56-0.955,1.236-1.564,2.027-1.829
		c0.396-0.132,1.12-0.198,2.175-0.198c2.307,0,5.124,0.281,8.453,0.841c3.327,0.561,5.19,1.071,5.586,1.532
		c0.396,0.462,0.922,2.834,1.582,7.118c0.593,3.954,1.482,6.163,2.669,6.624c0.263,0.133,0.56,0.197,0.89,0.197
		c1.251,0,2.323-1.037,3.213-3.113s1.335-4.432,1.335-7.069c0-5.734-1.779-9.556-5.339-11.468
		c-8.173-4.416-13.907-8.503-17.202-12.26c-3.823-4.35-5.537-9.491-5.142-15.423c0.329-4.943,2.126-9.937,5.389-14.978
		c3.263-5.043,6.706-7.992,10.331-8.85c1.516-0.328,6.13,1.122,13.842,4.351c1.91,0.726,3.838,1.483,5.783,2.274
		c1.943,0.791,3.51,1.944,4.696,3.459c1.845,2.309,2.768,6.295,2.768,11.963c0,1.056-0.033,2.605-0.099,4.646
		c-0.066,1.78-0.099,3.033-0.099,3.758c0.064,0.461,0.297,1.221,0.692,2.273c0.329,0.727,0.46,1.451,0.396,2.176
		c-0.133,2.9-1.353,4.515-3.658,4.844c-1.319,0.197-3.757-0.297-7.316-1.482c-3.954-1.252-6.46-2.604-7.514-4.054
		c-0.133-0.198-0.197-0.856-0.197-1.978c0-0.988,0.114-3.229,0.346-6.723c0.23-3.492,0.346-6.031,0.346-7.613
		c0-2.832-0.33-4.217-0.988-4.152c-2.044,0.133-3.741,1.6-5.092,4.4c-1.352,2.802-2.026,5.98-2.026,9.54
		c0,5.933,1.745,10.151,5.239,12.655c3.955,2.506,7.909,5.01,11.864,7.514c3.757,2.439,6.359,4.878,7.811,7.316
		C582.771,296.796,583.695,301.213,583.695,306.88z"/>
	<path style="fill:#000000;" d="M647.561,282.955c-0.066,0.924-0.84,2.061-2.323,3.41c-1.482,1.352-2.555,2.027-3.213,2.027
		c-0.924,0-1.483,0.033-1.681,0.099v24.914c0-0.198,0.329,1.022,0.988,3.657c0.594,4.218,0.1,6.689-1.482,7.416
		c-0.331,0.131-0.825,0.197-1.483,0.197c-2.308,0-5.273-0.824-8.897-2.472c-3.89-1.715-6.263-3.427-7.118-5.142
		c-0.066-0.593-0.166-1.482-0.297-2.669c-0.133-0.46,0.099-1.087,0.692-1.878c0.593-0.791,0.89-1.285,0.89-1.483v-19.971
		c-1.253,0.133-3.725,0.628-7.415,1.483c-3.692,0.857-6.13,1.517-7.316,1.977v20.07c0,0.461,0.214,1.006,0.643,1.631
		c0.429,0.627,0.676,1.104,0.742,1.434c-0.265,1.055-0.495,2.076-0.692,3.064c-0.198,0.725-0.561,1.188-1.088,1.385
		c-1.055,0.395-4.004-0.215-8.848-1.829c-4.845-1.614-7.399-2.917-7.662-3.905c-0.198-0.725-0.265-1.516-0.198-2.373
		c0.198-1.317,0.297-2.24,0.297-2.768v-63.273c0-1.055,0.297-2.867,0.89-5.438c0.131-0.657,1.251-1.581,3.361-2.769
		c0.132-0.064,0.494-0.098,1.088-0.098c2.438,0,5.008,0.395,7.711,1.186c3.493,1.055,5.339,2.439,5.537,4.152
		c0.064,0.594-0.215,1.715-0.841,3.361c-0.627,1.648-0.939,2.769-0.939,3.361v24.123c4.481-1.119,9.393-2.273,14.731-3.46
		c0-18.256,0-27.45,0-27.583c0-0.132-0.148-0.626-0.445-1.483c-0.297-0.855-0.38-1.548-0.247-2.076
		c0.329-1.187,1.417-1.943,3.263-2.274c1.384-0.197,2.769-0.361,4.152-0.494c1.449-0.197,3.574,0.232,6.377,1.285
		c2.801,1.056,4.365,2.176,4.696,3.361c0.131,0.529,0,1.221-0.396,2.076c-0.462,1.122-0.692,2.045-0.692,2.77v27.286
		c0.329,0.396,1.878,1.813,4.646,4.251C646.77,281.076,647.626,282.23,647.561,282.955z"/>
	<path style="fill:#000000;" d="M689.676,323.291c-1.384,0.132-2.934-0.049-4.646-0.543c-1.715-0.494-3.396-1.006-5.042-1.533
		c-1.978-0.527-5.076-1.482-9.294-2.867c-5.273-2.306-9.261-6.854-11.962-13.643c-2.373-5.997-3.56-13.248-3.56-21.75
		c0-6.921,1.187-14.994,3.56-24.223c3.229-12.391,7.414-18.586,12.556-18.586c0.46,0,1.103,0.115,1.928,0.346
		c0.823,0.231,1.466,0.38,1.928,0.445c4.877-1.385,8.008-2.076,9.393-2.076c0.657,0,1.317,0.033,1.977,0.098
		c7.909,0.989,14.138,5.933,18.686,14.83c4.086,8.043,6.13,17.633,6.13,28.77c0,10.547-1.846,19.609-5.536,27.188
		C701.836,317.986,696.464,322.5,689.676,323.291z M687.896,250.823c-1.451-0.396-2.885,1.55-4.301,5.833
		c-1.418,4.285-2.852,6.426-4.301,6.426c-0.331,0-0.808-0.18-1.434-0.543c-0.627-0.361-1.137-0.576-1.532-0.643
		c-2.241,4.943-3.361,11.996-3.361,21.157c0,7.185,0.757,13.347,2.273,18.487c1.714,5.734,4.086,8.898,7.118,9.491
		c3.56,0.659,6.427-2.998,8.602-10.974c1.911-6.986,2.867-15.291,2.867-24.914c0-6.525-0.494-11.996-1.483-16.412
		C691.29,253.987,689.807,251.352,687.896,250.823z"/>
	<path style="fill:#000000;" d="M755.815,245.484c6.328,3.361,9.491,9.13,9.491,17.302c0,5.933-2.34,13.446-7.02,22.542
		c-5.207,10.15-10.514,15.225-15.917,15.225c-1.055,0-2.225-0.51-3.51-1.533c-1.285-1.021-2.555-2.025-3.807-3.015v16.808
		c0,0.857,0.164,1.846,0.494,2.965c0.461,1.582,0.758,2.67,0.891,3.264c0.131,0.593-0.116,1.663-0.742,3.213
		c-0.627,1.547-1.532,2.388-2.719,2.521c-1.187,0.132-3.757-0.692-7.711-2.472c-4.152-1.846-6.723-3.492-7.712-4.943
		c-0.593-0.922-0.593-2.307,0-4.152c0.461-1.384,0.692-2.471,0.692-3.262v-61.1c0-0.395-0.231-1.119-0.692-2.175
		c-0.462-1.054-0.659-1.812-0.593-2.274c0.396-3.163,1.582-4.744,3.559-4.744c0.329,0,1.664,0.379,4.004,1.137
		c2.339,0.758,4.202,1.17,5.586,1.235c1.978,0.066,4.499-0.46,7.563-1.582c3.064-1.12,5.289-1.681,6.674-1.681
		c0.791,0,1.581,0.1,2.372,0.297c1.516,0.396,3.098,1.384,4.746,2.966C753.443,243.871,754.892,245.024,755.815,245.484z
		 M747.61,253.098c-1.518,0-3.626,0.824-6.328,2.471c-2.703,1.648-4.779,3.461-6.229,5.438v23.827
		c3.56-1.12,6.921-5.173,10.085-12.16c2.899-6.327,4.35-11.698,4.35-16.115C749.488,254.252,748.861,253.098,747.61,253.098z"/>
</g>
</svg>
