<?xml version="1.0" encoding="utf-8"?>
<!-- Generator: Adobe Illustrator 16.0.0, SVG Export Plug-In . SVG Version: 6.00 Build 0)  -->
<!DOCTYPE svg PUBLIC "-//W3C//DTD SVG 1.1//EN" "http://www.w3.org/Graphics/SVG/1.1/DTD/svg11.dtd">
<svg version="1.1" id="Layer_1" xmlns="http://www.w3.org/2000/svg" xmlns:xlink="http://www.w3.org/1999/xlink" x="0px" y="0px"
	 width="300px" height="451.167px" viewBox="0 0 300 451.167" style="enable-background:new 0 0 300 451.167;" xml:space="preserve"
	>
<g>
	<path style="fill:#38BEE5;" d="M130.495,258.077c2.213,0,4.013-1.8,4.013-4.012c0-2.213-1.8-4.013-4.013-4.013
		c-2.212,0-4.013,1.8-4.013,4.013C126.482,256.277,128.283,258.077,130.495,258.077z"/>
	<path style="fill:#38BEE5;" d="M131.033,207.837c1.575,0,2.856-1.279,2.856-2.854s-1.281-2.855-2.856-2.855
		c-1.574,0-2.854,1.281-2.854,2.855S129.459,207.837,131.033,207.837z"/>
	<path style="fill:#38BEE5;" d="M117.442,215.709c1.575,0,2.855-1.28,2.855-2.854c0-1.575-1.28-2.855-2.855-2.855
		c-1.574,0-2.854,1.28-2.854,2.855C114.588,214.429,115.868,215.709,117.442,215.709z"/>
	<path style="fill:#38BEE5;" d="M131.033,270.841c-1.574,0-2.854,1.281-2.854,2.854c0,1.574,1.279,2.854,2.854,2.854
		c1.575,0,2.856-1.28,2.856-2.854C133.89,272.122,132.608,270.841,131.033,270.841z"/>
	<path style="fill:#38BEE5;" d="M148.617,205.3c2.377,0,4.311-1.933,4.311-4.308c0-2.377-1.934-4.311-4.311-4.311
		c-2.375,0-4.31,1.934-4.31,4.311C144.308,203.367,146.242,205.3,148.617,205.3z"/>
	<circle style="fill:#38BEE5;" cx="136.859" cy="300.583" r="1.963"/>
	<path style="fill:#38BEE5;" d="M107.033,233.134c1.575,0,2.856-1.281,2.856-2.855c0-1.575-1.281-2.855-2.856-2.855
		c-1.574,0-2.854,1.28-2.854,2.855C104.18,231.853,105.459,233.134,107.033,233.134z"/>
	<path style="fill:#38BEE5;" d="M148.51,310.216c-1.574,0-2.855,1.282-2.855,2.855c0,1.574,1.281,2.854,2.855,2.854
		s2.855-1.28,2.855-2.854C151.365,311.498,150.084,310.216,148.51,310.216z"/>
	<path style="fill:#38BEE5;" d="M128.658,313.071c0-1.573-1.28-2.855-2.855-2.855c-1.572,0-2.854,1.282-2.854,2.855
		c0,1.574,1.281,2.854,2.854,2.854C127.378,315.926,128.658,314.646,128.658,313.071z"/>
	<path style="fill:#38BEE5;" d="M149.088,185.061c-49.146,0-88.986,39.841-88.986,88.987c0,49.146,39.84,88.986,88.986,88.986
		c49.146,0,88.986-39.841,88.986-88.986C238.074,224.901,198.233,185.061,149.088,185.061z M158.473,197.999
		c0.271-0.05,0.607-0.111,1.001-0.184c0.198-0.032,0.409-0.068,0.635-0.107c0.228-0.025,0.478-0.032,0.741-0.051
		c0.527-0.033,1.119-0.051,1.775-0.071c0.648-0.001,1.326,0.077,2.076,0.125c0.757,0.024,1.52,0.213,2.354,0.352
		c0.843,0.124,1.683,0.392,2.577,0.648c1.787,0.526,3.646,1.336,5.535,2.352c0.49,0.23,0.93,0.543,1.397,0.83
		c0.464,0.296,0.935,0.597,1.409,0.898c0.453,0.329,0.912,0.665,1.365,1.017c0.459,0.346,0.924,0.697,1.353,1.089
		c0.438,0.385,0.882,0.773,1.327,1.163c0.449,0.393,0.844,0.834,1.271,1.258c0.41,0.436,0.852,0.855,1.241,1.316
		c0.391,0.464,0.781,0.929,1.175,1.396c0.405,0.459,0.761,0.958,1.12,1.455c0.363,0.496,0.727,0.993,1.08,1.499
		c0.647,1.045,1.35,2.07,1.924,3.163l0.869,1.635c0.293,0.543,0.522,1.115,0.782,1.672l0.377,0.838l0.187,0.419l0.158,0.381
		l0.323,0.789l0.343,0.905c0.857,2.348,1.466,4.707,1.76,7.105c0.314,2.381,0.314,4.784-0.117,7.09
		c-0.234,1.147-0.535,2.271-1.016,3.327c-0.484,1.047-1.083,2.026-1.807,2.857c-0.732,0.827-1.576,1.489-2.426,1.977
		c-0.438,0.225-0.855,0.441-1.285,0.586c-0.42,0.173-0.838,0.274-1.241,0.366c-1.614,0.348-2.971,0.234-4.03,0.069
		c-0.264-0.047-0.514-0.092-0.748-0.134c-0.229-0.062-0.443-0.117-0.643-0.171c-0.197-0.054-0.379-0.103-0.545-0.149
		c-0.163-0.059-0.312-0.113-0.443-0.161c-0.521-0.2-0.799-0.306-0.799-0.306s0.292-0.049,0.839-0.141
		c0.271-0.037,0.603-0.099,0.983-0.184c0.383-0.074,0.814-0.17,1.283-0.308c0.931-0.267,2.033-0.646,3.029-1.307
		c1.004-0.648,1.847-1.556,2.356-2.71c0.511-1.159,0.75-2.581,0.7-4.205c-0.019-0.802-0.094-1.657-0.246-2.532
		c-0.149-0.872-0.324-1.778-0.582-2.693c-0.494-1.823-1.188-3.728-1.994-5.567l-0.295-0.665l-0.361-0.766l-0.189-0.398l-0.177-0.353
		l-0.347-0.71c-0.238-0.47-0.449-0.954-0.703-1.417l-0.756-1.39c-0.236-0.474-0.51-0.923-0.785-1.372l-0.805-1.355
		c-0.597-0.857-1.123-1.769-1.742-2.594c-0.607-0.836-1.195-1.68-1.85-2.45c-0.609-0.815-1.283-1.547-1.927-2.296
		c-0.634-0.761-1.362-1.388-2-2.103c-0.695-0.637-1.372-1.284-2.058-1.874c-0.705-0.562-1.365-1.176-2.07-1.654
		c-0.689-0.509-1.359-1.021-2.047-1.428c-0.34-0.221-0.674-0.436-0.998-0.646c-0.322-0.223-0.668-0.364-0.988-0.559
		c-0.65-0.354-1.268-0.729-1.88-0.988c-0.606-0.281-1.187-0.562-1.722-0.799c-0.547-0.213-1.049-0.408-1.502-0.585
		c-0.232-0.091-0.45-0.187-0.666-0.258c-0.219-0.066-0.424-0.129-0.615-0.188c-0.383-0.12-0.709-0.223-0.972-0.305
		c-0.526-0.181-0.808-0.274-0.808-0.274S157.927,198.111,158.473,197.999z M169.626,225.746c-0.181-0.981-0.453-1.936-0.831-2.916
		l-0.195-0.479l-0.147-0.34c-0.082-0.199-0.215-0.48-0.331-0.714c-0.243-0.492-0.515-0.98-0.803-1.459
		c-0.576-0.958-1.227-1.871-1.911-2.709c-0.696-0.819-1.406-1.603-2.157-2.232c-0.741-0.647-1.504-1.194-2.264-1.612
		c-0.76-0.419-1.523-0.719-2.252-0.916c-0.729-0.199-1.418-0.289-2.008-0.316c-0.296-0.017-0.568-0.025-0.805-0.017
		c-0.239,0.002-0.45,0.004-0.615,0.022c-0.346,0.021-0.53,0.031-0.53,0.031s0.128-0.137,0.367-0.39
		c0.123-0.128,0.279-0.281,0.481-0.437c0.199-0.165,0.434-0.354,0.72-0.527c0.563-0.374,1.319-0.76,2.271-1.025
		c0.947-0.275,2.092-0.422,3.34-0.347c1.251,0.063,2.578,0.376,3.906,0.878c1.322,0.517,2.629,1.235,3.855,2.138
		c1.22,0.906,2.377,1.975,3.4,3.207c0.508,0.62,1.006,1.263,1.444,1.966c0.226,0.358,0.43,0.679,0.653,1.098l0.305,0.585l0.23,0.464
		c0.753,1.534,1.27,3.244,1.479,4.95c0.209,1.707,0.121,3.397-0.184,4.94c-0.308,1.546-0.816,2.944-1.423,4.168
		c-0.302,0.614-0.633,1.181-0.975,1.711c-0.332,0.531-0.686,1.021-1.043,1.469c-0.705,0.906-1.434,1.652-2.106,2.273
		c-0.677,0.622-1.311,1.108-1.851,1.488c-0.543,0.375-0.993,0.652-1.308,0.82c-0.312,0.174-0.491,0.258-0.491,0.258
		s0.021-0.195,0.083-0.549c0.06-0.358,0.155-0.854,0.278-1.485c0.127-0.608,0.283-1.348,0.461-2.195
		c0.178-0.827,0.363-1.742,0.55-2.701c0.093-0.481,0.17-0.979,0.261-1.479c0.078-0.503,0.148-1.013,0.209-1.527
		c0.126-1.029,0.197-2.069,0.196-3.091C169.883,227.726,169.799,226.726,169.626,225.746z M148.689,193.113
		c4.344,0,7.951,3.534,7.951,7.879c0,3.245-2.641,6.038-4.641,7.243v22.888c0,0.512,0.373,1.023,0.663,1.532
		c0.468,0.805,0.873,1.593,1.451,2.384c1.179,1.565,2.582,3.104,4.14,4.647c1.537,1.559,3.246,3.142,4.9,4.854
		c0.846,0.853,1.656,1.723,2.463,2.628c0.803,0.905,1.604,1.822,2.344,2.817c1.506,1.948,2.869,4.139,3.77,6.591
		c0.427,1.237,0.725,2.533,0.84,3.828c0.109,1.293,0.024,2.576-0.211,3.762c-0.462,2.395-1.509,4.329-2.559,5.919
		c-1.082,1.585-2.235,2.832-3.293,3.873c-1.081,1.021-2.061,1.843-2.9,2.474c-0.83,0.64-1.523,1.088-1.991,1.396
		c-0.467,0.31-0.724,0.463-0.724,0.463s0.149-0.263,0.447-0.734c0.307-0.463,0.727-1.165,1.266-2.037
		c0.539-0.871,1.17-1.933,1.844-3.147c0.652-1.221,1.357-2.598,1.916-4.104c0.141-0.374,0.289-0.754,0.395-1.143
		c0.058-0.196,0.115-0.39,0.174-0.587c0.045-0.196,0.091-0.396,0.137-0.595c0.114-0.394,0.145-0.796,0.226-1.196
		c0.024-0.401,0.091-0.803,0.073-1.201c0.031-0.8-0.046-1.594-0.247-2.38c-0.18-0.788-0.458-1.577-0.846-2.367
		c-0.777-1.59-1.936-3.198-3.302-4.819c-0.685-0.804-1.406-1.622-2.156-2.44c-0.771-0.817-1.529-1.639-2.303-2.458
		c-0.803-0.833-1.566-1.665-2.365-2.493c-0.803-0.85-1.542-1.718-2.34-2.611c-0.67-0.767-0.811-1.561-1.811-2.372v67.333
		c1,0.96,1.867,2.452,1.867,4.132c0,2.887-2.514,5.234-5.399,5.234s-5.276-2.348-5.276-5.234c0-1.616,0.809-3.064,1.809-4.025
		V208.062c-2-1.281-4.309-3.965-4.309-7.07C140.691,196.647,144.347,193.113,148.689,193.113z M159.781,305.057
		c0.232,0.978,0.603,1.903,0.957,2.786c0.188,0.438,0.403,0.847,0.58,1.262c0.19,0.408,0.414,0.773,0.594,1.146
		c0.37,0.738,0.75,1.339,1.035,1.896c0.332,0.529,0.57,0.978,0.742,1.268c0.168,0.297,0.25,0.464,0.25,0.464
		s-0.178-0.058-0.495-0.182c-0.312-0.132-0.788-0.301-1.358-0.564c-0.557-0.3-1.279-0.661-2.02-1.173
		c-0.374-0.254-0.77-0.532-1.175-0.849c-0.394-0.329-0.804-0.686-1.225-1.076c-0.802-0.816-1.652-1.772-2.358-2.964
		c-0.733-1.168-1.328-2.568-1.689-4.092c-0.385-1.519-0.506-3.176-0.359-4.786c0.138-1.614,0.504-3.194,1.01-4.673
		c0.512-1.48,1.176-2.846,1.889-4.124c0.713-1.282,1.506-2.446,2.314-3.525c0.799-1.085,1.631-2.062,2.434-2.97
		c0.811-0.9,1.604-1.719,2.354-2.454c1.503-1.466,2.844-2.611,3.812-3.405c0.482-0.396,0.887-0.694,1.152-0.906
		c0.271-0.207,0.426-0.312,0.426-0.312s-0.031,0.183-0.11,0.515c-0.087,0.328-0.185,0.83-0.372,1.429
		c-0.351,1.216-0.951,2.901-1.781,4.826c-0.826,1.929-1.88,4.088-2.971,6.312c-0.529,1.12-1.092,2.248-1.594,3.38
		c-0.504,1.133-0.994,2.268-1.375,3.385c-0.386,1.115-0.689,2.213-0.884,3.28c-0.205,1.068-0.265,2.102-0.232,3.119
		C159.377,303.085,159.508,304.093,159.781,305.057z M117.496,207.621c2.886,0,5.287,2.349,5.287,5.234
		c0,1.613-0.783,3.06-1.783,4.021v25.256l4.598,5.511c0.734-0.577,1.402-1.032,2.402-1.333v-37.129
		c-1-0.954-2.128-2.477-2.128-4.197c0-2.887,2.344-5.234,5.229-5.234c2.887,0,5.301,2.348,5.301,5.234
		c0,1.578-0.572,2.993-1.682,3.953c0.005,0.061,0.279,0.12,0.279,0.183v37.804c2,1.398,4.207,4.075,4.207,7.143
		c0,3.068-2.207,5.742-4.207,7.141v8.545c1,0.961,1.484,2.371,1.484,3.944c0,0.816-0.512,1.587-0.848,2.276l4.217,8.525
		c0.231,0.458,0.146,0.965,0.146,1.478v9.627c2,1.11,2.921,2.929,2.921,4.981c0,3.379-2.401,6.127-5.779,6.127
		s-5.843-2.748-5.843-6.127c0-2.292,1.701-4.29,3.701-5.342v-8.484l-4.584-7.973c-2.309-0.546-4.576-2.617-4.576-5.089
		c0-1.72,1.16-3.244,2.16-4.199v-7.678c-2-1.08-6.16-4.207-6.16-8.207h-0.136l-7.086-8.393c-0.5-0.592-0.618-1.113-0.618-1.888
		v-26.342c-1-0.958-1.887-2.453-1.887-4.134C112.113,209.97,114.61,207.621,117.496,207.621z M120.285,313.071
		c0-1.666,0.715-3.148,1.715-4.107v-14.491l-15.853-29.934c-4.084-0.242-7.185-3.632-7.185-7.777c0-3.043,2.037-5.68,4.037-6.964
		v-15.634c-1-0.958-1.48-2.345-1.48-3.886c0-2.887,2.607-5.234,5.493-5.234s5.214,2.348,5.214,5.234
		c0,1.748-1.227,3.295-2.227,4.245v15.059c3,1.188,4.78,3.96,4.78,7.18c0,2.075-0.792,3.956-2.117,5.355l16.007,29.995
		c0.254,0.474,0.33,1.004,0.33,1.541v15.367c0,0.961,1.981,2.419,1.981,4.051c0,2.887-2.463,5.234-5.349,5.234
		C122.748,318.306,120.285,315.958,120.285,313.071z M172.258,335.857c0,2.76-2.232,4.959-4.992,4.959
		c2.76,0,4.992,2.172,4.992,4.932s-2.232,4.863-4.992,4.863h-9.985c-2.36,3-6.056,4.994-9.985,4.994
		c-3.932,0-7.626-1.994-9.986-4.994h-9.985c-2.761,0-4.993-2.082-4.993-4.843c0-2.758,2.232-4.843,4.993-4.843
		c-2.761,0-4.993-2.188-4.993-4.948s2.232-4.906,4.993-4.906c-2.761,0-4.993-2.056-4.993-4.815c0-2.762,2.232-4.645,4.993-4.645
		h39.942c2.76,0,4.992,1.883,4.992,4.645c0,2.76-2.232,4.8-4.992,4.8C170.025,331.056,172.258,333.098,172.258,335.857z
		 M183.257,290.348c-0.029,0.337-0.061,0.688-0.113,1.03c-0.131,0.672-0.28,1.379-0.517,2.024c-0.208,0.685-0.5,1.284-0.785,1.923
		c-0.309,0.587-0.629,1.205-0.98,1.742c-0.69,1.123-1.463,2.131-2.239,3.089l-0.569,0.674l-0.312,0.36l-0.309,0.342
		c-0.412,0.465-0.816,0.874-1.215,1.286c-0.803,0.815-1.553,1.547-2.264,2.244c-0.723,0.695-1.33,1.348-1.921,1.971
		c-0.275,0.31-0.552,0.623-0.784,0.924c-0.271,0.3-0.453,0.604-0.674,0.901c-0.229,0.298-0.354,0.6-0.555,0.897
		c-0.149,0.313-0.291,0.612-0.424,0.895c-0.104,0.294-0.19,0.585-0.299,0.871c-0.082,0.271-0.124,0.521-0.193,0.774
		c-0.029,0.127-0.059,0.249-0.084,0.362c-0.014,0.126-0.025,0.244-0.037,0.353c-0.022,0.222-0.041,0.408-0.057,0.561
		c-0.033,0.305-0.064,0.471-0.064,0.471s-0.132-0.108-0.352-0.321c-0.107-0.107-0.243-0.24-0.4-0.396
		c-0.078-0.08-0.166-0.161-0.251-0.255c-0.075-0.109-0.155-0.227-0.239-0.35c-0.17-0.251-0.363-0.555-0.536-0.894
		c-0.156-0.334-0.298-0.712-0.458-1.13c-0.121-0.419-0.209-0.883-0.303-1.387c-0.038-0.488-0.09-1.037-0.062-1.583
		c0.042-1.109,0.28-2.286,0.668-3.443c0.395-1.141,0.929-2.296,1.558-3.345c0.621-1.059,1.328-2.083,2.043-3.016
		c0.354-0.467,0.722-0.934,1.065-1.364c0.354-0.44,0.712-0.886,1.069-1.327c0.684-0.83,1.367-1.659,2.04-2.475
		c0.337-0.394,0.604-0.765,0.907-1.134c0.253-0.358,0.549-0.718,0.76-1.056c0.255-0.345,0.426-0.676,0.645-1.007
		c0.154-0.334,0.373-0.66,0.496-1.002c0.069-0.17,0.158-0.339,0.219-0.515c0.053-0.176,0.098-0.353,0.164-0.53
		c0.146-0.354,0.164-0.729,0.271-1.095c0.078-0.372,0.098-0.744,0.163-1.112c0.05-0.369,0.042-0.727,0.079-1.078
		c0.054-0.7,0.025-1.336,0.062-1.886c-0.02-0.536,0.006-0.988,0.003-1.292c0.004-0.307,0.018-0.479,0.018-0.479
		s0.141,0.093,0.381,0.285c0.232,0.193,0.604,0.471,1.023,0.867c0.391,0.416,0.891,0.919,1.359,1.591
		c0.234,0.338,0.477,0.702,0.712,1.114c0.214,0.423,0.438,0.873,0.64,1.371c0.354,1.011,0.676,2.207,0.674,3.538
		C183.3,289.674,183.297,290.012,183.257,290.348z M198.194,249.175c-0.022,0.831-0.151,1.679-0.23,2.564
		c-0.104,0.884-0.31,1.776-0.471,2.704c-0.103,0.458-0.227,0.917-0.354,1.382c-0.135,0.461-0.236,0.941-0.404,1.402
		c-0.32,0.925-0.62,1.888-1.047,2.81c-0.207,0.464-0.414,0.932-0.623,1.402c-0.238,0.453-0.479,0.909-0.722,1.369
		c-0.974,1.835-2.186,3.562-3.476,5.208c-0.695,0.789-1.324,1.59-2.088,2.35c-0.743,0.751-1.532,1.559-2.219,2.129
		c-0.355,0.308-0.711,0.615-1.064,0.921l-0.133,0.111l-0.018,0.016c-0.252,0.228-0.08,0.071-0.142,0.127l-0.036,0.026l-0.072,0.056
		l-0.288,0.22l-0.575,0.438c-0.762,0.563-1.508,1.101-2.23,1.601c-1.435,1.019-2.773,1.945-3.944,2.861
		c-1.185,0.909-2.153,1.812-2.935,2.723c-0.427,0.446-0.694,0.923-1.025,1.379c-0.135,0.232-0.244,0.471-0.37,0.703
		c-0.062,0.119-0.122,0.235-0.182,0.351c-0.042,0.119-0.085,0.238-0.126,0.354c-0.088,0.241-0.172,0.475-0.256,0.7
		c-0.065,0.232-0.097,0.464-0.15,0.689c-0.049,0.229-0.096,0.452-0.141,0.662c-0.018,0.211-0.033,0.414-0.05,0.605
		c-0.015,0.199-0.031,0.39-0.045,0.566c-0.018,0.184-0.038,0.36-0.018,0.529c0.022,0.338,0.034,0.626,0.042,0.86
		c0.012,0.471,0.018,0.722,0.018,0.722s-0.153-0.199-0.438-0.574c-0.284-0.384-0.7-0.893-1.068-1.776
		c-0.098-0.214-0.212-0.442-0.31-0.69c-0.071-0.25-0.145-0.512-0.223-0.785c-0.072-0.276-0.168-0.57-0.216-0.881
		c-0.031-0.316-0.063-0.644-0.097-0.983c-0.014-0.173-0.027-0.35-0.043-0.528c0.012-0.176,0.023-0.356,0.034-0.539
		c0.029-0.366,0.05-0.754,0.101-1.146c0.154-0.76,0.338-1.586,0.658-2.371c0.609-1.594,1.551-3.179,2.678-4.607
		c1.125-1.436,2.404-2.789,3.719-4.068c0.654-0.651,1.314-1.271,1.965-1.895l0.485-0.458l0.243-0.23l0.061-0.058l0.03-0.029
		c-0.05,0.046,0.134-0.122-0.108,0.099l0.016-0.019l0.119-0.125c0.326-0.336,0.652-0.672,0.98-1.01
		c0.713-0.692,1.194-1.299,1.773-1.915c0.287-0.295,0.557-0.641,0.836-0.973l0.84-0.998c1.066-1.361,2.113-2.733,3.014-4.167
		c0.229-0.354,0.458-0.711,0.686-1.062c0.21-0.363,0.42-0.726,0.628-1.085c0.449-0.706,0.78-1.459,1.188-2.17
		c0.383-0.723,0.677-1.47,1.044-2.179c0.309-0.738,0.609-1.461,0.902-2.163c0.559-1.431,1.043-2.823,1.469-4.142
		c0.205-0.661,0.391-1.301,0.592-1.913c0.174-0.615,0.322-1.205,0.49-1.763c0.326-1.115,0.547-2.11,0.796-2.936
		c0.397-1.653,0.71-2.631,0.709-2.631c0,0,0.369,0.933,0.845,2.625c0.195,0.848,0.46,1.886,0.634,3.098
		c0.094,0.605,0.165,1.252,0.253,1.941c0.051,0.688,0.08,1.412,0.122,2.176C198.256,247.55,198.205,248.343,198.194,249.175z"/>
	<path style="fill:#38BEE5;" d="M107.033,253.72c-1.678,0-3.043,1.364-3.043,3.042s1.365,3.044,3.043,3.044
		c1.68,0,3.045-1.366,3.045-3.044S108.713,253.72,107.033,253.72z"/>
</g>
<circle style="fill:#4D5457;" cx="919.688" cy="-199.952" r="88.986"/>
<g>
	<path style="fill:#FFFFFF;" d="M901.281-160.929c0-1.632-1.281-3.09-2.281-4.051v-15.367c0-0.537,0.224-1.067-0.03-1.541
		l-15.856-29.995c1.324-1.399,2.391-3.28,2.391-5.355c0-3.22-2.504-5.991-4.504-7.18v-15.059c1-0.95,2.026-2.497,2.026-4.245
		c0-2.887-2.428-5.234-5.313-5.234c-2.887,0-5.344,2.348-5.344,5.234c0,1.541,0.631,2.928,1.631,3.886v15.634
		c-2,1.284-4.237,3.921-4.237,6.964c0,4.146,2.7,7.535,6.785,7.777L892-179.527v14.491c0,0.959-1.416,2.441-1.416,4.107
		c0,2.887,2.463,5.234,5.349,5.234S901.281-158.042,901.281-160.929z M877.633-246.577c1.575,0,2.855,1.28,2.855,2.855
		c0,1.574-1.28,2.855-2.855,2.855c-1.574,0-2.854-1.281-2.854-2.855C874.779-245.297,876.059-246.577,877.633-246.577z
		 M877.633-214.194c-1.678,0-3.043-1.366-3.043-3.044s1.365-3.042,3.043-3.042c1.68,0,3.045,1.364,3.045,3.042
		S879.312-214.194,877.633-214.194z M893.549-160.929c0-1.573,1.281-2.855,2.854-2.855c1.575,0,2.855,1.282,2.855,2.855
		c0,1.574-1.28,2.854-2.855,2.854C894.83-158.074,893.549-159.354,893.549-160.929z"/>
	<path style="fill:#FFFFFF;" d="M885-257.011v26.342c0,0.774-0.082,1.074,0.418,1.666l6.986,8.17h-0.214c0,4,3.81,7.571,5.81,8.651
		v7.678c0,0.955-1.86,2.479-1.86,4.199c0,2.472,2.118,4.543,4.426,5.089l4.435,7.973v8.484c-1,1.052-3.401,3.05-3.401,5.342
		c0,3.379,2.614,6.127,5.993,6.127c3.377,0,5.555-2.748,5.555-6.127c0-2.053-0.146-3.871-3.146-4.981v-9.627
		c0-0.513,0.385-1.02,0.153-1.478l-4.067-8.525c0.336-0.689,0.623-1.46,0.623-2.276c0-1.573,0.291-2.983-1.709-3.944v-8.545
		c2-1.398,4.206-4.072,4.206-7.141c0-3.067-2.206-5.744-4.206-7.143v-37.804c0-0.062,0.024-0.122,0.021-0.183
		c1.109-0.96,1.831-2.375,1.831-3.953c0-2.887-2.34-5.234-5.226-5.234s-5.491,2.348-5.491,5.234c0,1.721,1.865,3.243,1.865,4.197
		v37.129c0,0.301-1.168,0.756-1.902,1.333L892-231.868v-25.256c0-0.961,1.582-2.407,1.582-4.021c0-2.886-2.5-5.234-5.387-5.234
		c-2.885,0-5.232,2.349-5.232,5.234C882.963-259.464,883-257.969,885-257.011z M907.459-175.38c1.082,0,1.963,0.881,1.963,1.963
		c0,1.083-0.881,1.963-1.963,1.963s-1.963-0.88-1.963-1.963C905.496-174.499,906.377-175.38,907.459-175.38z M901.633-197.45
		c-1.574,0-2.854-1.28-2.854-2.854c0-1.573,1.279-2.854,2.854-2.854c1.575,0,2.856,1.281,2.856,2.854
		C904.489-198.73,903.208-197.45,901.633-197.45z M901.633-271.872c1.575,0,2.856,1.281,2.856,2.855s-1.281,2.854-2.856,2.854
		c-1.574,0-2.854-1.279-2.854-2.854S900.059-271.872,901.633-271.872z M901.095-223.947c2.213,0,4.013,1.8,4.013,4.013
		c0,2.212-1.8,4.012-4.013,4.012s-4.013-1.8-4.013-4.012C897.082-222.147,898.882-223.947,901.095-223.947z M888.042-264
		c1.574,0,2.854,1.28,2.854,2.855c0,1.573-1.28,2.854-2.854,2.854s-2.854-1.28-2.854-2.854C885.188-262.72,886.468-264,888.042-264z
		"/>
	<path style="fill:#FFFFFF;" d="M953.205-188.198c-0.202-0.498-0.426-0.948-0.64-1.371c-0.235-0.412-0.479-0.776-0.712-1.114
		c-0.469-0.672-0.969-1.175-1.359-1.591c-0.42-0.396-0.792-0.674-1.023-0.867c-0.24-0.192-0.381-0.285-0.381-0.285
		s-0.014,0.172-0.019,0.479c0.004,0.304-0.021,0.756-0.002,1.292c-0.036,0.55-0.007,1.186-0.062,1.886
		c-0.037,0.352-0.029,0.709-0.08,1.078c-0.064,0.368-0.084,0.74-0.161,1.112c-0.107,0.366-0.126,0.741-0.272,1.095
		c-0.066,0.178-0.111,0.354-0.164,0.53c-0.061,0.176-0.148,0.345-0.22,0.515c-0.122,0.342-0.341,0.668-0.495,1.002
		c-0.219,0.331-0.391,0.662-0.645,1.007c-0.211,0.338-0.508,0.697-0.76,1.056c-0.304,0.369-0.57,0.74-0.907,1.134
		c-0.673,0.815-1.356,1.645-2.04,2.475c-0.357,0.441-0.715,0.887-1.07,1.327c-0.344,0.431-0.711,0.897-1.064,1.364
		c-0.715,0.933-1.422,1.957-2.043,3.016c-0.629,1.049-1.164,2.204-1.559,3.345c-0.388,1.157-0.625,2.334-0.667,3.443
		c-0.028,0.546,0.023,1.095,0.062,1.583c0.094,0.504,0.182,0.968,0.303,1.387c0.16,0.418,0.302,0.796,0.458,1.13
		c0.173,0.339,0.366,0.643,0.536,0.894c0.084,0.123,0.163,0.24,0.239,0.35c0.085,0.094,0.173,0.175,0.251,0.255
		c0.157,0.155,0.292,0.288,0.4,0.396c0.22,0.213,0.352,0.321,0.352,0.321s0.031-0.166,0.064-0.471
		c0.016-0.152,0.033-0.339,0.057-0.561c0.011-0.108,0.023-0.227,0.036-0.353c0.026-0.113,0.056-0.235,0.085-0.362
		c0.069-0.253,0.111-0.503,0.193-0.774c0.108-0.286,0.195-0.577,0.299-0.871c0.133-0.282,0.273-0.581,0.424-0.895
		c0.201-0.298,0.326-0.6,0.555-0.897c0.221-0.297,0.402-0.602,0.674-0.901c0.231-0.301,0.508-0.614,0.784-0.924
		c0.591-0.623,1.198-1.275,1.921-1.971c0.711-0.697,1.461-1.429,2.264-2.244c0.398-0.412,0.803-0.821,1.215-1.286l0.309-0.342
		l0.312-0.36l0.569-0.674c0.776-0.958,1.549-1.966,2.239-3.089c0.352-0.537,0.672-1.155,0.98-1.742
		c0.285-0.639,0.577-1.238,0.785-1.923c0.236-0.646,0.385-1.353,0.516-2.024c0.053-0.343,0.085-0.693,0.113-1.03
		c0.04-0.336,0.044-0.674,0.023-1.008C953.881-185.991,953.559-187.188,953.205-188.198z"/>
	<path style="fill:#FFFFFF;" d="M916-265.938v100.983c-1,0.961-2.009,2.409-2.009,4.025c0,2.887,2.29,5.234,5.177,5.234
		c2.885,0,5.05-2.348,5.05-5.234c0-1.68-1.218-3.172-2.218-4.132v-67.333c1,0.812,1.44,1.605,2.111,2.372
		c0.797,0.894,1.686,1.762,2.488,2.611c0.799,0.828,1.639,1.66,2.44,2.493c0.774,0.819,1.568,1.641,2.341,2.458
		c0.75,0.818,1.49,1.637,2.174,2.44c1.367,1.621,2.535,3.229,3.312,4.819c0.387,0.79,0.67,1.579,0.85,2.367
		c0.201,0.786,0.281,1.58,0.25,2.38c0.017,0.398-0.048,0.8-0.072,1.201c-0.081,0.4-0.111,0.803-0.226,1.196
		c-0.046,0.199-0.091,0.398-0.136,0.595c-0.059,0.197-0.117,0.391-0.174,0.587c-0.106,0.389-0.254,0.769-0.395,1.143
		c-0.559,1.506-1.264,2.883-1.916,4.104c-0.674,1.215-1.306,2.276-1.844,3.147c-0.539,0.872-0.96,1.574-1.266,2.037
		c-0.298,0.472-0.447,0.734-0.447,0.734s0.257-0.153,0.724-0.463c0.467-0.309,1.161-0.757,1.991-1.396
		c0.84-0.631,1.819-1.452,2.9-2.474c1.057-1.041,2.211-2.288,3.292-3.873c1.051-1.59,2.098-3.524,2.56-5.919
		c0.235-1.186,0.32-2.469,0.211-3.762c-0.115-1.295-0.413-2.591-0.84-3.828c-0.901-2.452-2.264-4.643-3.77-6.591
		c-0.74-0.995-1.541-1.912-2.345-2.817c-0.806-0.905-1.616-1.775-2.462-2.628c-1.654-1.713-3.363-3.296-4.9-4.854
		c-1.559-1.544-2.961-3.082-4.14-4.647c-0.579-0.791-1.283-1.579-1.751-2.384c-0.29-0.509-0.963-1.021-0.963-1.532v-22.888
		c3-1.205,4.94-3.998,4.94-7.243c0-4.345-3.457-7.879-7.801-7.879c-4.343,0-7.724,3.534-7.724,7.879
		C911.416-269.902,913-267.219,916-265.938z M919.109-158.074c-1.574,0-2.855-1.28-2.855-2.854c0-1.573,1.281-2.855,2.855-2.855
		s2.855,1.282,2.855,2.855C921.965-159.354,920.684-158.074,919.109-158.074z M919.217-277.318c2.377,0,4.311,1.934,4.311,4.311
		c0,2.375-1.934,4.308-4.311,4.308c-2.375,0-4.31-1.933-4.31-4.308C914.907-275.385,916.842-277.318,919.217-277.318z"/>
	<path style="fill:#FFFFFF;" d="M931.047-178.329c0.381-1.117,0.871-2.252,1.375-3.385c0.502-1.132,1.064-2.26,1.594-3.38
		c1.091-2.225,2.144-4.384,2.971-6.312c0.83-1.925,1.43-3.61,1.781-4.826c0.188-0.599,0.285-1.101,0.372-1.429
		c0.079-0.332,0.11-0.515,0.11-0.515s-0.155,0.104-0.426,0.312c-0.267,0.212-0.67,0.51-1.153,0.906
		c-0.967,0.794-2.308,1.939-3.811,3.405c-0.751,0.735-1.544,1.554-2.354,2.454c-0.803,0.907-1.635,1.885-2.435,2.97
		c-0.808,1.079-1.601,2.243-2.313,3.525c-0.713,1.278-1.377,2.644-1.889,4.124c-0.506,1.479-0.872,3.059-1.01,4.673
		c-0.146,1.61-0.025,3.268,0.359,4.786c0.361,1.523,0.956,2.924,1.689,4.092c0.706,1.191,1.557,2.147,2.358,2.964
		c0.421,0.391,0.831,0.747,1.225,1.076c0.404,0.316,0.8,0.595,1.174,0.849c0.741,0.512,1.464,0.873,2.021,1.173
		c0.569,0.264,1.047,0.433,1.358,0.564c0.317,0.124,0.495,0.182,0.495,0.182s-0.082-0.167-0.25-0.464
		c-0.172-0.29-0.41-0.738-0.742-1.268c-0.285-0.558-0.665-1.158-1.035-1.896c-0.18-0.373-0.404-0.738-0.594-1.146
		c-0.178-0.415-0.393-0.823-0.58-1.262c-0.354-0.883-0.725-1.809-0.957-2.786c-0.273-0.964-0.404-1.972-0.45-2.986
		c-0.032-1.018,0.027-2.051,0.232-3.119C930.357-176.116,930.661-177.214,931.047-178.329z"/>
	<path style="fill:#FFFFFF;" d="M968.703-229.39c-0.088-0.689-0.16-1.336-0.252-1.941c-0.175-1.212-0.44-2.25-0.636-3.098
		c-0.476-1.692-0.845-2.625-0.845-2.625c0.002,0-0.311,0.978-0.708,2.631c-0.25,0.825-0.47,1.82-0.796,2.936
		c-0.168,0.558-0.316,1.147-0.491,1.763c-0.2,0.612-0.387,1.252-0.591,1.913c-0.426,1.318-0.91,2.711-1.469,4.142
		c-0.293,0.702-0.595,1.425-0.902,2.163c-0.367,0.709-0.661,1.456-1.045,2.179c-0.406,0.711-0.737,1.464-1.188,2.17
		c-0.208,0.359-0.417,0.722-0.627,1.085c-0.229,0.352-0.456,0.708-0.686,1.062c-0.901,1.434-1.947,2.806-3.014,4.167l-0.839,0.998
		c-0.281,0.332-0.55,0.678-0.837,0.973c-0.579,0.616-1.061,1.223-1.773,1.915c-0.328,0.338-0.654,0.674-0.98,1.01l-0.119,0.125
		l-0.016,0.019c0.242-0.221,0.059-0.053,0.107-0.099l-0.029,0.029l-0.062,0.058l-0.242,0.23l-0.485,0.458
		c-0.65,0.623-1.311,1.243-1.965,1.895c-1.315,1.279-2.594,2.633-3.72,4.068c-1.126,1.429-2.067,3.014-2.677,4.607
		c-0.32,0.785-0.504,1.611-0.658,2.371c-0.051,0.392-0.072,0.779-0.101,1.146c-0.012,0.183-0.022,0.363-0.034,0.539
		c0.016,0.179,0.028,0.355,0.043,0.528c0.033,0.34,0.065,0.667,0.097,0.983c0.048,0.311,0.144,0.604,0.216,0.881
		c0.078,0.273,0.151,0.535,0.223,0.785c0.098,0.248,0.212,0.477,0.309,0.69c0.369,0.884,0.785,1.393,1.068,1.776
		c0.286,0.375,0.439,0.574,0.439,0.574s-0.006-0.251-0.018-0.722c-0.008-0.234-0.02-0.522-0.043-0.86
		c-0.02-0.169,0-0.346,0.019-0.529c0.014-0.177,0.03-0.367,0.045-0.566c0.017-0.191,0.032-0.395,0.05-0.605
		c0.045-0.21,0.092-0.433,0.141-0.662c0.054-0.226,0.085-0.457,0.15-0.689c0.083-0.226,0.168-0.459,0.256-0.7
		c0.041-0.116,0.084-0.235,0.126-0.354c0.06-0.115,0.12-0.231,0.182-0.351c0.125-0.232,0.235-0.471,0.37-0.703
		c0.331-0.456,0.599-0.933,1.025-1.379c0.781-0.911,1.75-1.813,2.934-2.723c1.172-0.916,2.511-1.843,3.944-2.861
		c0.723-0.5,1.47-1.037,2.231-1.601l0.575-0.438l0.288-0.22l0.072-0.056l0.036-0.026c0.062-0.056-0.111,0.101,0.142-0.127
		l0.018-0.016l0.133-0.111c0.354-0.306,0.709-0.613,1.064-0.921c0.687-0.57,1.476-1.378,2.219-2.129
		c0.764-0.76,1.393-1.561,2.087-2.35c1.291-1.646,2.503-3.373,3.476-5.208c0.243-0.46,0.483-0.916,0.723-1.369
		c0.209-0.471,0.416-0.938,0.622-1.402c0.428-0.922,0.728-1.885,1.047-2.81c0.169-0.461,0.271-0.941,0.405-1.402
		c0.128-0.465,0.252-0.924,0.354-1.382c0.161-0.928,0.366-1.82,0.47-2.704c0.079-0.886,0.209-1.733,0.23-2.564
		c0.012-0.832,0.062-1.625,0.033-2.389C968.783-227.978,968.754-228.702,968.703-229.39z"/>
	<path style="fill:#FFFFFF;" d="M930.015-275.25c0.192,0.059,0.397,0.121,0.616,0.188c0.216,0.071,0.434,0.167,0.665,0.258
		c0.454,0.177,0.956,0.372,1.503,0.585c0.535,0.236,1.115,0.518,1.722,0.799c0.612,0.259,1.229,0.634,1.88,0.988
		c0.32,0.194,0.665,0.336,0.988,0.559c0.324,0.211,0.658,0.426,0.998,0.646c0.688,0.407,1.356,0.919,2.047,1.428
		c0.705,0.479,1.365,1.093,2.07,1.654c0.686,0.59,1.362,1.237,2.058,1.874c0.638,0.715,1.366,1.342,2,2.103
		c0.644,0.749,1.317,1.48,1.927,2.296c0.654,0.771,1.242,1.614,1.85,2.45c0.619,0.825,1.146,1.736,1.743,2.594l0.804,1.355
		c0.275,0.449,0.549,0.898,0.785,1.372l0.756,1.39c0.254,0.463,0.465,0.947,0.703,1.417l0.347,0.71l0.177,0.353l0.188,0.398
		l0.362,0.766l0.295,0.665c0.807,1.84,1.5,3.744,1.994,5.567c0.258,0.915,0.433,1.821,0.582,2.693
		c0.152,0.875,0.228,1.73,0.246,2.532c0.05,1.624-0.189,3.046-0.7,4.205c-0.511,1.154-1.353,2.062-2.356,2.71
		c-0.997,0.661-2.1,1.04-3.029,1.307c-0.469,0.138-0.9,0.233-1.283,0.308c-0.382,0.085-0.713,0.146-0.983,0.184
		c-0.547,0.092-0.839,0.141-0.839,0.141s0.277,0.105,0.798,0.306c0.133,0.048,0.28,0.103,0.444,0.161
		c0.166,0.047,0.348,0.096,0.545,0.149c0.199,0.054,0.414,0.109,0.643,0.171c0.234,0.042,0.484,0.087,0.747,0.134
		c1.061,0.165,2.417,0.278,4.03-0.069c0.403-0.092,0.822-0.193,1.242-0.366c0.43-0.145,0.848-0.361,1.285-0.586
		c0.85-0.487,1.693-1.149,2.426-1.977c0.724-0.831,1.322-1.811,1.806-2.857c0.481-1.056,0.782-2.18,1.017-3.327
		c0.432-2.306,0.432-4.709,0.117-7.09c-0.294-2.398-0.902-4.758-1.76-7.105l-0.343-0.905l-0.323-0.789l-0.159-0.381l-0.185-0.419
		l-0.379-0.838c-0.259-0.557-0.489-1.129-0.781-1.672l-0.869-1.635c-0.575-1.093-1.276-2.118-1.924-3.163
		c-0.354-0.506-0.717-1.003-1.08-1.499c-0.359-0.497-0.715-0.996-1.12-1.455c-0.393-0.468-0.785-0.933-1.175-1.396
		c-0.39-0.461-0.831-0.881-1.241-1.316c-0.427-0.424-0.82-0.865-1.271-1.258c-0.445-0.39-0.889-0.778-1.328-1.163
		c-0.428-0.392-0.893-0.743-1.352-1.089c-0.454-0.352-0.912-0.688-1.365-1.017c-0.476-0.302-0.945-0.603-1.409-0.898
		c-0.468-0.287-0.907-0.6-1.397-0.83c-1.889-1.016-3.748-1.825-5.535-2.352c-0.896-0.257-1.734-0.524-2.577-0.648
		c-0.835-0.139-1.598-0.327-2.354-0.352c-0.75-0.048-1.428-0.126-2.076-0.125c-0.656,0.021-1.248,0.038-1.775,0.071
		c-0.264,0.019-0.514,0.025-0.741,0.051c-0.226,0.039-0.438,0.075-0.636,0.107c-0.394,0.072-0.729,0.134-1.001,0.184
		c-0.545,0.112-0.835,0.172-0.835,0.172s0.281,0.094,0.808,0.274C929.307-275.473,929.633-275.37,930.015-275.25z"/>
	<path style="fill:#FFFFFF;" d="M940.082-240.633c-0.091,0.499-0.168,0.997-0.261,1.479c-0.187,0.959-0.372,1.874-0.55,2.701
		c-0.179,0.848-0.334,1.587-0.461,2.195c-0.123,0.631-0.219,1.127-0.278,1.485c-0.062,0.354-0.083,0.549-0.083,0.549
		s0.178-0.084,0.491-0.258c0.314-0.168,0.765-0.445,1.308-0.82c0.54-0.38,1.174-0.866,1.851-1.488
		c0.673-0.621,1.401-1.367,2.106-2.273c0.357-0.447,0.711-0.938,1.043-1.469c0.342-0.53,0.673-1.097,0.975-1.711
		c0.606-1.224,1.115-2.622,1.422-4.168c0.305-1.543,0.394-3.233,0.185-4.94c-0.21-1.706-0.728-3.416-1.48-4.95l-0.229-0.464
		l-0.306-0.585c-0.224-0.419-0.427-0.739-0.652-1.098c-0.438-0.703-0.937-1.346-1.444-1.966c-1.023-1.232-2.181-2.301-3.4-3.207
		c-1.228-0.902-2.534-1.621-3.855-2.138c-1.328-0.502-2.655-0.814-3.906-0.878c-1.248-0.075-2.393,0.071-3.34,0.347
		c-0.951,0.266-1.707,0.651-2.271,1.025c-0.285,0.174-0.52,0.362-0.719,0.527c-0.202,0.155-0.358,0.309-0.481,0.437
		c-0.239,0.253-0.367,0.39-0.367,0.39s0.185-0.011,0.53-0.031c0.165-0.019,0.376-0.021,0.615-0.022c0.236-0.009,0.509,0,0.805,0.017
		c0.59,0.027,1.279,0.117,2.008,0.316c0.729,0.197,1.492,0.497,2.252,0.916c0.76,0.418,1.521,0.965,2.263,1.612
		c0.752,0.63,1.461,1.413,2.158,2.232c0.685,0.838,1.335,1.751,1.911,2.709c0.288,0.479,0.56,0.967,0.803,1.459
		c0.116,0.233,0.249,0.515,0.33,0.714l0.148,0.34l0.195,0.479c0.378,0.98,0.649,1.935,0.83,2.916
		c0.174,0.979,0.258,1.979,0.263,3.003c0.001,1.021-0.07,2.062-0.196,3.091C940.23-241.646,940.16-241.136,940.082-240.633z"/>
	<path style="fill:#FFFFFF;" d="M942.857-147.966c0-2.762-2.232-4.867-4.992-4.867h-39.943c-2.76,0-4.992,2.105-4.992,4.867
		c0,2.76,2.232,4.926,4.992,4.926c-2.76,0-4.992,2.202-4.992,4.962s2.232,4.976,4.992,4.976c-2.76,0-4.992,1.877-4.992,4.635
		c0,2.761,2.232,4.634,4.992,4.634h9.986c2.359,3,6.055,4.994,9.986,4.994c3.93,0,7.625-1.994,9.985-4.994h9.985
		c2.76,0,4.992-1.881,4.992-4.641s-2.232-4.821-4.992-4.821c2.76,0,4.992-2.144,4.992-4.903s-2.232-4.885-4.992-4.885
		C940.625-143.083,942.857-145.207,942.857-147.966z"/>
</g>
<g>
	<g>
		<path style="fill:#38BEE5;" d="M-364.402-22.915c0-1.821-1.598-3.45-2.598-4.523v-17.163c0-0.6,0.3-1.192,0.016-1.721
			l-17.684-33.501c1.479-1.563,3.185-3.663,3.185-5.981c0-3.596-2.517-6.691-4.517-8.019v-16.817c1-1.062,1.761-2.789,1.761-4.741
			c0-3.225-2.962-5.847-6.185-5.847c-3.224,0-6.183,2.622-6.183,5.847c0,1.721,0.606,3.27,1.606,4.339v17.462
			c-2,1.434-4.643,4.378-4.643,7.776c0,4.631,2.918,8.416,7.481,8.687L-375-43.687v16.186c0,1.07-1.44,2.726-1.44,4.586
			c0,3.226,2.795,5.847,6.019,5.847C-367.198-17.068-364.402-19.689-364.402-22.915z M-390.764-118.571
			c1.759,0,3.189,1.429,3.189,3.189c0,1.757-1.43,3.188-3.189,3.188c-1.758,0-3.187-1.432-3.187-3.188
			C-393.951-117.143-392.522-118.571-390.764-118.571z M-390.764-82.405c-1.874,0-3.398-1.525-3.398-3.399s1.524-3.397,3.398-3.397
			c1.876,0,3.401,1.523,3.401,3.397S-388.888-82.405-390.764-82.405z M-372.988-22.915c0-1.757,1.431-3.188,3.188-3.188
			c1.759,0,3.189,1.432,3.189,3.188c0,1.76-1.43,3.188-3.189,3.188C-371.557-19.727-372.988-21.155-372.988-22.915z"/>
		<path style="fill:#38BEE5;" d="M-382-130.225v29.421c0,0.864-0.359,1.191,0.199,1.851l7.534,9.12h-0.238
			c0,5,4.505,8.47,6.505,9.677v8.574c0,1.066-2.086,2.77-2.086,4.69c0,2.761,2.461,5.073,5.038,5.684l5.048,8.903v9.477
			c-2,1.175-3.898,3.406-3.898,5.966c0,3.774,2.87,6.843,6.644,6.843c3.772,0,6.486-3.068,6.486-6.843
			c0-2.292-0.231-4.323-3.231-5.563v-10.752c0-0.572,0.122-1.139-0.136-1.649l-4.696-9.522c0.375-0.77,0.718-1.63,0.718-2.542
			c0-1.757,0.114-3.332-1.886-4.406v-9.543c2-1.562,4.698-4.548,4.698-7.976c0-3.426-2.698-6.414-4.698-7.977v-42.222
			c0-0.069-0.072-0.136-0.076-0.203c1.239-1.072,1.995-2.653,1.995-4.415c0-3.225-2.638-5.847-5.861-5.847
			c-3.224,0-6.137,2.622-6.137,5.847c0,1.922,2.079,3.622,2.079,4.688v41.468c0,0.336-1.453,0.844-2.274,1.489l-4.726-6.155v-28.208
			c0-1.073,1.908-2.688,1.908-4.49c0-3.223-2.722-5.846-5.945-5.846c-3.222,0-5.541,2.623-5.541,5.846
			C-384.578-132.965-384-131.295-382-130.225z M-357.452-39.054c1.208,0,2.192,0.983,2.192,2.191c0,1.21-0.984,2.192-2.192,2.192
			s-2.192-0.982-2.192-2.192C-359.645-38.07-358.661-39.054-357.452-39.054z M-363.959-63.703c-1.758,0-3.187-1.43-3.187-3.188
			c0-1.757,1.429-3.188,3.187-3.188c1.759,0,3.19,1.432,3.19,3.188C-360.769-65.133-362.2-63.703-363.959-63.703z M-363.959-146.822
			c1.759,0,3.19,1.431,3.19,3.189c0,1.758-1.431,3.186-3.19,3.186c-1.758,0-3.187-1.428-3.187-3.186
			C-367.146-145.392-365.717-146.822-363.959-146.822z M-364.56-93.297c2.471,0,4.481,2.01,4.481,4.48
			c0,2.472-2.01,4.481-4.481,4.481c-2.472,0-4.482-2.01-4.482-4.481C-369.042-91.287-367.032-93.297-364.56-93.297z
			 M-379.139-138.03c1.758,0,3.188,1.43,3.188,3.188c0,1.758-1.43,3.188-3.188,3.188s-3.188-1.43-3.188-3.188
			C-382.326-136.601-380.897-138.03-379.139-138.03z"/>
		<path style="fill:#38BEE5;" d="M-307.075-54.901c-0.263-0.461-0.534-0.867-0.795-1.245c-0.523-0.751-1.082-1.312-1.518-1.776
			c-0.47-0.443-0.885-0.753-1.144-0.969c-0.268-0.215-0.425-0.318-0.425-0.318s-0.015,0.192-0.021,0.534
			c0.004,0.34-0.023,0.844-0.002,1.443c-0.04,0.613-0.007,1.323-0.068,2.105c-0.042,0.394-0.033,0.792-0.09,1.205
			c-0.072,0.411-0.094,0.826-0.18,1.242c-0.12,0.409-0.141,0.827-0.304,1.223c-0.074,0.198-0.125,0.396-0.183,0.592
			c-0.067,0.196-0.166,0.385-0.245,0.575c-0.137,0.382-0.381,0.745-0.554,1.119c-0.244,0.37-0.436,0.739-0.72,1.124
			c-0.235,0.377-0.567,0.778-0.849,1.18c-0.339,0.411-0.637,0.826-1.013,1.266c-0.751,0.911-1.515,1.837-2.279,2.764
			c-0.399,0.493-0.798,0.991-1.195,1.482c-0.384,0.48-0.793,1.003-1.188,1.523c-0.799,1.042-1.588,2.186-2.282,3.368
			c-0.702,1.171-1.3,2.462-1.74,3.735c-0.433,1.292-0.698,2.606-0.745,3.846c-0.031,0.61,0.027,1.223,0.069,1.769
			c0.104,0.562,0.203,1.08,0.338,1.549c0.179,0.467,0.337,0.889,0.511,1.262c0.193,0.379,0.409,0.718,0.599,0.998
			c0.094,0.137,0.182,0.269,0.268,0.39c0.095,0.105,0.193,0.196,0.28,0.286c0.175,0.172,0.326,0.32,0.447,0.441
			c0.245,0.237,0.393,0.358,0.393,0.358s0.035-0.186,0.072-0.526c0.018-0.169,0.037-0.377,0.063-0.625
			c0.012-0.121,0.026-0.253,0.04-0.395c0.03-0.126,0.062-0.263,0.095-0.404c0.077-0.282,0.125-0.562,0.216-0.865
			c0.122-0.318,0.218-0.644,0.333-0.973c0.148-0.315,0.306-0.649,0.474-0.999c0.225-0.333,0.364-0.67,0.619-1.002
			c0.247-0.332,0.45-0.673,0.753-1.007c0.258-0.336,0.567-0.687,0.876-1.032c0.66-0.695,1.338-1.425,2.145-2.2
			c0.794-0.779,1.632-1.596,2.529-2.507c0.445-0.46,0.896-0.917,1.357-1.437l0.344-0.382l0.349-0.402l0.636-0.752
			c0.867-1.071,1.73-2.196,2.501-3.45c0.393-0.6,0.75-1.29,1.095-1.946c0.319-0.713,0.645-1.383,0.877-2.147
			c0.264-0.721,0.43-1.51,0.576-2.261c0.059-0.383,0.095-0.774,0.126-1.15c0.044-0.375,0.049-0.753,0.026-1.126
			c0.002-1.486-0.357-2.822-0.753-3.952C-306.586-53.927-306.835-54.429-307.075-54.901z"/>
		<path style="fill:#38BEE5;" d="M-348-140.195V-27.41c-1,1.074-2.2,2.69-2.2,4.495c0,3.226,2.58,5.847,5.804,5.847
			c3.222,0,5.757-2.621,5.757-5.847c0-1.876-1.36-3.541-2.36-4.614v-75.201c1,0.906,1.503,1.793,2.252,2.648
			c0.89,0.999,1.83,1.969,2.726,2.917c0.892,0.926,1.804,1.854,2.699,2.785c0.865,0.914,1.739,1.832,2.602,2.744
			c0.838,0.914,1.658,1.828,2.421,2.727c1.527,1.811,2.828,3.606,3.697,5.382c0.432,0.883,0.746,1.765,0.947,2.644
			c0.225,0.879,0.313,1.766,0.278,2.658c0.019,0.446-0.054,0.894-0.081,1.342c-0.091,0.447-0.125,0.896-0.252,1.337
			c-0.051,0.223-0.102,0.444-0.151,0.664c-0.065,0.221-0.131,0.436-0.194,0.655c-0.119,0.434-0.284,0.858-0.44,1.275
			c-0.624,1.682-1.412,3.22-2.14,4.584c-0.752,1.356-1.458,2.542-2.059,3.515c-0.602,0.975-1.072,1.759-1.414,2.275
			c-0.333,0.527-0.5,0.82-0.5,0.82s0.287-0.171,0.808-0.518c0.521-0.344,1.297-0.845,2.224-1.559
			c0.938-0.705,2.032-1.622,3.239-2.763c1.18-1.163,2.47-2.556,3.677-4.326c1.174-1.775,2.343-3.937,2.859-6.611
			c0.263-1.323,0.358-2.756,0.235-4.2c-0.128-1.446-0.461-2.894-0.938-4.276c-1.006-2.738-2.528-5.185-4.21-7.36
			c-0.827-1.111-1.721-2.136-2.619-3.146c-0.899-1.012-1.805-1.983-2.75-2.936c-1.848-1.912-3.756-3.681-5.473-5.422
			c-1.741-1.725-3.307-3.442-4.623-5.191c-0.647-0.882-1.327-1.763-1.85-2.662c-0.324-0.567-0.97-1.139-0.97-1.711v-25.562
			c3-1.347,5.412-4.466,5.412-8.09c0-4.853-3.914-8.8-8.766-8.8c-4.851,0-8.696,3.947-8.696,8.8
			C-353.049-144.622-351-141.625-348-140.195z M-344.44-19.727c-1.758,0-3.189-1.429-3.189-3.188c0-1.757,1.431-3.188,3.189-3.188
			c1.758,0,3.189,1.432,3.189,3.188C-341.251-21.155-342.683-19.727-344.44-19.727z M-344.32-152.905
			c2.655,0,4.814,2.159,4.814,4.814c0,2.651-2.159,4.812-4.814,4.812c-2.653,0-4.813-2.16-4.813-4.812
			C-349.133-150.746-346.973-152.905-344.32-152.905z"/>
		<path style="fill:#38BEE5;" d="M-331.108-42.348c0.425-1.248,0.973-2.516,1.536-3.78c0.561-1.265,1.189-2.524,1.78-3.775
			c1.218-2.484,2.394-4.896,3.318-7.05c0.927-2.15,1.596-4.032,1.989-5.391c0.21-0.669,0.319-1.229,0.416-1.595
			c0.088-0.371,0.123-0.575,0.123-0.575s-0.173,0.117-0.476,0.348c-0.297,0.236-0.748,0.569-1.288,1.013
			c-1.08,0.886-2.577,2.165-4.256,3.802c-0.838,0.822-1.724,1.736-2.629,2.742c-0.896,1.014-1.826,2.104-2.719,3.315
			c-0.902,1.206-1.788,2.506-2.583,3.938c-0.796,1.428-1.538,2.952-2.11,4.605c-0.564,1.651-0.974,3.416-1.127,5.219
			c-0.164,1.799-0.028,3.649,0.401,5.346c0.404,1.701,1.068,3.266,1.887,4.57c0.788,1.331,1.738,2.398,2.634,3.311
			c0.47,0.436,0.928,0.834,1.367,1.201c0.452,0.354,0.894,0.664,1.312,0.947c0.828,0.572,1.635,0.976,2.256,1.311
			c0.636,0.295,1.169,0.483,1.517,0.631c0.354,0.139,0.553,0.202,0.553,0.202s-0.092-0.186-0.279-0.518
			c-0.192-0.323-0.458-0.824-0.829-1.415c-0.318-0.624-0.743-1.294-1.157-2.119c-0.2-0.416-0.451-0.824-0.663-1.28
			c-0.198-0.464-0.438-0.92-0.647-1.409c-0.396-0.986-0.81-2.02-1.069-3.112c-0.305-1.075-0.452-2.201-0.503-3.334
			c-0.036-1.137,0.03-2.291,0.26-3.483C-331.878-39.877-331.539-41.103-331.108-42.348z"/>
		<path style="fill:#38BEE5;" d="M-289.051-99.376c-0.098-0.77-0.179-1.492-0.282-2.168c-0.195-1.354-0.492-2.514-0.71-3.46
			c-0.531-1.89-0.943-2.932-0.943-2.932c0.002,0-0.347,1.093-0.791,2.938c-0.279,0.922-0.525,2.033-0.89,3.279
			c-0.187,0.622-0.353,1.28-0.548,1.968c-0.223,0.684-0.432,1.398-0.66,2.138c-0.476,1.472-1.017,3.027-1.64,4.625
			c-0.328,0.784-0.665,1.592-1.008,2.415c-0.41,0.793-0.738,1.626-1.167,2.434c-0.454,0.795-0.823,1.636-1.326,2.424
			c-0.233,0.401-0.466,0.807-0.701,1.212c-0.255,0.393-0.509,0.791-0.766,1.187c-1.006,1.602-2.175,3.134-3.366,4.654l-0.937,1.114
			c-0.314,0.37-0.614,0.758-0.935,1.087c-0.647,0.688-1.185,1.365-1.98,2.139c-0.367,0.377-0.731,0.753-1.096,1.128l-0.133,0.139
			l-0.018,0.021c0.059-0.054,0.088-0.08,0.109-0.1l-0.022,0.022l-0.069,0.063l-0.27,0.257l-0.542,0.513
			c-0.727,0.695-1.464,1.388-2.194,2.115c-1.469,1.429-2.897,2.94-4.154,4.544c-1.258,1.596-2.309,3.366-2.99,5.146
			c-0.358,0.878-0.562,1.8-0.735,2.649c-0.056,0.437-0.081,0.87-0.112,1.278c-0.013,0.204-0.025,0.406-0.038,0.603
			c0.018,0.2,0.032,0.397,0.048,0.59c0.037,0.38,0.073,0.744,0.108,1.098c0.053,0.348,0.16,0.676,0.241,0.984
			c0.087,0.306,0.168,0.598,0.248,0.877c0.109,0.277,0.237,0.532,0.345,0.771c0.412,0.986,0.877,1.556,1.193,1.984
			c0.319,0.418,0.49,0.641,0.49,0.641s-0.006-0.28-0.02-0.806c-0.009-0.262-0.022-0.584-0.048-0.961
			c-0.022-0.188,0-0.386,0.021-0.591c0.015-0.198,0.033-0.41,0.05-0.633c0.019-0.215,0.036-0.441,0.056-0.677
			c0.05-0.234,0.103-0.483,0.157-0.739c0.06-0.252,0.095-0.511,0.168-0.77c0.093-0.252,0.187-0.514,0.286-0.782
			c0.046-0.13,0.094-0.264,0.141-0.396c0.066-0.129,0.134-0.258,0.203-0.391c0.14-0.261,0.263-0.526,0.414-0.786
			c0.37-0.509,0.669-1.041,1.145-1.54c0.873-1.018,1.955-2.025,3.277-3.041c1.309-1.022,2.804-2.058,4.405-3.195
			c0.808-0.559,1.642-1.159,2.493-1.787l0.642-0.49l0.322-0.245l0.081-0.062l0.04-0.029c0.069-0.062-0.125,0.111,0.158-0.143
			l0.02-0.017l0.148-0.124c0.395-0.343,0.792-0.686,1.189-1.029c0.767-0.637,1.648-1.538,2.478-2.377
			c0.853-0.849,1.555-1.743,2.331-2.625c1.442-1.837,2.795-3.768,3.882-5.816c0.272-0.514,0.54-1.023,0.807-1.529
			c0.233-0.525,0.465-1.048,0.695-1.565c0.478-1.03,0.812-2.106,1.169-3.139c0.188-0.515,0.302-1.052,0.452-1.566
			c0.143-0.519,0.282-1.031,0.396-1.543c0.18-1.036,0.409-2.033,0.524-3.021c0.088-0.989,0.233-1.936,0.258-2.864
			c0.013-0.929,0.069-1.813,0.037-2.667C-288.961-97.799-288.994-98.608-289.051-99.376z"/>
		<path style="fill:#38BEE5;" d="M-332.261-150.596c0.215,0.066,0.444,0.135,0.688,0.209c0.241,0.081,0.484,0.188,0.742,0.289
			c0.507,0.197,1.068,0.415,1.679,0.653c0.598,0.264,1.245,0.577,1.922,0.893c0.684,0.288,1.374,0.707,2.1,1.103
			c0.358,0.218,0.743,0.376,1.104,0.624c0.362,0.235,0.735,0.477,1.115,0.722c0.768,0.455,1.515,1.027,2.286,1.595
			c0.788,0.535,1.525,1.221,2.313,1.848c0.765,0.659,1.521,1.383,2.298,2.094c0.712,0.798,1.525,1.499,2.233,2.348
			c0.719,0.837,1.471,1.653,2.152,2.564c0.73,0.86,1.387,1.803,2.065,2.736c0.691,0.923,1.28,1.939,1.947,2.897l0.898,1.514
			c0.307,0.502,0.612,1.004,0.876,1.533l0.845,1.552c0.283,0.517,0.519,1.058,0.785,1.582l0.387,0.792l0.198,0.395l0.211,0.445
			l0.404,0.854l0.33,0.743c0.901,2.056,1.676,4.183,2.228,6.218c0.288,1.022,0.483,2.034,0.65,3.008
			c0.17,0.978,0.254,1.934,0.275,2.829c0.055,1.812-0.212,3.401-0.782,4.696c-0.57,1.289-1.511,2.302-2.631,3.027
			c-1.114,0.738-2.345,1.16-3.384,1.458c-0.523,0.154-1.005,0.261-1.433,0.345c-0.426,0.094-0.796,0.163-1.098,0.204
			c-0.611,0.103-0.937,0.157-0.937,0.157s0.31,0.118,0.891,0.341c0.148,0.055,0.313,0.115,0.497,0.18
			c0.185,0.054,0.388,0.108,0.608,0.168c0.222,0.06,0.462,0.122,0.717,0.191c0.262,0.047,0.542,0.096,0.834,0.148
			c1.185,0.185,2.7,0.312,4.501-0.076c0.451-0.104,0.918-0.217,1.388-0.41c0.48-0.161,0.946-0.403,1.435-0.653
			c0.949-0.545,1.891-1.284,2.709-2.209c0.808-0.928,1.477-2.021,2.017-3.19c0.538-1.18,0.874-2.435,1.135-3.717
			c0.482-2.574,0.482-5.259,0.13-7.918c-0.328-2.679-1.007-5.314-1.965-7.936l-0.383-1.012l-0.36-0.881l-0.178-0.426l-0.206-0.468
			l-0.424-0.936c-0.289-0.621-0.546-1.261-0.873-1.868l-0.97-1.825c-0.643-1.221-1.426-2.365-2.149-3.532
			c-0.395-0.565-0.801-1.12-1.207-1.675c-0.401-0.555-0.798-1.112-1.251-1.625c-0.438-0.522-0.877-1.041-1.312-1.56
			c-0.435-0.515-0.928-0.983-1.386-1.471c-0.477-0.473-0.917-0.966-1.419-1.404c-0.497-0.435-0.993-0.869-1.483-1.299
			c-0.478-0.438-0.997-0.83-1.509-1.216c-0.507-0.394-1.019-0.768-1.525-1.136c-0.531-0.337-1.056-0.673-1.574-1.003
			c-0.522-0.321-1.013-0.67-1.561-0.928c-2.109-1.135-4.186-2.038-6.182-2.627c-1-0.286-1.937-0.585-2.879-0.724
			c-0.932-0.154-1.784-0.366-2.629-0.393c-0.837-0.054-1.595-0.141-2.319-0.14c-0.733,0.023-1.394,0.043-1.982,0.08
			c-0.294,0.021-0.574,0.027-0.828,0.056c-0.252,0.044-0.489,0.085-0.71,0.121c-0.439,0.08-0.814,0.149-1.118,0.204
			c-0.608,0.126-0.932,0.192-0.932,0.192s0.314,0.104,0.902,0.307C-333.051-150.845-332.687-150.729-332.261-150.596z"/>
		<path style="fill:#38BEE5;" d="M-337.032-136.133c-0.267,0.283-0.41,0.436-0.41,0.436s0.206-0.013,0.592-0.035
			c0.185-0.021,0.42-0.023,0.688-0.025c0.264-0.01,0.568,0,0.899,0.019c0.659,0.03,1.429,0.131,2.243,0.354
			c0.813,0.221,1.666,0.556,2.515,1.022c0.849,0.468,1.699,1.078,2.527,1.801c0.84,0.704,1.632,1.579,2.411,2.494
			c0.765,0.936,1.491,1.956,2.135,3.025c0.322,0.534,0.625,1.08,0.896,1.629c0.13,0.262,0.278,0.575,0.369,0.798l0.166,0.38
			l0.218,0.535c0.422,1.095,0.726,2.16,0.927,3.257c0.194,1.094,0.288,2.21,0.293,3.354c0.001,1.14-0.078,2.302-0.219,3.452
			c-0.068,0.573-0.146,1.144-0.234,1.705c-0.101,0.558-0.187,1.113-0.291,1.651c-0.208,1.07-0.415,2.094-0.614,3.017
			c-0.2,0.946-0.373,1.772-0.515,2.452c-0.137,0.704-0.244,1.258-0.311,1.659c-0.069,0.395-0.093,0.612-0.093,0.612
			s0.199-0.093,0.549-0.287c0.351-0.188,0.854-0.498,1.46-0.917c0.603-0.424,1.311-0.967,2.067-1.662
			c0.751-0.693,1.565-1.526,2.353-2.539c0.399-0.5,0.794-1.047,1.165-1.641c0.382-0.592,0.752-1.225,1.089-1.911
			c0.678-1.366,1.246-2.928,1.588-4.655c0.34-1.722,0.439-3.61,0.206-5.517c-0.235-1.905-0.812-3.816-1.654-5.529l-0.256-0.519
			l-0.341-0.652c-0.25-0.469-0.476-0.826-0.729-1.227c-0.49-0.785-1.046-1.503-1.613-2.195c-1.144-1.377-2.436-2.57-3.798-3.582
			c-1.371-1.007-2.831-1.811-4.306-2.388c-1.483-0.561-2.966-0.909-4.363-0.979c-1.394-0.085-2.672,0.079-3.73,0.387
			c-1.062,0.297-1.907,0.728-2.537,1.146c-0.318,0.194-0.58,0.404-0.803,0.588C-336.719-136.447-336.894-136.275-337.032-136.133z"
			/>
		<path style="fill:#38BEE5;" d="M-317.917-8.417c0-3.084-2.494-5.416-5.576-5.416h-44.611c-3.083,0-5.575,2.332-5.575,5.416
			c0,3.082,2.493,5.493,5.575,5.493c-3.083,0-5.575,2.453-5.575,5.537c0,3.08,2.493,5.555,5.575,5.555
			c-3.083,0-5.575,2.419-5.575,5.499c0,3.084,2.493,5.5,5.575,5.5h11.153c2.635,3,6.762,5.578,11.154,5.578
			c4.389,0,8.516-2.578,11.152-5.578h11.152c3.082,0,5.576-2.426,5.576-5.509c0-3.081-2.494-5.546-5.576-5.546
			c3.082,0,5.576-2.476,5.576-5.558s-2.494-5.487-5.576-5.487C-320.411-2.934-317.917-5.335-317.917-8.417z"/>
	</g>
</g>
<g>
	<linearGradient id="SVGID_1_" gradientUnits="userSpaceOnUse" x1="63.5356" y1="174.4048" x2="63.5356" y2="130.7974">
		<stop  offset="0.0057" style="stop-color:#393D40"/>
		<stop  offset="0.2188" style="stop-color:#43494C"/>
		<stop  offset="0.5155" style="stop-color:#4B5154"/>
		<stop  offset="1" style="stop-color:#4D5457"/>
	</linearGradient>
	<path style="fill:url(#SVGID_1_);" d="M65.104,150.159c0.871-0.783,12.796,1.007,13.281-8.655
		c0.337-6.708-15.37-11.154-24.659-10.67c-4.806,0.252-5.108,3.32-5.037,6.417c0.062,2.666,5.375,24.581,10.072,36.562
		c0.747,1.901,5.709-1.12,6.865-4.105C67.031,166.083,63.985,151.166,65.104,150.159z M62.293,146.03
		c-1.143-2.201-1.852-4.862-2.212-6.854c5.474,0.176,11.482,1.59,11.415,2.974C71.422,143.706,66.423,143.307,62.293,146.03z"/>
	<linearGradient id="SVGID_2_" gradientUnits="userSpaceOnUse" x1="84.1353" y1="174.4053" x2="84.1353" y2="143.8862">
		<stop  offset="0.0057" style="stop-color:#393D40"/>
		<stop  offset="0.2188" style="stop-color:#43494C"/>
		<stop  offset="0.5155" style="stop-color:#4B5154"/>
		<stop  offset="1" style="stop-color:#4D5457"/>
	</linearGradient>
	<path style="fill:url(#SVGID_2_);" d="M90.248,144.377c-5.732-1.825-12.161,1.374-16.265,10.701
		c-3.766,8.562-1.457,18.148,4.477,19.14c6.268,1.048,13.58-2.203,16.415-12.35C97.392,152.858,96.205,146.274,90.248,144.377z
		 M88.875,161.072c-0.798,4.524-3.424,6.105-5.77,5.776c-2.221-0.313-3.315-4.482-2.132-8.327c1.287-4.19,3.588-5.73,5.756-5.047
		C88.98,154.185,89.584,157.057,88.875,161.072z"/>
	<linearGradient id="SVGID_3_" gradientUnits="userSpaceOnUse" x1="149.2554" y1="174.4048" x2="149.2554" y2="149.7817">
		<stop  offset="0.0057" style="stop-color:#393D40"/>
		<stop  offset="0.2188" style="stop-color:#43494C"/>
		<stop  offset="0.5155" style="stop-color:#4B5154"/>
		<stop  offset="1" style="stop-color:#4D5457"/>
	</linearGradient>
	<path style="fill:url(#SVGID_3_);" d="M154.451,150.243c-3.357-1.119-7.649-0.713-11.863,7.139
		c-3.822,7.121-2.411,14.264,2.239,16.589c3.582,1.79,9.699-2.09,11.863-9.104C159.072,157.144,158.595,151.624,154.451,150.243z
		 M153.668,163.487c-0.112,3.06-0.97,5.26-1.978,5.036c-1.893-0.419-2.437-2.499-2.437-5.147c0-2.984,1.318-4.611,2.196-4.583
		C152.471,158.826,153.803,159.815,153.668,163.487z"/>
	<linearGradient id="SVGID_4_" gradientUnits="userSpaceOnUse" x1="104.9468" y1="174.4043" x2="104.9468" y2="148.0347">
		<stop  offset="0.0057" style="stop-color:#393D40"/>
		<stop  offset="0.2188" style="stop-color:#43494C"/>
		<stop  offset="0.5155" style="stop-color:#4B5154"/>
		<stop  offset="1" style="stop-color:#4D5457"/>
	</linearGradient>
	<path style="fill:url(#SVGID_4_);" d="M104.276,161.763c-0.828-3.692,0.236-6.403,1.791-6.938c1.171-0.403,4.763,1.076,5.074,0.149
		c0.716-2.131-3.261-6.925-6.417-6.939c-4.328-0.019-8.049,7.234-8.132,13.185c-0.071,5.074,1.716,12.035,5.446,13.004
		c4.749,1.235,11.152-4.153,11.266-7.311C113.403,164.171,106.279,170.7,104.276,161.763z"/>
	<linearGradient id="SVGID_5_" gradientUnits="userSpaceOnUse" x1="125.9062" y1="174.2705" x2="125.9062" y2="137.6494">
		<stop  offset="0.0057" style="stop-color:#393D40"/>
		<stop  offset="0.2188" style="stop-color:#43494C"/>
		<stop  offset="0.5155" style="stop-color:#4B5154"/>
		<stop  offset="1" style="stop-color:#4D5457"/>
	</linearGradient>
	<path style="fill:url(#SVGID_5_);" d="M141.122,155.827c1.505-2.42-1.032-2.42-2.897-2.42c-4.194,0-13.804,3.431-13.804,3.431
		s4.163-9.161,2.91-11.042c-1.911-2.869-14.102-8.954-15.594-8.058c-5.025,3.016,3.656,23.503,9.699,36.039
		c0.449,0.931,3.691,0.425,4.104-0.522c0.417-0.954-1.708-7.613-0.596-9.626c0.561-1.014,4.384-2.11,4.178-0.97
		c-0.822,4.53,1.724,9.406,3.208,10.596c1.269,1.016,4.723,0.67,4.104-0.448C134.387,169.106,136.665,162.99,141.122,155.827z"/>
	<linearGradient id="SVGID_6_" gradientUnits="userSpaceOnUse" x1="176.1289" y1="175.167" x2="176.1289" y2="131.167">
		<stop  offset="0.0057" style="stop-color:#393D40"/>
		<stop  offset="0.2188" style="stop-color:#43494C"/>
		<stop  offset="0.5155" style="stop-color:#4B5154"/>
		<stop  offset="1" style="stop-color:#4D5457"/>
	</linearGradient>
	<polygon style="fill:url(#SVGID_6_);" points="176.625,131.167 171.937,131.167 164.586,175.167 186.803,175.167 187.673,169.167 
		170.146,169.167 	"/>
	<linearGradient id="SVGID_7_" gradientUnits="userSpaceOnUse" x1="200.874" y1="175.3145" x2="200.874" y2="142.4717">
		<stop  offset="0.0057" style="stop-color:#393D40"/>
		<stop  offset="0.2188" style="stop-color:#43494C"/>
		<stop  offset="0.5155" style="stop-color:#4B5154"/>
		<stop  offset="1" style="stop-color:#4D5457"/>
	</linearGradient>
	<path style="fill:url(#SVGID_7_);" d="M211.068,144.56c-1.602-1.393-3.888-2.088-6.856-2.088c-2.56,0-4.939,0.481-7.138,1.977
		c-2.2,1.498-3.668,4.719-4.406,7.719h3.958c0.424-2,0.966-2.543,1.626-3.355c1.178-1.467,2.874-2.067,5.089-2.067
		c1.916,0,3.322,0.468,4.218,1.269c0.895,0.803,1.185,2.127,0.871,3.904c-0.142,0.87-0.346,1.553-0.612,2.018
		c-0.487,0.85-1.233,1.36-2.238,1.514l-6.927,1.049c-2.435,0.368-4.519,1.345-6.255,2.93c-1.735,1.584-2.854,3.817-3.357,6.697
		c-0.455,2.627-0.091,4.816,1.096,6.565c1.186,1.75,2.949,2.625,5.289,2.625c1.947,0,3.816-0.512,5.607-1.537
		c1.79-1.023,3.243-2.231,4.358-3.623c-0.078,1.236,0,2.193,0.235,2.87c0.439,1.275,1.39,1.913,2.851,1.913
		c0.597,0,1.072-0.029,1.426-0.087c0.353-0.058,0.875-0.203,1.566-0.435l0.684-3.854c-0.282,0.058-0.546,0.101-0.79,0.13
		c-0.244,0.029-0.459,0.044-0.647,0.044c-0.581,0-0.93-0.165-1.048-0.493c-0.118-0.329-0.13-0.763-0.036-1.305l3.087-17.885
		C213.221,148.115,212.67,145.95,211.068,144.56z M206.474,162.675c-0.564,3.208-2.144,5.519-4.734,6.928
		c-1.556,0.851-3.079,1.276-4.57,1.276c-1.226,0-2.212-0.435-2.958-1.305c-0.746-0.87-0.984-2.058-0.718-3.564
		c0.345-1.991,1.248-3.44,2.709-4.349c0.864-0.541,2.089-0.937,3.676-1.189l2.639-0.405c0.801-0.116,1.633-0.31,2.497-0.58
		c0.863-0.271,1.586-0.609,2.167-1.015L206.474,162.675z"/>
	<linearGradient id="SVGID_8_" gradientUnits="userSpaceOnUse" x1="226.0547" y1="175.3682" x2="226.0547" y2="131.167">
		<stop  offset="0.0057" style="stop-color:#393D40"/>
		<stop  offset="0.2188" style="stop-color:#43494C"/>
		<stop  offset="0.5155" style="stop-color:#4B5154"/>
		<stop  offset="1" style="stop-color:#4D5457"/>
	</linearGradient>
	<path style="fill:url(#SVGID_8_);" d="M237.396,146.399c-1.501-2.657-3.822-3.985-6.963-3.985c-1.506,0-2.971,0.391-4.394,1.174
		c-1.422,0.782-2.722,1.729-3.899,3.217l2.663-15.638h-4.124l-7.374,44h3.911l0.685-4.418c0.628,1.487,1.279,2.345,1.954,3.022
		c1.115,1.14,2.632,1.598,4.548,1.598c3.422,0,6.383-1.679,8.883-4.926c2.496-3.247,4.168-7.352,5.016-12.261
		C239.197,153.002,238.896,149.057,237.396,146.399z M233.92,158.415c-0.645,3.671-1.727,6.629-3.251,8.87
		c-1.524,2.242-3.431,3.363-5.725,3.363c-3.048,0-4.83-1.71-5.347-5.131c-0.283-1.815-0.173-4.184,0.329-7.102
		c0.691-4.039,1.916-6.938,3.675-8.696c1.758-1.758,3.604-2.638,5.536-2.638c2.215,0,3.707,1.072,4.478,3.217
		C234.385,152.443,234.486,155.149,233.92,158.415z"/>
	<linearGradient id="SVGID_9_" gradientUnits="userSpaceOnUse" x1="249.6348" y1="175.3682" x2="249.6348" y2="142.4175">
		<stop  offset="0.0057" style="stop-color:#393D40"/>
		<stop  offset="0.2188" style="stop-color:#43494C"/>
		<stop  offset="0.5155" style="stop-color:#4B5154"/>
		<stop  offset="1" style="stop-color:#4D5457"/>
	</linearGradient>
	<path style="fill:url(#SVGID_9_);" d="M260.685,152.167c0.377-2,0.188-3.891-0.566-5.631c-1.209-2.743-3.715-4.119-7.514-4.119
		c-2.907,0-5.376,0.907-7.411,2.723c-2.034,1.818-3.303,4.193-3.805,7.13c-0.439,2.493,0.134,4.446,1.719,5.856
		c0.881,0.811,2.341,1.544,4.383,2.201l3.181,1.044c1.713,0.562,2.836,1.053,3.37,1.478c0.848,0.695,1.154,1.711,0.919,3.044
		c-0.301,1.758-1.121,3.058-2.463,3.898c-1.343,0.84-2.8,1.262-4.37,1.262c-2.639,0-4.344-1.024-5.112-2.705
		c-0.424-0.928-0.551-2.182-0.378-4.182h-4.075c-0.424,2-0.036,5.868,1.167,7.966c1.202,2.097,3.678,3.235,7.433,3.235
		c3.486,0,6.254-0.958,8.306-2.968c2.049-2.009,3.311-4.374,3.78-7.138c0.503-2.859,0.047-4.946-1.365-6.279
		c-0.896-0.85-2.79-1.724-5.68-2.631l-2.662-0.839c-1.162-0.367-2.018-0.789-2.569-1.272c-0.939-0.812-1.294-1.894-1.058-3.246
		c0.22-1.237,0.804-2.232,1.755-2.986c0.949-0.753,2.227-1.13,3.827-1.13c2.404,0,3.975,0.694,4.713,2.064
		c0.439,0.967,0.595,1.226,0.472,3.226H260.685z"/>
</g>
<g>
	<path style="fill:#FFFFFF;" d="M680.981-160.929c0-1.632-1.981-3.09-1.981-4.051v-15.367c0-0.537-0.076-1.067-0.33-1.541
		l-16.007-29.995c1.325-1.399,2.117-3.28,2.117-5.355c0-3.22-1.78-5.991-4.78-7.18v-15.059c1-0.95,2.227-2.497,2.227-4.245
		c0-2.887-2.328-5.234-5.214-5.234s-5.493,2.348-5.493,5.234c0,1.541,0.48,2.928,1.48,3.886v15.634
		c-2,1.284-4.037,3.921-4.037,6.964c0,4.146,3.101,7.535,7.185,7.777L672-179.527v14.491c-1,0.959-1.715,2.441-1.715,4.107
		c0,2.887,2.463,5.234,5.348,5.234C678.519-155.694,680.981-158.042,680.981-160.929z M657.033-246.577
		c1.575,0,2.856,1.28,2.856,2.855c0,1.574-1.281,2.855-2.856,2.855c-1.574,0-2.854-1.281-2.854-2.855
		C654.18-245.297,655.459-246.577,657.033-246.577z M657.033-214.194c-1.678,0-3.043-1.366-3.043-3.044s1.365-3.042,3.043-3.042
		c1.68,0,3.045,1.364,3.045,3.042S658.713-214.194,657.033-214.194z M672.949-160.929c0-1.573,1.281-2.855,2.854-2.855
		c1.575,0,2.855,1.282,2.855,2.855c0,1.574-1.28,2.854-2.855,2.854C674.23-158.074,672.949-159.354,672.949-160.929z"/>
	<path style="fill:#FFFFFF;" d="M664-257.011v26.342c0,0.774,0.118,1.074,0.618,1.666l7.086,8.17h0.136c0,4,4.16,7.571,6.16,8.651
		v7.678c-1,0.955-2.16,2.479-2.16,4.199c0,2.472,2.268,4.543,4.576,5.089l4.584,7.973v8.484c-2,1.052-3.701,3.05-3.701,5.342
		c0,3.379,2.465,6.127,5.843,6.127s5.779-2.748,5.779-6.127c0-2.053-0.921-3.871-2.921-4.981v-9.627c0-0.513,0.085-1.02-0.146-1.478
		l-4.217-8.525c0.336-0.689,0.848-1.46,0.848-2.276c0-1.573-0.484-2.983-1.484-3.944v-8.545c2-1.398,4.207-4.072,4.207-7.141
		c0-3.067-2.207-5.744-4.207-7.143v-37.804c0-0.062-0.274-0.122-0.279-0.183c1.109-0.96,1.682-2.375,1.682-3.953
		c0-2.887-2.414-5.234-5.301-5.234c-2.886,0-5.229,2.348-5.229,5.234c0,1.721,1.128,3.243,2.128,4.197v37.129
		c-1,0.301-1.668,0.756-2.402,1.333L671-231.868v-25.256c1-0.961,1.783-2.407,1.783-4.021c0-2.886-2.401-5.234-5.287-5.234
		s-5.383,2.349-5.383,5.234C662.113-259.464,663-257.969,664-257.011z M686.859-175.38c1.082,0,1.963,0.881,1.963,1.963
		c0,1.083-0.881,1.963-1.963,1.963s-1.962-0.88-1.962-1.963C684.897-174.499,685.777-175.38,686.859-175.38z M681.033-197.45
		c-1.574,0-2.854-1.28-2.854-2.854c0-1.573,1.279-2.854,2.854-2.854c1.575,0,2.856,1.281,2.856,2.854
		C683.89-198.73,682.608-197.45,681.033-197.45z M681.033-271.872c1.575,0,2.856,1.281,2.856,2.855s-1.281,2.854-2.856,2.854
		c-1.574,0-2.854-1.279-2.854-2.854S679.459-271.872,681.033-271.872z M680.495-223.947c2.213,0,4.013,1.8,4.013,4.013
		c0,2.212-1.8,4.012-4.013,4.012c-2.212,0-4.013-1.8-4.013-4.012C676.482-222.147,678.283-223.947,680.495-223.947z M667.442-264
		c1.575,0,2.855,1.28,2.855,2.855c0,1.573-1.28,2.854-2.855,2.854c-1.574,0-2.854-1.28-2.854-2.854
		C664.588-262.72,665.868-264,667.442-264z"/>
	<path style="fill:#FFFFFF;" d="M732.605-188.198c-0.202-0.498-0.426-0.948-0.64-1.371c-0.235-0.412-0.478-0.776-0.712-1.114
		c-0.469-0.672-0.969-1.175-1.359-1.591c-0.42-0.396-0.791-0.674-1.023-0.867c-0.24-0.192-0.381-0.285-0.381-0.285
		s-0.014,0.172-0.018,0.479c0.003,0.304-0.022,0.756-0.003,1.292c-0.036,0.55-0.008,1.186-0.062,1.886
		c-0.037,0.352-0.029,0.709-0.079,1.078c-0.065,0.368-0.085,0.74-0.163,1.112c-0.107,0.366-0.125,0.741-0.271,1.095
		c-0.066,0.178-0.111,0.354-0.164,0.53c-0.061,0.176-0.149,0.345-0.219,0.515c-0.123,0.342-0.342,0.668-0.496,1.002
		c-0.219,0.331-0.39,0.662-0.645,1.007c-0.211,0.338-0.507,0.697-0.76,1.056c-0.304,0.369-0.57,0.74-0.907,1.134
		c-0.673,0.815-1.356,1.645-2.04,2.475c-0.357,0.441-0.715,0.887-1.069,1.327c-0.344,0.431-0.712,0.897-1.065,1.364
		c-0.715,0.933-1.422,1.957-2.043,3.016c-0.629,1.049-1.163,2.204-1.558,3.345c-0.388,1.157-0.626,2.334-0.668,3.443
		c-0.028,0.546,0.023,1.095,0.062,1.583c0.094,0.504,0.182,0.968,0.303,1.387c0.16,0.418,0.302,0.796,0.458,1.13
		c0.173,0.339,0.366,0.643,0.536,0.894c0.084,0.123,0.164,0.24,0.239,0.35c0.085,0.094,0.173,0.175,0.251,0.255
		c0.157,0.155,0.293,0.288,0.4,0.396c0.22,0.213,0.352,0.321,0.352,0.321s0.031-0.166,0.064-0.471
		c0.016-0.152,0.034-0.339,0.057-0.561c0.012-0.108,0.023-0.227,0.037-0.353c0.025-0.113,0.055-0.235,0.084-0.362
		c0.069-0.253,0.111-0.503,0.193-0.774c0.108-0.286,0.195-0.577,0.299-0.871c0.133-0.282,0.274-0.581,0.424-0.895
		c0.201-0.298,0.326-0.6,0.555-0.897c0.221-0.297,0.402-0.602,0.674-0.901c0.232-0.301,0.509-0.614,0.784-0.924
		c0.591-0.623,1.198-1.275,1.921-1.971c0.711-0.697,1.461-1.429,2.264-2.244c0.398-0.412,0.803-0.821,1.215-1.286l0.309-0.342
		l0.312-0.36l0.569-0.674c0.776-0.958,1.549-1.966,2.239-3.089c0.352-0.537,0.672-1.155,0.98-1.742
		c0.285-0.639,0.577-1.238,0.785-1.923c0.236-0.646,0.386-1.353,0.517-2.024c0.053-0.343,0.084-0.693,0.113-1.03
		c0.04-0.336,0.043-0.674,0.022-1.008C733.281-185.991,732.959-187.188,732.605-188.198z"/>
	<path style="fill:#FFFFFF;" d="M695-265.938v100.983c-1,0.961-1.809,2.409-1.809,4.025c0,2.887,2.391,5.234,5.276,5.234
		s5.399-2.348,5.399-5.234c0-1.68-0.867-3.172-1.867-4.132v-67.333c1,0.812,1.141,1.605,1.811,2.372
		c0.798,0.894,1.537,1.762,2.34,2.611c0.799,0.828,1.562,1.66,2.365,2.493c0.773,0.819,1.531,1.641,2.303,2.458
		c0.75,0.818,1.472,1.637,2.156,2.44c1.366,1.621,2.524,3.229,3.302,4.819c0.388,0.79,0.666,1.579,0.846,2.367
		c0.201,0.786,0.278,1.58,0.247,2.38c0.018,0.398-0.049,0.8-0.073,1.201c-0.081,0.4-0.111,0.803-0.226,1.196
		c-0.046,0.199-0.092,0.398-0.137,0.595c-0.059,0.197-0.116,0.391-0.174,0.587c-0.105,0.389-0.254,0.769-0.395,1.143
		c-0.559,1.506-1.264,2.883-1.916,4.104c-0.674,1.215-1.305,2.276-1.844,3.147c-0.539,0.872-0.959,1.574-1.266,2.037
		c-0.298,0.472-0.447,0.734-0.447,0.734s0.257-0.153,0.724-0.463c0.468-0.309,1.161-0.757,1.991-1.396
		c0.84-0.631,1.819-1.452,2.9-2.474c1.058-1.041,2.211-2.288,3.293-3.873c1.05-1.59,2.097-3.524,2.559-5.919
		c0.235-1.186,0.32-2.469,0.211-3.762c-0.115-1.295-0.413-2.591-0.84-3.828c-0.9-2.452-2.264-4.643-3.77-6.591
		c-0.74-0.995-1.541-1.912-2.344-2.817c-0.807-0.905-1.617-1.775-2.463-2.628c-1.654-1.713-3.363-3.296-4.9-4.854
		c-1.558-1.544-2.961-3.082-4.14-4.647c-0.578-0.791-0.983-1.579-1.451-2.384c-0.29-0.509-0.663-1.021-0.663-1.532v-22.888
		c2-1.205,4.641-3.998,4.641-7.243c0-4.345-3.607-7.879-7.951-7.879c-4.343,0-7.998,3.534-7.998,7.879
		C690.691-269.902,693-267.219,695-265.938z M698.51-158.074c-1.574,0-2.855-1.28-2.855-2.854c0-1.573,1.281-2.855,2.855-2.855
		s2.855,1.282,2.855,2.855C701.365-159.354,700.084-158.074,698.51-158.074z M698.617-277.318c2.377,0,4.311,1.934,4.311,4.311
		c0,2.375-1.934,4.308-4.311,4.308c-2.375,0-4.31-1.933-4.31-4.308C694.308-275.385,696.242-277.318,698.617-277.318z"/>
	<path style="fill:#FFFFFF;" d="M710.447-178.329c0.381-1.117,0.871-2.252,1.375-3.385c0.502-1.132,1.064-2.26,1.594-3.38
		c1.091-2.225,2.145-4.384,2.971-6.312c0.83-1.925,1.431-3.61,1.781-4.826c0.188-0.599,0.285-1.101,0.372-1.429
		c0.079-0.332,0.11-0.515,0.11-0.515s-0.155,0.104-0.426,0.312c-0.266,0.212-0.67,0.51-1.152,0.906
		c-0.968,0.794-2.309,1.939-3.812,3.405c-0.751,0.735-1.544,1.554-2.354,2.454c-0.803,0.907-1.635,1.885-2.434,2.97
		c-0.809,1.079-1.602,2.243-2.314,3.525c-0.713,1.278-1.377,2.644-1.889,4.124c-0.506,1.479-0.872,3.059-1.01,4.673
		c-0.146,1.61-0.025,3.268,0.359,4.786c0.361,1.523,0.956,2.924,1.689,4.092c0.706,1.191,1.557,2.147,2.358,2.964
		c0.421,0.391,0.831,0.747,1.225,1.076c0.405,0.316,0.801,0.595,1.175,0.849c0.74,0.512,1.463,0.873,2.02,1.173
		c0.57,0.264,1.047,0.433,1.358,0.564c0.317,0.124,0.495,0.182,0.495,0.182s-0.082-0.167-0.25-0.464
		c-0.172-0.29-0.41-0.738-0.742-1.268c-0.285-0.558-0.665-1.158-1.035-1.896c-0.18-0.373-0.403-0.738-0.594-1.146
		c-0.177-0.415-0.393-0.823-0.58-1.262c-0.354-0.883-0.725-1.809-0.957-2.786c-0.273-0.964-0.404-1.972-0.45-2.986
		c-0.032-1.018,0.027-2.051,0.232-3.119C709.758-176.116,710.062-177.214,710.447-178.329z"/>
	<path style="fill:#FFFFFF;" d="M748.104-229.39c-0.088-0.689-0.159-1.336-0.253-1.941c-0.174-1.212-0.438-2.25-0.634-3.098
		c-0.476-1.692-0.845-2.625-0.845-2.625c0.001,0-0.312,0.978-0.709,2.631c-0.249,0.825-0.47,1.82-0.796,2.936
		c-0.168,0.558-0.316,1.147-0.49,1.763c-0.201,0.612-0.387,1.252-0.592,1.913c-0.426,1.318-0.91,2.711-1.469,4.142
		c-0.293,0.702-0.594,1.425-0.902,2.163c-0.367,0.709-0.661,1.456-1.044,2.179c-0.407,0.711-0.738,1.464-1.188,2.17
		c-0.208,0.359-0.418,0.722-0.628,1.085c-0.228,0.352-0.457,0.708-0.686,1.062c-0.9,1.434-1.947,2.806-3.014,4.167l-0.84,0.998
		c-0.279,0.332-0.549,0.678-0.836,0.973c-0.579,0.616-1.061,1.223-1.773,1.915c-0.328,0.338-0.654,0.674-0.98,1.01l-0.119,0.125
		l-0.016,0.019c0.242-0.221,0.059-0.053,0.108-0.099l-0.03,0.029l-0.061,0.058l-0.243,0.23l-0.485,0.458
		c-0.65,0.623-1.311,1.243-1.965,1.895c-1.314,1.279-2.594,2.633-3.719,4.068c-1.127,1.429-2.068,3.014-2.678,4.607
		c-0.32,0.785-0.504,1.611-0.658,2.371c-0.051,0.392-0.071,0.779-0.101,1.146c-0.011,0.183-0.022,0.363-0.034,0.539
		c0.016,0.179,0.029,0.355,0.043,0.528c0.033,0.34,0.065,0.667,0.097,0.983c0.048,0.311,0.144,0.604,0.216,0.881
		c0.078,0.273,0.151,0.535,0.223,0.785c0.098,0.248,0.212,0.477,0.31,0.69c0.368,0.884,0.784,1.393,1.068,1.776
		c0.285,0.375,0.438,0.574,0.438,0.574s-0.006-0.251-0.018-0.722c-0.008-0.234-0.02-0.522-0.042-0.86
		c-0.021-0.169,0-0.346,0.018-0.529c0.014-0.177,0.03-0.367,0.045-0.566c0.017-0.191,0.032-0.395,0.05-0.605
		c0.045-0.21,0.092-0.433,0.141-0.662c0.054-0.226,0.085-0.457,0.15-0.689c0.084-0.226,0.168-0.459,0.256-0.7
		c0.041-0.116,0.084-0.235,0.126-0.354c0.06-0.115,0.12-0.231,0.182-0.351c0.126-0.232,0.235-0.471,0.37-0.703
		c0.331-0.456,0.599-0.933,1.025-1.379c0.781-0.911,1.75-1.813,2.935-2.723c1.171-0.916,2.51-1.843,3.944-2.861
		c0.723-0.5,1.469-1.037,2.23-1.601l0.575-0.438l0.288-0.22l0.072-0.056l0.036-0.026c0.062-0.056-0.11,0.101,0.142-0.127
		l0.018-0.016l0.133-0.111c0.354-0.306,0.709-0.613,1.064-0.921c0.687-0.57,1.476-1.378,2.219-2.129
		c0.764-0.76,1.393-1.561,2.088-2.35c1.29-1.646,2.502-3.373,3.476-5.208c0.242-0.46,0.483-0.916,0.722-1.369
		c0.209-0.471,0.416-0.938,0.623-1.402c0.427-0.922,0.727-1.885,1.047-2.81c0.168-0.461,0.27-0.941,0.404-1.402
		c0.128-0.465,0.252-0.924,0.354-1.382c0.161-0.928,0.367-1.82,0.471-2.704c0.079-0.886,0.208-1.733,0.23-2.564
		c0.011-0.832,0.062-1.625,0.031-2.389C748.184-227.978,748.154-228.702,748.104-229.39z"/>
	<path style="fill:#FFFFFF;" d="M709.416-275.25c0.191,0.059,0.396,0.121,0.615,0.188c0.216,0.071,0.434,0.167,0.666,0.258
		c0.453,0.177,0.955,0.372,1.502,0.585c0.535,0.236,1.115,0.518,1.722,0.799c0.612,0.259,1.229,0.634,1.88,0.988
		c0.32,0.194,0.666,0.336,0.988,0.559c0.324,0.211,0.658,0.426,0.998,0.646c0.688,0.407,1.357,0.919,2.047,1.428
		c0.705,0.479,1.365,1.093,2.07,1.654c0.686,0.59,1.362,1.237,2.058,1.874c0.638,0.715,1.366,1.342,2,2.103
		c0.644,0.749,1.317,1.48,1.927,2.296c0.654,0.771,1.242,1.614,1.85,2.45c0.619,0.825,1.146,1.736,1.742,2.594l0.805,1.355
		c0.275,0.449,0.549,0.898,0.785,1.372l0.756,1.39c0.254,0.463,0.465,0.947,0.703,1.417l0.347,0.71l0.177,0.353l0.189,0.398
		l0.361,0.766l0.295,0.665c0.807,1.84,1.5,3.744,1.994,5.567c0.258,0.915,0.433,1.821,0.582,2.693
		c0.152,0.875,0.228,1.73,0.246,2.532c0.05,1.624-0.189,3.046-0.7,4.205c-0.51,1.154-1.353,2.062-2.356,2.71
		c-0.996,0.661-2.099,1.04-3.029,1.307c-0.469,0.138-0.9,0.233-1.283,0.308c-0.381,0.085-0.713,0.146-0.983,0.184
		c-0.547,0.092-0.839,0.141-0.839,0.141s0.277,0.105,0.799,0.306c0.132,0.048,0.28,0.103,0.443,0.161
		c0.166,0.047,0.348,0.096,0.545,0.149c0.199,0.054,0.414,0.109,0.643,0.171c0.234,0.042,0.484,0.087,0.748,0.134
		c1.06,0.165,2.416,0.278,4.03-0.069c0.403-0.092,0.821-0.193,1.241-0.366c0.43-0.145,0.848-0.361,1.285-0.586
		c0.85-0.487,1.693-1.149,2.426-1.977c0.724-0.831,1.322-1.811,1.807-2.857c0.48-1.056,0.781-2.18,1.016-3.327
		c0.432-2.306,0.432-4.709,0.117-7.09c-0.294-2.398-0.902-4.758-1.76-7.105l-0.343-0.905l-0.323-0.789l-0.158-0.381l-0.187-0.419
		l-0.377-0.838c-0.26-0.557-0.489-1.129-0.782-1.672l-0.869-1.635c-0.574-1.093-1.276-2.118-1.924-3.163
		c-0.354-0.506-0.717-1.003-1.08-1.499c-0.359-0.497-0.715-0.996-1.12-1.455c-0.394-0.468-0.784-0.933-1.175-1.396
		c-0.39-0.461-0.831-0.881-1.241-1.316c-0.427-0.424-0.821-0.865-1.271-1.258c-0.445-0.39-0.889-0.778-1.327-1.163
		c-0.429-0.392-0.894-0.743-1.353-1.089c-0.453-0.352-0.912-0.688-1.365-1.017c-0.475-0.302-0.945-0.603-1.409-0.898
		c-0.468-0.287-0.907-0.6-1.397-0.83c-1.889-1.016-3.748-1.825-5.535-2.352c-0.895-0.257-1.734-0.524-2.577-0.648
		c-0.835-0.139-1.598-0.327-2.354-0.352c-0.75-0.048-1.428-0.126-2.076-0.125c-0.656,0.021-1.248,0.038-1.775,0.071
		c-0.264,0.019-0.514,0.025-0.741,0.051c-0.226,0.039-0.437,0.075-0.635,0.107c-0.394,0.072-0.729,0.134-1.001,0.184
		c-0.546,0.112-0.836,0.172-0.836,0.172s0.281,0.094,0.808,0.274C708.707-275.473,709.033-275.37,709.416-275.25z"/>
	<path style="fill:#FFFFFF;" d="M719.482-240.633c-0.091,0.499-0.168,0.997-0.261,1.479c-0.187,0.959-0.372,1.874-0.55,2.701
		c-0.178,0.848-0.334,1.587-0.461,2.195c-0.123,0.631-0.219,1.127-0.278,1.485c-0.062,0.354-0.083,0.549-0.083,0.549
		s0.179-0.084,0.491-0.258c0.314-0.168,0.765-0.445,1.308-0.82c0.54-0.38,1.174-0.866,1.851-1.488
		c0.673-0.621,1.401-1.367,2.106-2.273c0.357-0.447,0.711-0.938,1.043-1.469c0.342-0.53,0.673-1.097,0.975-1.711
		c0.606-1.224,1.115-2.622,1.423-4.168c0.305-1.543,0.393-3.233,0.184-4.94c-0.21-1.706-0.727-3.416-1.479-4.95l-0.23-0.464
		l-0.305-0.585c-0.224-0.419-0.428-0.739-0.653-1.098c-0.438-0.703-0.937-1.346-1.444-1.966c-1.023-1.232-2.181-2.301-3.4-3.207
		c-1.227-0.902-2.533-1.621-3.855-2.138c-1.328-0.502-2.655-0.814-3.906-0.878c-1.248-0.075-2.393,0.071-3.34,0.347
		c-0.951,0.266-1.707,0.651-2.271,1.025c-0.286,0.174-0.521,0.362-0.72,0.527c-0.202,0.155-0.358,0.309-0.481,0.437
		c-0.239,0.253-0.367,0.39-0.367,0.39s0.185-0.011,0.53-0.031c0.165-0.019,0.376-0.021,0.615-0.022c0.236-0.009,0.509,0,0.805,0.017
		c0.59,0.027,1.279,0.117,2.008,0.316c0.729,0.197,1.492,0.497,2.252,0.916c0.76,0.418,1.522,0.965,2.264,1.612
		c0.751,0.63,1.461,1.413,2.157,2.232c0.685,0.838,1.335,1.751,1.911,2.709c0.288,0.479,0.56,0.967,0.803,1.459
		c0.116,0.233,0.249,0.515,0.331,0.714l0.147,0.34l0.195,0.479c0.378,0.98,0.65,1.935,0.831,2.916
		c0.173,0.979,0.257,1.979,0.262,3.003c0.001,1.021-0.07,2.062-0.196,3.091C719.631-241.646,719.561-241.136,719.482-240.633z"/>
	<path style="fill:#FFFFFF;" d="M722.258-147.966c0-2.762-2.232-4.867-4.992-4.867h-39.942c-2.761,0-4.993,2.105-4.993,4.867
		c0,2.76,2.232,4.926,4.993,4.926c-2.761,0-4.993,2.202-4.993,4.962s2.232,4.976,4.993,4.976c-2.761,0-4.993,1.877-4.993,4.635
		c0,2.761,2.232,4.634,4.993,4.634h9.985c2.36,3,6.055,4.994,9.986,4.994c3.93,0,7.625-1.994,9.985-4.994h9.985
		c2.76,0,4.992-1.881,4.992-4.641s-2.232-4.821-4.992-4.821c2.76,0,4.992-2.144,4.992-4.903s-2.232-4.885-4.992-4.885
		C720.025-143.083,722.258-145.207,722.258-147.966z"/>
</g>
<g>
	<path style="fill:#38BEE5;" d="M32.908,55.061l-1.726,8.856h-7.304l8.396-38.762h9.029l7.534,38.762h-7.304l-1.668-8.856H32.908z
		 M39.177,49.195l-1.265-8.109c-0.403-2.358-0.92-6.211-1.265-8.799h-0.173c-0.402,2.588-0.978,6.614-1.38,8.857l-1.438,8.051
		H39.177z"/>
	<path style="fill:#38BEE5;" d="M62.233,25.73c2.128-0.46,5.003-0.748,7.879-0.748c4.486,0,7.994,0.633,10.524,2.991
		c2.301,2.013,3.336,5.233,3.336,8.511c0,4.198-1.266,7.131-3.278,9.317c-2.416,2.53-6.326,3.681-9.432,3.681
		c-0.518,0-1.035,0-1.495,0v14.435h-7.534V25.73z M69.768,43.329c0.345,0.115,0.748,0.115,1.208,0.115
		c3.796,0,5.521-2.703,5.521-6.326c0-3.393-1.38-6.039-4.888-6.039c-0.69,0-1.38,0.115-1.84,0.288V43.329z"/>
	<path style="fill:#38BEE5;" d="M88.512,25.73c2.358-0.46,5.349-0.748,8.224-0.748c4.141,0,7.821,0.575,10.352,2.875
		c2.358,2.128,3.048,4.716,3.048,8.052c0,4.141-2.013,7.879-5.981,9.719v0.115c2.646,1.035,3.968,3.508,4.716,7.649
		c0.748,4.313,1.783,9.086,2.473,10.524h-7.879c-0.46-1.093-1.323-5.003-1.897-9.259c-0.69-4.831-1.898-6.211-4.428-6.211h-1.093
		v15.47h-7.534V25.73z M96.046,42.639h1.323c3.278,0,5.176-2.646,5.176-6.039c0-3.278-1.323-5.636-4.716-5.751
		c-0.633,0-1.38,0.058-1.783,0.23V42.639z"/>
	<path style="fill:#38BEE5;" d="M138.427,43.846c0,14.608-5.176,20.531-12.537,20.531c-8.799,0-12.25-9.316-12.25-19.956
		c0-10.582,4.198-19.726,12.767-19.726C135.781,24.695,138.427,34.99,138.427,43.846z M121.461,44.537
		c0,8.799,1.667,13.285,4.716,13.285c3.163,0,4.371-5.751,4.371-13.63c0-6.786-1.035-12.94-4.428-12.94
		C123.129,31.251,121.461,36.197,121.461,44.537z"/>
	<path style="fill:#38BEE5;" d="M146.303,25.155h7.591v26.397c0,11.157-5.405,12.825-10.926,12.825c-1.553,0-2.933-0.23-3.796-0.575
		l0.633-6.326c0.748,0.23,1.495,0.287,2.473,0.287c2.186,0,4.026-0.862,4.026-5.866V25.155z"/>
	<path style="fill:#38BEE5;" d="M176.435,46.895h-8.856v10.467h10.007v6.556h-17.54V25.155h16.851v6.557h-9.317v8.914h8.856V46.895z
		"/>
	<path style="fill:#38BEE5;" d="M201.277,63.342c-1.093,0.518-3.221,0.92-5.866,0.92c-9.892,0-14.607-8.167-14.607-19.151
		c0-14.608,8.109-20.301,15.644-20.301c2.645,0,4.485,0.518,5.233,1.035l-1.266,6.326c-0.862-0.403-1.841-0.748-3.508-0.748
		c-4.256,0-8.109,3.681-8.109,13.285c0,9.259,3.508,12.882,8.109,12.882c1.265,0,2.702-0.288,3.623-0.575L201.277,63.342z"/>
	<path style="fill:#38BEE5;" d="M210.992,32.114h-6.844v-6.959h21.278v6.959h-6.901v31.803h-7.533V32.114z"/>
	<path style="fill:#38BEE5;" d="M261.424,43.846c0,14.608-5.176,20.531-12.537,20.531c-8.799,0-12.25-9.316-12.25-19.956
		c0-10.582,4.198-19.726,12.768-19.726C258.778,24.695,261.424,34.99,261.424,43.846z M244.458,44.537
		c0,8.799,1.668,13.285,4.716,13.285c3.163,0,4.371-5.751,4.371-13.63c0-6.786-1.035-12.94-4.428-12.94
		C246.126,31.251,244.458,36.197,244.458,44.537z"/>
	<path style="fill:#38BEE5;" d="M266.194,25.155h16.851v6.557h-9.317v9.949h8.742v6.269h-8.742v15.988h-7.533V25.155z"/>
</g>
<g>
	<path style="fill:#38BEE5;" d="M26.104,414.385l0.601,4.877c0.162,1.226,0.3,2.358,0.393,3.421h0.069
		c0.185-1.063,0.416-2.312,0.624-3.375l0.994-4.924h2.334l0.971,4.808c0.231,1.271,0.439,2.381,0.578,3.491h0.07
		c0.069-1.063,0.208-2.242,0.393-3.467l0.694-4.832h2.982l-2.913,11.304h-2.566l-0.855-3.953c-0.231-1.04-0.439-2.242-0.578-3.537
		h-0.046c-0.139,1.317-0.393,2.497-0.647,3.56l-0.971,3.93h-2.589l-2.774-11.304H26.104z"/>
	<path style="fill:#38BEE5;" d="M40.97,414.385l0.601,4.877c0.162,1.226,0.3,2.358,0.393,3.421h0.069
		c0.185-1.063,0.416-2.312,0.624-3.375l0.994-4.924h2.334l0.971,4.808c0.231,1.271,0.439,2.381,0.578,3.491h0.07
		c0.069-1.063,0.208-2.242,0.393-3.467l0.694-4.832h2.982l-2.913,11.304h-2.566l-0.855-3.953c-0.231-1.04-0.439-2.242-0.578-3.537
		h-0.046c-0.139,1.317-0.393,2.497-0.647,3.56l-0.971,3.93h-2.589l-2.774-11.304H40.97z"/>
	<path style="fill:#38BEE5;" d="M55.835,414.385l0.601,4.877c0.162,1.226,0.3,2.358,0.393,3.421h0.069
		c0.185-1.063,0.416-2.312,0.624-3.375l0.994-4.924h2.334l0.971,4.808c0.231,1.271,0.439,2.381,0.578,3.491h0.069
		c0.07-1.063,0.208-2.242,0.393-3.467l0.694-4.832h2.982l-2.913,11.304H61.06l-0.855-3.953c-0.231-1.04-0.439-2.242-0.578-3.537
		h-0.046c-0.139,1.317-0.393,2.497-0.647,3.56l-0.971,3.93h-2.589l-2.774-11.304H55.835z"/>
	<path style="fill:#38BEE5;" d="M66.888,423.863c0-1.156,0.855-2.011,1.78-2.011c0.971,0,1.757,0.763,1.757,2.011
		c0,1.225-0.717,2.011-1.78,2.011C67.697,425.874,66.888,425.088,66.888,423.863z"/>
	<path style="fill:#38BEE5;" d="M73.846,394.99c1.71-0.37,4.022-0.601,6.334-0.601c3.606,0,6.427,0.508,8.461,2.404
		c1.849,1.618,2.682,4.208,2.682,6.843c0,3.375-1.017,5.733-2.635,7.49c-1.942,2.035-5.086,2.959-7.583,2.959
		c-0.416,0-0.833,0-1.202,0v11.605h-6.057V394.99z M79.903,409.137c0.277,0.092,0.601,0.092,0.971,0.092
		c3.052,0,4.438-2.173,4.438-5.085c0-2.728-1.109-4.855-3.93-4.855c-0.555,0-1.11,0.093-1.479,0.231V409.137z"/>
	<path style="fill:#38BEE5;" d="M109.958,414.315c0,9.432-5.225,11.744-8.646,11.744c-5.409,0-8.646-4.254-8.646-11.605
		c0-8.137,4.253-11.744,8.738-11.744C106.721,402.71,109.958,407.195,109.958,414.315z M98.676,414.315
		c0,3.884,0.601,7.12,2.774,7.12c1.941,0,2.45-3.792,2.45-7.12c0-3.098-0.509-7.028-2.543-7.028
		C99.139,407.288,98.676,411.218,98.676,414.315z"/>
	<path style="fill:#38BEE5;" d="M125.911,425.319c-0.601,0.278-2.127,0.647-3.837,0.647c-5.733,0-9.478-3.976-9.478-11.374
		c0-6.981,4.115-11.836,10.356-11.836c1.433,0,2.728,0.324,3.329,0.601l-0.786,4.762c-0.509-0.185-1.249-0.416-2.266-0.416
		c-2.913,0-4.624,2.774-4.624,6.704c0,4.115,1.711,6.612,4.531,6.612c0.878,0,1.618-0.139,2.265-0.462L125.911,425.319z"/>
	<path style="fill:#38BEE5;" d="M128.317,393.695h6.057v11.744h0.092c0.509-0.786,1.202-1.433,1.942-1.942
		c0.878-0.509,1.942-0.786,3.051-0.786c4.161,0,5.779,3.514,5.779,9.247v13.731h-6.057v-13.731c0-2.219-0.416-4.161-2.219-4.161
		c-1.017,0-1.896,0.601-2.358,2.127c-0.092,0.37-0.231,1.202-0.231,1.71v14.055h-6.057V393.695z"/>
	<path style="fill:#38BEE5;" d="M166.001,414.315c0,9.432-5.225,11.744-8.646,11.744c-5.409,0-8.646-4.254-8.646-11.605
		c0-8.137,4.254-11.744,8.738-11.744C162.764,402.71,166.001,407.195,166.001,414.315z M154.72,414.315
		c0,3.884,0.601,7.12,2.773,7.12c1.942,0,2.45-3.792,2.45-7.12c0-3.098-0.508-7.028-2.542-7.028
		C155.182,407.288,154.72,411.218,154.72,414.315z"/>
	<path style="fill:#38BEE5;" d="M169.979,394.527h6.057v26.03h7.998v5.132h-14.055V394.527z"/>
	<path style="fill:#38BEE5;" d="M197.397,425.689l-0.323-2.219h-0.093c-1.248,1.757-3.005,2.589-4.993,2.589
		c-3.422,0-5.964-2.867-5.964-6.889c0-5.918,5.224-8.368,10.356-8.415v-0.509c0-1.757-1.063-3.051-3.19-3.051
		c-1.804,0-3.283,0.462-4.624,1.294l-1.109-4.068c1.248-0.74,3.884-1.711,7.027-1.711c6.89,0,7.999,4.809,7.999,9.386v8.415
		c0,1.803,0.093,3.652,0.37,5.178H197.397z M196.565,414.685c-2.034,0.046-4.809,0.694-4.809,3.837c0,2.266,1.248,3.098,2.173,3.098
		c0.972,0,2.081-0.601,2.497-1.942c0.093-0.324,0.139-0.694,0.139-1.063V414.685z"/>
	<path style="fill:#38BEE5;" d="M206.555,425.689c0.093-1.988,0.185-4.531,0.185-6.704v-25.29h6.058v11.651h0.092
		c1.109-1.619,2.543-2.636,4.716-2.636c4.393,0,6.381,4.947,6.381,11.05c0,7.906-3.145,12.298-7.352,12.298
		c-1.896,0-3.236-0.786-4.438-3.052h-0.139l-0.323,2.682H206.555z M212.797,417.598c0,0.555,0.092,1.109,0.23,1.433
		c0.509,1.618,1.341,2.081,2.081,2.081c2.034,0,2.866-2.543,2.866-6.889c0-3.884-0.879-6.427-2.913-6.427
		c-0.925,0-1.71,0.971-2.034,2.081c-0.139,0.37-0.23,0.971-0.23,1.387V417.598z"/>
	<path style="fill:#38BEE5;" d="M227.27,420.233c0.879,0.555,2.543,1.202,4.069,1.202c1.571,0,2.45-0.694,2.45-2.035
		c0-1.156-0.647-1.896-2.636-3.051c-3.698-2.081-4.577-4.438-4.577-6.519c0-4.068,2.913-7.12,7.444-7.12
		c1.896,0,3.375,0.462,4.577,1.017l-1.063,4.438c-0.879-0.508-1.942-0.924-3.145-0.924c-1.525,0-2.265,0.924-2.265,1.942
		c0,1.017,0.508,1.572,2.635,2.82c3.329,1.896,4.577,4.254,4.577,6.843c0,4.624-3.329,7.12-7.998,7.12
		c-1.896,0-4.115-0.508-5.179-1.294L227.27,420.233z"/>
	<path style="fill:#38BEE5;" d="M241.419,423.863c0-1.156,0.855-2.011,1.78-2.011c0.971,0,1.757,0.763,1.757,2.011
		c0,1.225-0.717,2.011-1.78,2.011C242.229,425.874,241.419,425.088,241.419,423.863z"/>
	<path style="fill:#38BEE5;" d="M253.024,425.504c-0.301,0.139-1.063,0.324-1.919,0.324c-2.866,0-4.739-1.988-4.739-5.687
		c0-3.491,2.058-5.918,5.179-5.918c0.717,0,1.364,0.162,1.664,0.3l-0.393,2.381c-0.254-0.092-0.624-0.208-1.133-0.208
		c-1.456,0-2.312,1.387-2.312,3.352c0,2.058,0.855,3.306,2.266,3.306c0.438,0,0.809-0.069,1.133-0.231L253.024,425.504z"/>
	<path style="fill:#38BEE5;" d="M262.48,420.002c0,4.716-2.612,5.872-4.323,5.872c-2.704,0-4.323-2.127-4.323-5.803
		c0-4.068,2.127-5.872,4.369-5.872C260.862,414.2,262.48,416.442,262.48,420.002z M256.84,420.002c0,1.942,0.301,3.56,1.387,3.56
		c0.971,0,1.226-1.896,1.226-3.56c0-1.549-0.255-3.514-1.271-3.514C257.071,416.488,256.84,418.453,256.84,420.002z"/>
	<path style="fill:#38BEE5;" d="M264.192,417.783c0-1.248-0.069-2.334-0.093-3.398h2.636l0.139,1.318h0.046
		c0.578-0.855,1.526-1.503,2.705-1.503c1.271,0,2.08,0.578,2.474,1.526h0.046c0.277-0.439,0.693-0.855,1.133-1.133
		c0.462-0.254,1.018-0.393,1.595-0.393c2.012,0,2.913,1.595,2.913,4.323v7.167h-3.005v-6.658c0-1.294-0.139-2.335-1.063-2.335
		c-0.532,0-0.925,0.37-1.133,1.041c-0.047,0.162-0.093,0.485-0.093,0.786v7.167h-3.005v-7.097c0-0.809-0.093-1.896-1.04-1.896
		c-0.463,0-0.925,0.347-1.133,1.017c-0.069,0.208-0.116,0.532-0.116,0.855v7.12h-3.005V417.783z"/>
</g>
<g>
	<path style="fill:#38BEE5;" d="M56.137,80.58c-4.519,5.046-7.532,12.276-7.532,19.658c0,4.368,0.376,7.871,1.582,10.921h-2.146
		c-1.318-3.05-1.845-6.967-1.845-10.733c0-7.946,3.389-15.214,7.532-19.846H56.137z"/>
	<path style="fill:#38BEE5;" d="M61.521,81.258l-3.238,17.021c-0.226,1.092-0.302,2.034-0.302,2.975c0,2.109,1.167,3.239,2.75,3.239
		c2.373,0,3.653-1.732,4.443-6.063l3.276-17.172H71.2l-3.238,16.909c-1.167,6.213-3.465,8.774-7.57,8.774
		c-3.05,0-5.159-1.883-5.159-5.385c0-0.979,0.113-2.146,0.377-3.464l3.163-16.833H61.521z"/>
	<path style="fill:#38BEE5;" d="M70.86,106.64l4.82-25.382h2.598l2.599,13.708c0.489,2.561,0.941,4.934,1.243,7.268h0.075
		c0.376-2.749,0.678-5.724,1.243-8.699l2.373-12.276h2.373L83.4,106.64h-2.448l-2.674-13.218c-0.527-2.561-0.904-4.858-1.243-7.871
		h-0.075c-0.301,2.599-0.829,5.837-1.394,8.85l-2.297,12.239H70.86z"/>
	<path style="fill:#38BEE5;" d="M98.236,81.521c1.205-0.226,2.711-0.377,3.992-0.377c1.582,0,3.653,0.452,4.783,1.77
		c0.979,1.092,1.394,2.636,1.394,4.105c0,2.787-1.167,5.272-2.561,6.778c-1.582,1.732-3.954,2.561-6.025,2.561
		c-0.64,0-1.205-0.075-1.694-0.151l-1.958,10.432h-2.673L98.236,81.521z M98.575,93.874c0.452,0.113,0.866,0.15,1.469,0.15
		c3.879,0,5.574-3.841,5.574-6.703c0-2.297-0.904-3.879-3.653-3.879c-0.49,0-1.017,0.075-1.431,0.151L98.575,93.874z"/>
	<path style="fill:#38BEE5;" d="M112.922,81.521c1.28-0.226,2.674-0.377,3.992-0.377c1.996,0,3.615,0.565,4.594,1.582
		c0.941,1.017,1.431,2.372,1.431,3.954c0,3.54-2.222,6.741-5.31,7.758v0.075c1.544,0.603,2.297,2.373,2.335,5.687
		c0.075,3.502,0.226,5.648,0.414,6.439h-2.749c-0.188-0.753-0.226-3.163-0.264-6.289c-0.113-3.54-0.941-4.896-3.239-4.896h-1.205
		l-2.071,11.185h-2.674L112.922,81.521z M113.374,93.271h1.318c3.05,0,5.385-2.787,5.385-6.402c0-1.958-0.866-3.502-3.314-3.502
		c-0.565,0-1.13,0.038-1.544,0.188L113.374,93.271z"/>
	<path style="fill:#38BEE5;" d="M139.357,89.166c0,4.708-1.808,12.352-5.084,15.628c-1.431,1.469-3.05,2.146-4.745,2.146
		c-4.896,0-5.423-5.31-5.423-8.021c0-4.858,1.808-12.465,5.272-15.892c1.431-1.394,3.05-2.071,4.707-2.071
		C138.905,80.957,139.357,85.965,139.357,89.166z M131.298,84.534c-2.824,2.824-4.368,10.469-4.368,14.235
		c0,2.146,0.113,5.724,3.013,5.724c0.828,0,1.582-0.414,2.297-1.092c2.938-2.975,4.255-11.297,4.255-14.16
		c0-3.013-0.188-5.837-2.824-5.837C132.805,83.404,132.014,83.818,131.298,84.534z"/>
	<path style="fill:#38BEE5;" d="M142.67,106.64l2.071-10.733l-2.749-14.649h2.9l1.205,7.456c0.264,1.996,0.414,3.578,0.489,4.595
		h0.076c0.715-1.431,1.355-2.862,2.222-4.557l4.105-7.494h2.937l-8.51,14.611l-2.034,10.771H142.67z"/>
	<path style="fill:#38BEE5;" d="M164.7,94.514h-6.251l-1.846,9.678h7.155l-0.489,2.448h-9.829l4.82-25.382h9.377l-0.452,2.41h-6.666
		l-1.656,8.511h6.289L164.7,94.514z"/>
	<path style="fill:#38BEE5;" d="M177.314,106.301c-0.791,0.376-1.958,0.565-3.352,0.565c-5.272,0-6.553-4.708-6.553-8.812
		c0-5.009,1.394-10.507,4.783-13.972c2.146-2.184,4.632-3.05,6.816-3.05c1.129,0,2.184,0.226,2.522,0.452l-0.791,2.41
		c-0.526-0.226-1.242-0.339-2.033-0.339c-1.732,0-3.427,0.866-4.707,2.335c-2.26,2.711-3.729,7.118-3.729,11.411
		c0,4.18,1.017,7.08,4.293,7.08c1.017,0,1.996-0.226,2.599-0.489L177.314,106.301z"/>
	<path style="fill:#38BEE5;" d="M187.217,83.781h-4.594l0.489-2.523h11.862l-0.489,2.523h-4.557l-4.331,22.859h-2.711
		L187.217,83.781z"/>
	<path style="fill:#38BEE5;" d="M208.117,89.166c0,4.708-1.808,12.352-5.084,15.628c-1.431,1.469-3.051,2.146-4.745,2.146
		c-4.896,0-5.423-5.31-5.423-8.021c0-4.858,1.808-12.465,5.272-15.892c1.431-1.394,3.05-2.071,4.707-2.071
		C207.665,80.957,208.117,85.965,208.117,89.166z M200.059,84.534c-2.825,2.824-4.369,10.469-4.369,14.235
		c0,2.146,0.113,5.724,3.013,5.724c0.829,0,1.582-0.414,2.298-1.092c2.938-2.975,4.255-11.297,4.255-14.16
		c0-3.013-0.188-5.837-2.824-5.837C201.564,83.404,200.773,83.818,200.059,84.534z"/>
	<path style="fill:#38BEE5;" d="M218.924,81.521c1.167-0.226,2.485-0.377,3.803-0.377c2.674,0,4.557,0.979,5.687,2.486
		c1.205,1.582,1.657,3.653,1.657,6.176c0,5.95-2.335,11.863-5.084,14.386c-2.071,1.92-4.481,2.561-7.042,2.561
		c-1.431,0-2.749-0.113-3.729-0.376L218.924,81.521z M217.267,104.267c0.339,0.038,0.903,0.113,1.431,0.113
		c1.883,0,3.729-0.903,5.348-3.05c1.808-2.373,3.201-7.08,3.201-11.674c0-3.917-1.431-6.214-4.595-6.214
		c-0.715,0-1.092,0.038-1.431,0.113L217.267,104.267z"/>
	<path style="fill:#38BEE5;" d="M241.895,94.514h-6.251l-1.846,9.678h7.155l-0.489,2.448h-9.829l4.82-25.382h9.377l-0.452,2.41
		h-6.665l-1.657,8.511h6.289L241.895,94.514z"/>
	<path style="fill:#38BEE5;" d="M241.027,111.159c4.481-5.046,7.531-12.314,7.531-19.695c0-4.369-0.339-7.871-1.544-10.883h2.185
		c1.28,3.05,1.77,6.967,1.77,10.695c0,7.946-3.352,15.252-7.456,19.884H241.027z"/>
</g>
</svg>
