<?xml version="1.0" standalone="no"?>
<!DOCTYPE svg PUBLIC "-//W3C//DTD SVG 20010904//EN"
 "http://www.w3.org/TR/2001/REC-SVG-20010904/DTD/svg10.dtd">
<svg version="1.0" xmlns="http://www.w3.org/2000/svg"
 width="1800.000000pt" height="1800.000000pt" viewBox="0 0 1800.000000 1800.000000"
 preserveAspectRatio="xMidYMid meet">
<metadata>
Created by potrace 1.11, written by Peter Selinger 2001-2013
</metadata>
<g transform="translate(0.000000,1800.000000) scale(0.100000,-0.100000)"
fill="#000000" stroke="none">
<path d="M7928 17065 c-2 -2 -68 -6 -148 -10 -189 -9 -325 -19 -410 -30 -19
-3 -57 -7 -85 -10 -27 -3 -61 -8 -75 -10 -14 -2 -45 -7 -70 -10 -25 -3 -83
-13 -130 -21 -47 -9 -94 -17 -105 -19 -57 -7 -244 -51 -345 -81 -487 -142
-1011 -407 -1429 -723 -40 -31 -85 -65 -100 -76 -29 -22 -119 -94 -137 -110
-6 -5 -40 -35 -75 -65 -164 -140 -516 -509 -644 -674 -16 -21 -34 -44 -40 -50
-5 -6 -30 -38 -54 -71 -25 -33 -47 -62 -50 -65 -3 -3 -17 -21 -31 -40 -225
-320 -373 -566 -532 -885 -17 -33 -37 -73 -45 -88 -14 -26 -13 -29 17 -63 39
-45 28 -66 -32 -62 l-40 3 -64 -150 c-155 -359 -290 -721 -400 -1074 l-56
-180 21 -22 c12 -13 21 -26 21 -30 0 -13 -31 -39 -45 -39 -16 0 -32 -25 -39
-61 -2 -13 -20 -82 -40 -154 -19 -71 -37 -141 -40 -155 -2 -14 -16 -72 -30
-130 -13 -58 -27 -116 -30 -130 -3 -14 -23 -115 -45 -225 -37 -187 -47 -243
-57 -305 -6 -36 -14 -82 -18 -105 -2 -11 -6 -41 -10 -66 -4 -25 -9 -57 -11
-70 -2 -13 -11 -76 -20 -139 -8 -63 -18 -133 -21 -155 -3 -22 -7 -56 -9 -75
-2 -19 -8 -80 -14 -135 -19 -168 -20 -177 -27 -260 -3 -44 -7 -96 -9 -115 -4
-36 -13 -161 -20 -285 -26 -434 -26 -1199 0 -1685 7 -141 16 -277 20 -325 3
-27 7 -79 10 -115 16 -207 43 -473 70 -690 24 -193 27 -219 40 -310 2 -14 7
-45 10 -70 3 -25 8 -56 10 -70 2 -14 7 -45 10 -70 3 -25 12 -76 20 -115 8 -38
16 -83 19 -100 12 -77 76 -372 121 -558 2 -10 7 -27 10 -37 3 -10 7 -27 9 -37
35 -174 209 -729 324 -1030 l58 -152 29 23 c25 20 33 22 55 13 41 -18 80 -47
80 -62 0 -17 -61 -45 -100 -45 -26 0 -31 -3 -26 -17 84 -217 335 -714 479
-947 7 -11 27 -43 44 -72 25 -40 37 -51 52 -47 24 6 84 -24 78 -40 -2 -7 -13
-16 -25 -22 -12 -5 -22 -13 -22 -17 0 -26 281 -406 429 -580 79 -93 94 -106
109 -97 14 9 29 6 67 -12 60 -29 69 -54 26 -72 l-31 -13 94 -95 c225 -227 517
-481 525 -456 8 26 56 67 78 67 35 0 93 -32 93 -51 0 -24 -36 -48 -82 -56 -21
-3 -38 -8 -38 -12 1 -16 260 -190 439 -293 87 -51 369 -190 409 -202 18 -6 22
-4 22 13 0 12 15 37 33 57 l32 35 47 -16 c84 -29 89 -63 13 -96 -25 -11 -49
-17 -54 -14 -5 3 -12 1 -16 -5 -3 -5 7 -12 22 -16 15 -4 33 -10 38 -14 8 -5
100 -42 115 -46 3 0 12 -3 20 -7 132 -52 533 -160 750 -201 14 -3 50 -9 80
-15 64 -12 98 -18 160 -26 25 -3 56 -8 70 -10 14 -2 50 -7 80 -10 30 -3 66 -8
80 -10 14 -2 59 -7 100 -10 41 -4 93 -8 115 -10 196 -18 623 -22 870 -9 242
13 676 8 1050 -11 661 -33 1265 -26 1585 20 14 2 50 6 80 10 102 13 350 66
468 101 257 75 471 170 710 313 647 389 1194 939 1665 1675 354 552 646 1172
935 1986 51 144 190 593 207 670 2 8 17 67 34 130 17 63 33 126 36 140 3 14
10 41 15 60 10 35 65 274 74 320 3 14 8 39 11 55 5 26 12 58 21 100 18 80 89
480 109 615 2 14 6 43 9 65 4 22 9 58 11 79 3 22 7 51 9 65 8 49 15 106 21
161 4 30 8 66 10 80 4 28 15 135 20 189 3 41 15 159 20 211 2 19 7 80 10 135
4 55 8 125 10 155 26 378 26 1162 0 1555 -10 155 -17 247 -20 281 -2 22 -7 75
-10 119 -3 44 -8 91 -10 105 -2 14 -7 54 -10 90 -3 36 -8 76 -10 90 -2 14 -7
52 -10 85 -3 33 -8 75 -11 93 -2 17 -6 47 -8 65 -8 61 -19 132 -22 151 -2 11
-8 54 -14 96 -6 42 -12 86 -14 97 -3 11 -7 38 -11 59 -6 43 -8 51 -30 177 -14
85 -59 316 -71 366 -4 20 -11 6 -35 -63 -44 -131 -83 -202 -157 -285 -107
-120 -232 -243 -313 -307 l-75 -59 12 -65 c7 -36 15 -85 18 -110 3 -25 8 -56
11 -70 6 -30 14 -90 20 -150 3 -25 8 -63 11 -85 11 -76 13 -90 19 -150 9 -85
13 -120 20 -200 3 -38 8 -90 10 -115 3 -25 7 -83 10 -130 3 -47 7 -107 10
-135 23 -297 24 -1143 0 -1425 -1 -19 -6 -87 -10 -150 -4 -63 -9 -128 -11
-145 -2 -16 -6 -64 -9 -105 -11 -128 -28 -284 -50 -445 -9 -60 -17 -123 -19
-140 -4 -25 -32 -205 -52 -320 -15 -94 -68 -362 -86 -435 -11 -47 -22 -96 -24
-108 -7 -38 -104 -414 -115 -447 -5 -16 -25 -82 -43 -145 -19 -63 -53 -171
-75 -239 -23 -68 -41 -128 -41 -134 0 -6 -11 -38 -24 -71 -13 -34 -26 -77 -29
-96 -10 -71 -170 -495 -197 -524 -5 -5 -8 36 -6 91 3 148 -11 277 -37 342 -23
55 -139 222 -193 276 -15 15 -73 57 -128 93 -295 190 -334 218 -422 306 -100
100 -142 168 -236 376 -96 211 -184 486 -204 642 -3 24 -9 59 -13 78 -11 50
-10 269 0 307 11 38 21 42 130 48 46 3 102 7 124 10 22 3 65 7 95 10 30 3 66
7 80 10 14 2 45 7 70 10 152 19 202 54 235 167 23 82 64 141 186 272 97 104
129 190 125 330 -4 96 -26 140 -85 171 -25 13 -107 74 -181 137 -75 62 -187
156 -250 208 -62 52 -141 118 -175 146 -93 78 -104 116 -74 260 11 58 28 77
79 93 152 45 199 69 306 152 139 107 268 236 320 319 168 267 202 334 253 491
55 173 83 308 97 471 7 76 6 78 -18 87 -25 9 -169 7 -218 -4 -14 -3 -38 -8
-53 -10 -96 -18 -324 -120 -592 -265 -173 -93 -320 -223 -385 -338 -8 -15 -17
-29 -20 -32 -3 -3 -15 -23 -26 -45 -26 -47 -64 -78 -86 -70 -8 3 -21 17 -29
31 -11 21 -11 29 1 47 7 12 27 47 43 77 88 162 50 133 502 385 110 61 237 133
282 159 72 41 232 108 333 138 19 5 40 13 45 17 6 5 40 20 78 34 74 30 92 38
287 126 234 107 396 231 608 463 75 83 117 165 152 302 29 116 42 284 26 356
-3 14 -9 41 -12 60 -15 90 -104 325 -160 420 -18 30 -49 71 -69 90 -45 43 -80
110 -90 170 -3 25 -9 59 -11 75 -3 17 -7 44 -9 60 -4 27 -16 89 -29 152 -21
98 -97 328 -149 451 -56 131 -94 188 -156 231 l-34 24 6 -64 c8 -80 10 -89 58
-286 39 -161 55 -288 37 -299 -14 -9 -36 14 -111 116 -67 92 -93 120 -109 120
-25 0 -38 -86 -23 -160 3 -14 8 -38 10 -53 10 -54 42 -125 98 -215 78 -125
140 -252 189 -380 43 -116 43 -116 53 -248 4 -49 9 -98 11 -109 6 -33 5 -286
-1 -345 -14 -117 -43 -189 -101 -246 -39 -38 -64 -42 -89 -17 -32 31 -39 74
-50 288 -13 244 -28 337 -85 530 -12 39 -23 77 -25 85 -4 18 -43 144 -55 180
-5 14 -36 113 -70 220 -171 546 -214 662 -360 976 -25 55 -56 100 -97 142 -61
65 -98 81 -88 40 13 -58 34 -155 39 -178 2 -14 25 -110 51 -215 78 -324 144
-605 170 -730 31 -147 70 -298 135 -515 57 -191 87 -312 96 -390 3 -30 8 -58
10 -62 5 -8 5 -300 0 -343 -2 -16 -6 -61 -10 -98 -7 -64 -11 -72 -59 -125
-137 -153 -247 -252 -282 -252 -33 0 -70 33 -94 86 -40 85 -54 209 -55 491 -1
177 -3 204 -18 219 -18 18 -35 14 -83 -20 -52 -37 -79 8 -252 429 -197 476
-255 612 -289 668 -19 32 -34 61 -34 65 0 4 -11 21 -25 37 -19 23 -24 26 -25
12 -1 -51 147 -671 206 -864 20 -65 40 -131 44 -148 4 -16 42 -128 84 -247 69
-201 127 -406 140 -503 24 -172 13 -379 -22 -418 -25 -29 -246 -174 -321 -212
-111 -55 -284 -118 -331 -120 -37 -1 -65 13 -83 44 -14 25 -23 63 -42 196 -4
22 -8 51 -10 65 -3 14 -7 43 -10 65 -3 22 -13 78 -21 125 -8 47 -18 99 -20
115 -3 17 -28 140 -54 274 -44 220 -52 247 -77 273 -25 26 -73 58 -87 58 -6 0
0 -102 9 -170 2 -19 7 -64 10 -100 3 -36 7 -81 9 -100 3 -19 7 -64 11 -100 3
-36 8 -81 10 -100 2 -19 7 -69 11 -110 3 -41 8 -88 9 -105 2 -16 6 -75 10
-130 4 -55 8 -120 10 -145 3 -39 14 -333 19 -547 1 -39 -1 -80 -5 -90 -4 -10
-31 -32 -60 -48 -50 -27 -62 -29 -149 -29 -128 1 -528 15 -549 19 -59 11 -114
50 -227 160 -108 106 -191 230 -209 315 -8 35 -8 118 -1 155 28 145 29 1174 1
1326 -12 65 -32 103 -59 112 -23 8 -32 6 -47 -10 -22 -21 -25 -40 -34 -198 -3
-60 -8 -137 -10 -170 -7 -89 -14 -196 -20 -320 -7 -142 -16 -269 -20 -275 -2
-3 -6 -23 -9 -44 -9 -57 -68 -174 -114 -227 -49 -56 -121 -96 -189 -104 -58
-8 -113 7 -296 81 -300 122 -732 402 -946 613 -112 110 -157 164 -188 224 -21
43 -24 60 -22 145 1 53 7 121 15 152 11 50 20 62 101 139 48 46 133 123 188
170 55 47 102 88 105 91 10 11 217 168 287 218 100 71 242 152 410 233 78 38
144 69 147 69 6 0 176 80 261 122 33 17 131 66 217 109 87 44 160 79 162 79 9
0 268 128 316 156 25 15 83 49 130 77 47 27 99 58 115 67 250 143 405 258 435
324 41 91 35 94 -120 60 -21 -4 -315 -123 -385 -155 -11 -5 -147 -52 -303
-104 -302 -101 -536 -190 -1097 -413 -192 -76 -362 -142 -377 -146 l-28 -6 26
67 c49 130 117 319 157 438 41 124 53 227 34 299 -13 47 1 69 -327 -489 -26
-44 -110 -191 -188 -326 -78 -135 -153 -256 -166 -268 l-24 -22 -10 28 c-19
56 82 400 168 575 119 241 230 379 615 763 269 269 304 308 339 375 21 41 52
94 67 118 30 45 59 97 59 107 0 26 -122 -36 -240 -122 -41 -30 -181 -131 -310
-225 -129 -94 -250 -177 -269 -185 -19 -8 -53 -15 -75 -15 -41 0 -133 26 -151
43 -14 14 -42 11 -49 -6 -3 -8 -8 -52 -11 -97 -13 -194 -21 -221 -117 -385
-41 -71 -89 -159 -107 -198 -43 -90 -275 -799 -306 -931 -2 -10 -9 -37 -14
-59 -6 -22 -13 -65 -17 -95 -3 -30 -8 -57 -9 -60 -20 -34 -24 -599 -6 -705 14
-80 63 -190 112 -255 19 -25 59 -80 88 -124 59 -87 69 -100 126 -165 62 -70
130 -131 214 -191 67 -48 390 -243 556 -335 30 -17 60 -36 67 -43 7 -7 16 -12
20 -12 5 0 36 -17 71 -38 108 -65 240 -130 322 -157 147 -49 268 -138 575
-425 58 -53 123 -113 144 -132 43 -38 42 -49 -6 -74 -47 -24 -126 -28 -197
-10 -74 19 -102 37 -196 128 -221 212 -483 344 -824 413 -82 17 -235 68 -320
107 -52 24 -112 26 -146 4 -28 -18 -25 -63 11 -168 22 -65 29 -99 49 -243 3
-22 7 -53 10 -70 2 -16 7 -52 11 -80 18 -147 74 -340 127 -435 111 -201 321
-367 652 -516 34 -15 206 -70 247 -78 40 -9 55 -30 62 -88 3 -29 9 -80 13
-113 15 -120 7 -224 -26 -364 -35 -145 -66 -304 -75 -391 -4 -30 -9 -66 -11
-80 -2 -14 -7 -68 -10 -121 -3 -53 -7 -105 -9 -115 -2 -10 -7 -55 -10 -99 -4
-44 -9 -96 -11 -115 -2 -19 -7 -66 -10 -105 -3 -38 -8 -92 -10 -120 -14 -131
-21 -477 -11 -535 3 -14 7 -79 11 -145 3 -66 8 -145 10 -175 2 -30 6 -111 10
-180 3 -69 8 -156 10 -195 3 -38 7 -126 10 -194 3 -68 6 -126 7 -130 5 -40
-11 -70 -87 -167 -130 -167 -158 -231 -171 -389 -3 -38 -8 -88 -10 -110 -9
-90 -11 -596 -3 -670 5 -43 21 -136 35 -205 43 -212 42 -204 49 -268 4 -30 13
-78 21 -108 23 -88 24 -89 -76 30 -30 36 -182 209 -190 216 -3 3 -9 13 -15 22
-5 9 -40 62 -77 116 -148 219 -350 601 -464 875 -62 149 -78 188 -105 262 -89
236 -173 497 -238 735 -34 125 -105 414 -117 475 -2 11 -8 43 -14 70 -14 70
-17 84 -56 290 -2 11 -6 31 -9 45 -2 14 -7 45 -10 70 -3 25 -8 52 -10 60 -4
18 -9 48 -35 230 -10 74 -21 162 -25 195 -7 72 -14 137 -20 185 -10 74 -19
189 -40 485 -25 350 -25 1155 0 1445 2 25 6 90 10 145 3 55 7 116 10 135 2 19
7 67 10 105 7 75 8 87 25 240 11 101 18 160 25 205 2 14 6 48 10 75 3 28 8 61
10 75 9 64 18 117 21 135 3 11 6 36 9 55 3 19 7 46 10 60 3 14 14 77 25 140
11 63 24 130 29 147 9 31 6 37 -42 95 -28 35 -54 65 -58 68 -3 3 -33 46 -67
95 -34 50 -78 113 -98 140 -53 75 -101 174 -131 272 -26 87 -27 93 -27 378 -1
460 15 573 139 970 30 99 62 196 70 215 7 19 37 109 66 200 67 213 149 396
246 547 46 73 52 91 58 191 3 48 8 98 10 112 3 14 7 41 10 60 9 53 52 122 95
154 22 17 46 31 52 33 7 1 29 6 49 11 48 12 90 6 162 -23 l60 -24 36 28 c112
88 587 424 651 460 41 23 99 49 130 56 215 54 483 115 488 111 6 -7 -240 -505
-276 -559 -16 -23 -39 -62 -52 -87 -54 -103 -113 -177 -253 -316 l-148 -147 7
-46 c13 -86 15 -87 64 -23 104 133 300 338 435 454 244 210 574 385 835 442
150 33 216 40 365 40 254 1 471 -52 720 -174 219 -107 414 -252 628 -465 l60
-60 -7 35 c-4 19 -9 44 -12 55 -5 26 -23 114 -28 140 -3 11 -9 39 -14 62 -11
47 -16 47 83 -3 33 -17 139 -70 235 -119 139 -70 185 -98 223 -138 97 -100
128 -148 185 -277 57 -129 102 -240 102 -250 0 -7 6 -10 13 -7 6 2 12 8 12 13
1 22 17 35 30 24 11 -9 13 -7 10 12 -2 13 -6 64 -10 113 -9 127 -14 190 -21
268 -3 37 -3 67 0 67 7 0 262 -131 363 -187 50 -27 61 -30 56 -16 -9 24 -190
380 -238 468 -209 382 -506 809 -772 1112 -155 176 -423 436 -593 573 -30 25
-57 47 -60 50 -14 15 -198 146 -290 207 -291 192 -488 290 -770 383 -211 70
-466 130 -620 146 -25 3 -51 7 -58 9 -33 12 -237 20 -447 18 -584 -4 -1052 -4
-1185 1 -80 3 -217 9 -305 12 -88 3 -218 7 -290 10 -151 6 -1033 13 -1037 9z
m3167 -314 c-11 -5 -72 -29 -135 -54 -327 -128 -374 -142 -475 -142 -131 0
-259 18 -295 40 -38 24 111 72 305 99 22 4 51 8 65 11 36 6 86 13 155 20 33 4
71 8 85 11 14 2 66 7 115 10 50 4 91 7 92 9 2 1 26 2 55 3 38 1 47 -1 33 -7z
m-4415 -133 c-455 -202 -814 -458 -1207 -858 -78 -80 -151 -153 -161 -163
-170 -157 -211 -210 -357 -467 -181 -317 -252 -408 -361 -461 -58 -29 -70 -31
-127 -26 -65 6 -124 30 -192 78 -51 35 -95 74 -95 84 0 12 103 154 202 277
243 303 556 605 868 837 72 54 317 221 324 221 2 0 45 26 97 57 177 107 462
242 689 326 157 58 401 131 320 95z m868 -63 c33 -51 30 -91 -9 -111 -43 -22
-125 -27 -183 -11 -88 23 -88 63 -1 103 30 14 65 27 77 30 13 2 37 8 53 13 17
5 32 10 35 10 3 0 15 -15 28 -34z m2682 -202 c0 -8 -73 -77 -144 -137 -161
-136 -392 -260 -546 -291 -8 -2 -15 -4 -15 -5 0 -2 -10 -4 -115 -24 -47 -9
-110 -19 -140 -22 -30 -2 -77 -6 -105 -9 -27 -3 -121 -7 -209 -11 l-158 -6 30
45 c139 201 384 315 822 382 52 8 118 17 145 20 28 4 61 8 75 10 14 2 52 7 85
11 33 3 67 8 76 9 9 2 39 6 66 10 28 3 63 10 79 14 32 8 54 10 54 4z m-3329
-130 c73 -34 109 -71 109 -115 0 -22 -14 -43 -62 -91 -174 -172 -255 -225
-353 -231 -105 -6 -158 43 -150 139 11 130 169 296 305 320 19 3 36 8 39 10 8
9 47 -3 112 -32z m1318 -210 c-19 -23 -85 -83 -152 -138 -77 -64 -233 -132
-365 -160 -74 -15 -227 -13 -290 4 -39 11 -41 13 -31 33 21 39 100 117 146
143 84 50 217 83 393 100 57 5 92 9 165 20 11 1 43 6 70 10 28 4 52 9 54 11 2
2 11 4 18 4 10 0 8 -8 -8 -27z m-2114 -382 c28 -16 69 -46 93 -67 152 -130
126 -261 -105 -542 -17 -21 -72 -30 -165 -28 -128 3 -190 42 -214 135 -19 76
-6 139 55 256 50 97 226 272 276 274 6 1 33 -12 60 -28z m3316 -28 c-15 -26
-39 -66 -51 -88 -89 -151 -236 -300 -372 -374 -109 -60 -269 -109 -413 -126
-27 -3 -61 -8 -75 -10 -14 -3 -65 -7 -115 -10 -49 -4 -112 -8 -140 -10 -27 -2
-110 -7 -183 -10 l-133 -7 29 58 c127 251 370 424 725 515 86 22 86 22 157 35
25 4 47 8 50 9 3 1 32 5 65 10 33 5 62 9 65 10 3 1 34 5 70 9 36 4 76 9 90 11
14 3 54 7 89 10 36 3 66 7 68 8 1 2 25 4 53 6 l50 2 -29 -48z m-1983 -248 c40
-8 55 -35 55 -100 0 -63 -26 -116 -90 -182 -91 -96 -280 -197 -408 -220 -16
-2 -49 -8 -72 -13 -72 -13 -167 -1 -208 26 -61 40 -62 113 -3 188 151 194 520
347 726 301z m-1953 -548 c181 -122 243 -262 194 -440 -11 -40 -57 -146 -102
-236 l-82 -163 -68 6 c-73 7 -151 33 -201 67 -191 131 -137 515 111 778 53 56
45 57 148 -12z m3345 -14 c0 -5 -16 -35 -36 -68 -50 -82 -82 -141 -186 -345
-50 -96 -94 -179 -98 -183 -4 -5 -18 -3 -31 3 -27 15 -159 20 -226 9 -122 -19
-161 -29 -438 -104 -267 -72 -365 -66 -365 22 0 43 40 163 75 225 60 107 177
207 312 266 71 31 230 76 308 87 22 4 67 10 100 15 60 10 96 14 190 25 102 11
141 16 175 20 19 3 55 8 80 10 25 3 61 10 80 14 47 12 60 12 60 4z m-4699
-192 c249 -164 283 -324 138 -639 -62 -134 -76 -164 -94 -206 -22 -49 -64
-171 -68 -193 -5 -36 -16 -40 -94 -38 -306 6 -413 228 -291 605 36 114 135
299 207 390 48 61 113 130 121 130 4 0 41 -22 81 -49z m2815 -138 c-8 -71 -29
-158 -45 -192 -5 -9 -18 -38 -31 -66 -37 -85 -86 -158 -147 -220 -106 -110
-176 -144 -300 -151 -34 -2 -95 -13 -135 -25 -40 -12 -101 -23 -136 -23 -55
-1 -66 2 -82 22 -33 40 -10 120 81 278 25 45 51 103 58 129 37 148 150 216
401 240 98 10 261 34 295 44 17 5 34 10 38 10 5 1 6 -20 3 -46z m1457 -505
c-146 -342 -243 -595 -349 -916 -52 -156 -96 -291 -97 -300 -2 -9 -11 -42 -20
-72 -81 -263 -240 -928 -271 -1131 -3 -20 -8 -42 -10 -50 -3 -8 -8 -32 -11
-54 -3 -22 -14 -89 -25 -150 -21 -123 -26 -151 -35 -215 -10 -65 -14 -91 -19
-125 -4 -27 -27 -201 -41 -310 -8 -60 -25 -213 -30 -275 -3 -30 -8 -73 -10
-95 -2 -22 -7 -71 -10 -110 -3 -38 -8 -89 -10 -112 -3 -23 2 -74 9 -115 14
-70 15 -244 2 -297 -55 -227 -234 -396 -566 -536 -36 -15 -78 -33 -95 -40 -35
-15 -292 -107 -350 -125 -22 -7 -44 -16 -50 -20 -19 -14 -54 -18 -58 -6 -12
32 -15 359 -4 461 10 94 54 247 90 315 39 72 100 152 143 187 95 76 239 142
351 159 48 7 168 73 250 136 126 97 81 156 -112 145 -55 -4 -116 -9 -135 -12
-99 -17 -241 -63 -327 -106 -91 -45 -98 -47 -115 -32 -71 64 -107 224 -78 348
5 22 11 51 14 65 16 84 88 238 160 343 145 212 356 376 549 428 50 13 88 35
182 105 140 105 187 167 151 202 -35 35 -221 13 -431 -50 -38 -12 -72 -22 -75
-23 -3 -1 -14 -5 -25 -9 -11 -4 -45 -17 -75 -28 -75 -28 -131 -53 -223 -99
l-77 -39 4 42 c3 24 8 72 12 108 3 36 8 72 9 80 1 8 6 35 10 60 46 280 150
516 299 678 118 127 254 208 461 277 205 68 335 165 335 250 0 8 -13 29 -29
47 -28 31 -31 32 -112 32 -101 0 -191 -25 -329 -91 -174 -83 -232 -93 -268
-48 -37 47 -19 140 74 374 30 75 61 163 69 196 65 255 233 366 665 440 52 9
106 18 120 21 14 2 43 7 65 10 154 24 327 77 425 132 30 17 56 31 57 31 0 1
-15 -36 -34 -81z m-3416 -217 c206 -165 243 -364 138 -729 -14 -48 -46 -161
-73 -252 l-47 -165 -59 -1 c-167 -3 -300 89 -348 240 -53 168 -44 388 24 604
12 37 22 72 24 77 7 34 90 191 134 253 l51 73 49 -27 c28 -15 76 -48 107 -73z
m-1332 -376 c111 -181 155 -266 182 -360 12 -40 6 -111 -16 -170 -18 -51 -37
-138 -57 -270 -2 -16 -6 -41 -9 -55 -2 -14 -7 -43 -10 -65 -5 -35 -23 -141
-29 -170 -29 -134 -74 -237 -118 -269 -54 -39 -128 -13 -219 76 -30 29 -66 59
-81 67 -15 8 -52 36 -82 63 -56 49 -109 140 -121 203 -21 113 8 275 81 450 42
104 166 373 199 435 40 75 124 299 125 335 1 11 21 -20 44 -70 24 -49 74 -139
111 -200z m2925 119 c0 -23 -5 -34 -14 -34 -39 0 -96 -134 -152 -358 -54 -213
-78 -289 -114 -362 -58 -115 -132 -182 -251 -225 -223 -81 -272 -96 -318 -97
-174 -1 -178 147 -13 567 19 50 58 155 87 234 30 82 59 145 66 147 8 1 70 16
139 33 117 30 320 78 365 87 11 2 58 14 105 27 47 13 88 22 93 20 4 -2 7 -20
7 -39z m-2036 -1368 c85 -112 157 -260 186 -381 36 -145 33 -334 -7 -490 l-28
-110 -77 2 c-157 3 -295 99 -378 262 -61 121 -85 365 -54 561 17 106 80 304
115 364 l23 39 80 -84 c45 -47 108 -120 140 -163z m-1470 -106 c27 -30 92 -98
144 -150 169 -168 231 -251 274 -363 27 -70 30 -183 8 -267 -11 -41 -16 -83
-13 -113 9 -84 -5 -157 -37 -188 -53 -54 -115 -29 -332 133 -73 55 -145 106
-159 114 -26 13 -27 12 -35 -14 -22 -82 -3 -172 60 -279 38 -64 57 -91 191
-275 115 -158 108 -147 160 -253 76 -156 86 -281 31 -415 -17 -44 -22 -70 -18
-98 4 -20 7 -71 7 -113 0 -62 -4 -81 -19 -98 -25 -28 -68 -27 -132 3 -47 22
-271 185 -332 242 -31 28 -45 30 -66 8 -35 -35 -34 -107 5 -189 12 -27 25 -52
28 -55 3 -3 22 -28 41 -56 19 -28 49 -68 65 -89 17 -21 50 -64 75 -95 25 -31
59 -74 75 -95 185 -234 260 -428 225 -581 -7 -29 -5 -55 5 -95 19 -71 19 -119
-1 -148 -33 -47 -120 -14 -341 132 -136 89 -189 117 -210 110 -19 -7 -16 -48
8 -101 19 -43 135 -240 149 -252 3 -3 10 -14 17 -25 6 -11 46 -75 88 -142 225
-360 342 -624 372 -843 3 -19 8 -53 12 -75 4 -22 6 -102 5 -178 -2 -109 1
-148 15 -190 25 -76 27 -133 4 -145 -33 -17 -61 -10 -233 66 -111 49 -248 66
-298 38 -23 -12 -21 -15 80 -101 297 -257 496 -498 588 -715 24 -55 65 -179
62 -187 0 -2 4 -17 9 -35 14 -51 29 -223 21 -246 -4 -11 -29 -12 -126 -6 -189
12 -311 10 -330 -5 -25 -21 -19 -54 19 -98 48 -56 152 -133 180 -133 41 0 161
-69 228 -131 65 -59 180 -202 208 -257 7 -15 18 -34 24 -42 26 -34 87 -186
104 -258 44 -183 -3 -279 -134 -275 -60 2 -77 6 -239 62 -165 57 -244 124
-329 281 -32 57 -103 228 -113 270 -2 8 -10 40 -19 70 -27 95 -108 437 -122
515 -3 17 -21 82 -40 145 -45 146 -90 326 -117 470 -70 360 -76 395 -81 430
-14 94 -25 168 -29 185 -2 11 -7 43 -10 70 -4 28 -9 61 -11 75 -4 23 -7 50
-20 160 -8 69 -17 143 -20 160 -1 8 -6 50 -10 92 -3 43 -8 90 -10 106 -2 15
-6 66 -10 112 -3 47 -8 101 -10 120 -4 36 -14 184 -20 305 -2 39 -8 133 -12
210 -13 235 -5 1637 11 1790 2 17 6 61 10 98 4 37 9 76 11 85 1 9 6 37 9 62 6
47 11 75 22 125 8 35 10 55 18 185 4 52 9 111 11 130 2 19 7 62 10 95 9 97 15
158 20 185 2 14 7 50 10 80 11 94 54 338 86 485 17 77 33 149 35 160 2 11 20
81 39 155 20 74 38 144 40 155 2 11 10 40 16 64 l12 44 21 -29 c12 -16 43 -54
70 -84z m2903 -252 c-6 -250 -9 -280 -39 -393 -53 -204 -158 -318 -335 -363
-37 -10 -106 -37 -153 -60 -125 -62 -179 -64 -215 -8 -33 50 -22 201 29 406 9
36 18 74 20 85 3 11 9 41 15 68 6 26 14 64 17 85 4 20 8 44 9 52 2 8 4 29 4
46 1 26 7 34 34 44 17 7 46 19 64 26 17 8 34 14 38 14 3 0 25 8 48 18 23 10
98 41 167 68 68 26 160 67 205 90 44 23 84 42 89 43 5 0 6 -97 3 -221z m-1865
-945 c314 -302 428 -465 460 -659 13 -77 1 -113 -50 -152 -76 -58 -188 -25
-302 88 -165 164 -270 397 -265 587 2 59 8 85 34 138 18 36 37 65 43 65 5 0
42 -30 80 -67z m1725 -388 c19 -83 22 -207 7 -288 -40 -209 -214 -377 -451
-433 -85 -21 -127 -12 -195 39 -141 106 -99 284 112 483 122 115 328 231 445
251 17 3 32 7 35 9 16 16 35 -8 47 -61z m-1681 -921 c323 -339 397 -476 390
-728 -4 -133 -7 -136 -109 -131 -241 13 -446 237 -531 580 -33 136 -37 282
-11 410 26 122 28 124 76 68 23 -27 106 -116 185 -199z m1587 -226 c113 -226
70 -489 -110 -675 -113 -116 -249 -176 -426 -187 -68 -4 -73 1 -105 99 -31 92
-41 196 -28 285 19 124 110 261 246 365 92 71 320 184 371 185 10 0 30 -27 52
-72z m1690 -368 c1 -75 -3 -92 -31 -151 -39 -81 -115 -160 -225 -233 -90 -59
-128 -80 -322 -181 -153 -80 -250 -141 -323 -202 l-53 -46 -29 28 c-41 39 -83
140 -83 196 2 142 134 267 442 420 77 38 143 69 146 69 4 0 30 11 58 24 247
116 308 147 352 174 l50 31 9 -22 c5 -12 9 -60 9 -107z m11 -635 c29 -194 28
-401 -4 -539 -49 -218 -224 -413 -520 -583 -48 -26 -113 -74 -145 -106 -67
-64 -143 -107 -191 -107 -101 0 -163 155 -169 420 -3 121 -1 143 21 212 30 93
75 163 164 249 76 74 154 127 420 289 196 118 260 164 349 247 l56 51 6 -46
c4 -26 9 -65 13 -87z m-3319 -24 c161 -122 240 -193 308 -274 116 -139 156
-257 149 -445 -2 -39 -4 -43 -34 -49 -18 -4 -35 -7 -38 -6 -3 1 -20 3 -38 6
-53 9 -160 63 -231 119 -298 235 -432 554 -309 742 26 40 3 51 193 -93z m1669
-135 c28 -67 36 -193 16 -266 -38 -144 -175 -288 -390 -412 -98 -56 -139 -78
-148 -78 -19 0 -95 88 -119 138 -51 107 -18 217 101 338 99 100 261 201 486
301 37 17 38 16 54 -21z m1711 -881 c15 -122 25 -204 30 -255 3 -30 8 -62 10
-70 2 -8 6 -41 10 -73 3 -32 21 -98 40 -146 91 -235 57 -381 -125 -528 -36
-29 -144 -97 -241 -152 -142 -81 -189 -114 -250 -174 -81 -79 -145 -117 -199
-117 -86 0 -153 151 -186 425 -4 28 -12 80 -19 117 -12 62 -11 69 6 89 10 11
172 179 361 371 189 193 390 399 448 458 58 59 106 107 107 106 1 -1 5 -24 8
-51z m-3489 -50 c16 -14 103 -83 194 -153 200 -153 205 -158 301 -252 154
-152 240 -331 241 -499 0 -52 -6 -58 -57 -67 -239 -41 -457 93 -604 371 -36
67 -87 212 -95 271 -4 22 -9 51 -12 64 -12 56 -12 290 1 290 1 0 15 -11 31
-25z m1837 -145 c63 -220 69 -249 72 -375 4 -182 -62 -303 -207 -376 -31 -16
-74 -47 -94 -69 -52 -56 -133 -109 -175 -114 -84 -10 -123 74 -154 329 -9 72
-18 141 -20 155 -3 14 -8 46 -11 71 -7 52 -29 27 186 209 47 40 97 82 111 95
54 47 252 205 254 203 1 -2 18 -59 38 -128z m1872 -1130 c98 -515 291 -1159
497 -1665 23 -55 49 -129 59 -165 62 -231 178 -457 434 -845 155 -236 299
-475 350 -580 56 -116 103 -270 101 -331 -3 -106 -104 -252 -204 -296 -115
-51 -266 -7 -375 112 -154 166 -172 371 -49 552 37 54 68 148 71 215 11 221
-327 4 -383 -247 l-11 -49 -60 21 c-221 74 -308 330 -210 618 23 68 68 153
110 205 41 52 52 73 81 158 36 106 29 167 -19 167 -88 0 -288 -185 -366 -338
-22 -44 -27 -46 -110 -44 -44 0 -84 31 -92 70 -27 132 168 454 357 588 61 43
96 89 136 176 29 65 30 96 2 115 -23 15 -30 15 -86 -1 -143 -40 -393 -205
-529 -350 l-57 -60 -28 19 c-185 120 -217 245 -104 410 45 65 147 165 310 305
263 225 287 252 296 341 4 46 2 58 -16 77 -16 16 -28 21 -48 16 -43 -9 -169
-76 -267 -141 -297 -197 -462 -260 -541 -208 -29 19 -59 80 -68 138 -3 21 -13
54 -21 74 -51 121 -31 271 52 392 66 95 215 232 463 426 60 47 218 216 250
268 l35 56 7 -32 c4 -18 19 -93 33 -167z m-1621 -175 c130 -262 29 -495 -288
-666 -71 -38 -79 -40 -107 -29 -49 21 -107 67 -135 110 -113 171 79 512 379
671 l72 39 22 -28 c13 -15 38 -58 57 -97z m-1770 69 c16 -8 33 -14 37 -14 5 0
48 -19 96 -42 283 -134 465 -316 518 -517 l13 -51 -34 -30 c-56 -49 -99 -62
-184 -57 -254 15 -559 333 -560 583 0 60 13 116 33 142 10 13 32 9 81 -14z
m2031 -1047 c72 -155 91 -297 51 -379 -26 -54 -85 -109 -153 -143 -32 -16 -62
-30 -68 -32 -149 -39 -265 -17 -310 60 -24 40 -24 136 1 197 43 109 119 204
219 274 79 55 125 75 223 95 2 1 19 -32 37 -72z m-1705 -17 c137 -52 163 -61
167 -61 4 0 109 -46 173 -76 175 -82 293 -214 336 -376 12 -47 12 -47 -19 -71
-130 -97 -288 -90 -458 22 -202 133 -346 365 -363 587 -3 30 0 36 13 31 9 -3
77 -28 151 -56z m-1105 -509 c70 -32 333 -131 375 -141 93 -23 173 -75 278
-179 96 -97 205 -263 252 -386 47 -122 34 -231 -32 -254 -49 -17 -214 -7 -283
18 -146 52 -264 170 -373 371 -22 41 -76 157 -121 258 -44 100 -99 219 -122
263 -22 45 -37 79 -32 77 4 -2 31 -14 58 -27z m3150 -365 c82 -83 109 -150
103 -252 -7 -113 -67 -203 -189 -284 -71 -47 -97 -51 -176 -24 -104 35 -181
127 -187 222 -11 157 105 314 279 379 91 33 99 31 170 -41z m-1562 -171 c250
-53 456 -153 548 -267 63 -77 87 -128 83 -180 -8 -149 -149 -180 -363 -80
-176 82 -363 256 -407 379 -16 46 -18 127 -4 154 12 21 12 21 143 -6z m1986
-572 c23 -25 56 -75 73 -110 27 -54 32 -78 34 -146 4 -136 -52 -239 -160 -294
-91 -46 -98 -46 -163 -1 -32 22 -71 52 -86 67 -37 34 -80 107 -72 121 4 6 7
32 6 58 0 79 64 181 105 165 9 -3 18 5 25 23 6 18 44 55 97 96 48 37 90 67 94
68 3 0 25 -21 47 -47z m-2889 -89 c79 -37 100 -44 276 -94 280 -79 390 -135
479 -244 32 -39 37 -51 31 -78 -30 -149 -212 -141 -464 19 -31 20 -59 39 -62
42 -3 3 -23 19 -45 35 -71 52 -199 190 -237 256 -36 60 -48 96 -30 88 4 -2 27
-13 52 -24z m1480 -268 c30 -3 105 -8 165 -11 112 -5 193 -19 231 -39 30 -16
119 -91 187 -159 85 -84 103 -142 53 -169 -28 -16 -41 -18 -106 -19 -48 0 -81
5 -179 25 -60 13 -163 52 -242 92 -136 70 -220 170 -203 243 8 30 23 53 33 47
3 -2 31 -7 61 -10z m1900 -322 c17 -15 58 -62 90 -105 33 -42 72 -86 87 -97
26 -19 66 -101 79 -162 29 -140 -62 -200 -221 -145 -188 64 -328 231 -296 352
14 53 72 116 141 153 68 37 80 37 120 4z m1781 -204 c71 -88 89 -109 179 -199
221 -224 394 -357 678 -519 136 -78 306 -153 470 -207 110 -37 299 -85 333
-85 29 0 23 -18 -8 -24 -31 -6 -223 -1 -293 8 -25 3 -70 8 -100 11 -57 6 -116
13 -160 20 -85 14 -187 31 -230 40 -14 3 -36 7 -50 10 -58 11 -186 48 -262 75
-44 16 -108 35 -142 41 -84 15 -197 54 -281 96 -301 151 -389 422 -237 728 30
61 43 78 52 68 3 -4 26 -33 51 -63z m-4385 19 c43 -11 86 -22 94 -24 88 -23
184 -45 224 -50 66 -8 196 -86 243 -145 21 -26 15 -60 -12 -70 -69 -26 -281
18 -422 87 -109 55 -223 165 -223 218 0 8 12 6 96 -16z m1379 -243 c11 -2 51
-7 88 -11 37 -3 76 -8 85 -9 9 -2 44 -7 77 -12 73 -9 54 -5 154 -38 97 -32
171 -67 191 -91 13 -15 12 -19 -7 -35 -18 -14 -39 -17 -120 -15 -111 3 -146 8
-235 34 -139 41 -243 96 -303 161 l-30 33 40 -7 c22 -3 49 -8 60 -10z m1958
-270 c28 -18 75 -47 102 -64 135 -83 125 -167 -19 -166 -76 0 -106 7 -155 35
-57 32 -78 94 -48 145 12 21 60 82 65 83 1 1 26 -14 55 -33z m-2203 -188 c77
-22 150 -54 150 -65 0 -13 -133 7 -207 32 -77 26 -170 68 -187 85 -10 10 139
-21 244 -52z m2988 -259 c34 -13 22 -21 -32 -21 -58 0 -86 10 -86 29 0 13 8
14 47 8 25 -4 57 -11 71 -16z"/>
</g>
</svg>
