<?xml version="1.0" standalone="no"?>
<!DOCTYPE svg PUBLIC "-//W3C//DTD SVG 20010904//EN"
 "http://www.w3.org/TR/2001/REC-SVG-20010904/DTD/svg10.dtd">
<svg version="1.0" xmlns="http://www.w3.org/2000/svg"
 width="746.000000pt" height="746.000000pt" viewBox="0 0 746.000000 746.000000"
 preserveAspectRatio="xMidYMid meet">
<metadata>
Created by potrace 1.11, written by Peter Selinger 2001-2013
</metadata>
<g transform="translate(0.000000,746.000000) scale(0.100000,-0.100000)"
fill="#000000" stroke="none">
<path d="M3128 7455 c-1 -2 -43 -6 -92 -10 -50 -3 -92 -8 -95 -9 -3 -2 -33 -7
-66 -10 -33 -4 -67 -9 -75 -11 -8 -2 -31 -7 -50 -10 -19 -3 -53 -10 -75 -16
-437 -112 -822 -364 -1153 -753 -78 -91 -231 -315 -273 -398 -12 -24 -26 -46
-31 -49 -5 -3 -10 -12 -12 -20 -1 -8 -27 -66 -57 -129 -51 -105 -158 -369
-185 -455 -64 -202 -79 -236 -99 -231 -18 4 -18 4 -3 -7 15 -12 15 -19 3 -73
-7 -32 -18 -74 -23 -91 -6 -18 -8 -33 -5 -33 3 0 1 -6 -4 -12 -6 -7 -11 -20
-11 -28 0 -8 -3 -24 -5 -35 -5 -18 -33 -142 -43 -190 -2 -10 -6 -37 -10 -60
-3 -22 -10 -62 -15 -90 -5 -27 -12 -72 -15 -100 -3 -27 -8 -61 -10 -75 -8 -37
-11 -67 -18 -150 -4 -41 -9 -91 -11 -110 -26 -203 -26 -955 0 -1165 3 -16 7
-68 11 -115 3 -47 8 -94 10 -105 2 -11 7 -47 9 -80 3 -33 7 -69 10 -80 2 -11
7 -42 10 -70 6 -46 27 -178 40 -249 3 -15 13 -58 21 -95 9 -36 18 -77 20 -91
3 -14 7 -32 11 -40 3 -8 9 -31 13 -50 8 -36 47 -174 56 -200 3 -8 5 -15 5 -15
-2 0 87 -252 97 -275 50 -122 72 -170 122 -270 157 -313 305 -524 520 -740
231 -232 453 -382 705 -478 96 -37 117 -44 130 -48 6 -1 44 -12 85 -24 41 -12
84 -24 95 -26 24 -5 62 -12 95 -20 14 -3 35 -7 47 -9 29 -4 99 -15 138 -22 84
-13 564 -23 720 -14 17 1 109 -1 205 -5 96 -4 292 -7 435 -8 285 -1 397 6 525
35 25 5 54 11 65 13 45 9 221 70 227 80 4 6 8 8 8 3 0 -16 275 148 318 190 7
7 17 13 22 13 5 0 16 8 26 17 10 10 34 31 53 46 137 109 364 364 457 512 10
17 24 36 31 43 7 7 13 17 13 22 0 5 6 15 13 22 6 8 18 25 26 38 100 171 203
370 193 370 -4 0 -2 4 4 8 10 7 87 183 136 312 14 36 29 74 33 85 5 11 9 22
10 25 1 3 4 12 7 20 15 39 75 227 84 265 7 29 10 38 17 55 4 8 8 24 10 35 2
11 6 27 10 35 3 8 13 49 22 90 10 41 21 80 26 86 5 6 6 13 3 16 -3 3 0 26 6
49 7 24 14 56 15 71 2 15 8 44 14 65 6 21 12 56 15 78 2 22 5 40 6 40 2 0 8
32 15 80 3 22 7 51 9 65 11 63 20 135 41 335 14 131 19 273 19 530 1 313 -6
453 -33 680 -5 39 -9 77 -9 85 0 8 -3 26 -6 40 -2 14 -7 43 -10 65 -3 22 -8
51 -10 65 -2 14 -10 59 -16 100 -7 41 -14 83 -16 93 -2 9 -6 27 -9 40 -2 12
-8 36 -11 52 -4 17 -8 39 -10 50 -1 11 -10 49 -19 85 -9 36 -18 79 -21 95 -3
17 -10 35 -15 41 -5 6 -7 13 -4 16 3 3 -1 24 -9 47 -9 23 -16 45 -16 49 0 4
-5 25 -11 47 -6 22 -12 45 -14 50 -1 6 -4 17 -7 25 -18 53 -81 245 -83 254 -2
13 -3 15 -62 160 -24 59 -48 116 -53 125 -5 9 -31 61 -58 116 -62 126 -102
202 -126 240 -146 228 -171 263 -287 401 -62 73 -143 157 -233 240 -19 17
-161 128 -186 144 -12 8 -28 20 -34 26 -7 6 -21 14 -32 18 -11 3 -29 14 -40
24 -26 23 -227 121 -264 128 -3 0 -12 4 -20 7 -52 21 -234 62 -327 74 -48 6
-361 8 -428 3 -11 -1 -114 1 -230 4 -283 8 -942 16 -947 11z"/>
<path d="M847 5325 c3 -8 9 -12 14 -9 12 7 11 11 -5 17 -10 4 -13 1 -9 -8z"/>
</g>
</svg>
